G04 #@! TF.FileFunction,Paste,Top*
%FSLAX46Y46*%
G04 Gerber Fmt 4.6, Leading zero omitted, Abs format (unit mm)*
G04 Created by KiCad (PCBNEW 4.0.5) date 2017 January 19, Thursday 18:54:43*
%MOMM*%
%LPD*%
G01*
G04 APERTURE LIST*
%ADD10C,0.100000*%
%ADD11C,0.150000*%
%ADD12C,0.300000*%
%ADD13C,0.400000*%
%ADD14R,2.000000X2.000000*%
%ADD15R,3.500000X1.600000*%
%ADD16R,1.000000X1.250000*%
%ADD17R,1.250000X1.000000*%
%ADD18R,1.200000X1.200000*%
%ADD19R,0.800000X0.900000*%
%ADD20R,1.500000X0.600000*%
%ADD21R,0.406400X0.660400*%
%ADD22R,0.398780X0.749300*%
%ADD23R,0.403000X0.710000*%
%ADD24R,3.500000X1.800000*%
%ADD25R,0.700000X1.300000*%
%ADD26R,1.500000X1.300000*%
%ADD27R,1.300000X0.700000*%
%ADD28R,1.300000X1.500000*%
%ADD29R,2.000000X1.000000*%
%ADD30R,3.800000X2.000000*%
%ADD31R,1.500000X2.000000*%
%ADD32R,0.600000X2.000000*%
%ADD33R,1.500000X1.250000*%
%ADD34R,3.500000X3.500000*%
%ADD35R,0.600000X1.500000*%
%ADD36R,2.500000X1.500000*%
G04 APERTURE END LIST*
D10*
D11*
X177002200Y-116007200D02*
X177002200Y-148007200D01*
X285002200Y-148007200D01*
X285002200Y-116007200D01*
X177002200Y-116007200D01*
D10*
D11*
X10000000Y40000000D02*
X10000000Y-150007200D01*
X287002200Y-150007200D01*
X287002200Y40000000D01*
X10000000Y40000000D01*
D10*
D11*
X12000000Y38000000D02*
X12000000Y-148007200D01*
X285002200Y-148007200D01*
X285002200Y38000000D01*
X12000000Y38000000D01*
D10*
D11*
X60000000Y38000000D02*
X60000000Y40000000D01*
D10*
D11*
X110000000Y38000000D02*
X110000000Y40000000D01*
D10*
D11*
X160000000Y38000000D02*
X160000000Y40000000D01*
D10*
D11*
X210000000Y38000000D02*
X210000000Y40000000D01*
D10*
D11*
X260000000Y38000000D02*
X260000000Y40000000D01*
D10*
D11*
X35990476Y38411905D02*
X35247619Y38411905D01*
X35619048Y38411905D02*
X35619048Y39711905D01*
X35495238Y39526190D01*
X35371429Y39402381D01*
X35247619Y39340476D01*
D10*
D11*
X85247619Y39588095D02*
X85309524Y39650000D01*
X85433333Y39711905D01*
X85742857Y39711905D01*
X85866667Y39650000D01*
X85928571Y39588095D01*
X85990476Y39464286D01*
X85990476Y39340476D01*
X85928571Y39154762D01*
X85185714Y38411905D01*
X85990476Y38411905D01*
D10*
D11*
X135185714Y39711905D02*
X135990476Y39711905D01*
X135557143Y39216667D01*
X135742857Y39216667D01*
X135866667Y39154762D01*
X135928571Y39092857D01*
X135990476Y38969048D01*
X135990476Y38659524D01*
X135928571Y38535714D01*
X135866667Y38473810D01*
X135742857Y38411905D01*
X135371429Y38411905D01*
X135247619Y38473810D01*
X135185714Y38535714D01*
D10*
D11*
X185866667Y39278571D02*
X185866667Y38411905D01*
X185557143Y39773810D02*
X185247619Y38845238D01*
X186052381Y38845238D01*
D10*
D11*
X235928571Y39711905D02*
X235309524Y39711905D01*
X235247619Y39092857D01*
X235309524Y39154762D01*
X235433333Y39216667D01*
X235742857Y39216667D01*
X235866667Y39154762D01*
X235928571Y39092857D01*
X235990476Y38969048D01*
X235990476Y38659524D01*
X235928571Y38535714D01*
X235866667Y38473810D01*
X235742857Y38411905D01*
X235433333Y38411905D01*
X235309524Y38473810D01*
X235247619Y38535714D01*
D10*
D11*
X285866667Y39711905D02*
X285619048Y39711905D01*
X285495238Y39650000D01*
X285433333Y39588095D01*
X285309524Y39402381D01*
X285247619Y39154762D01*
X285247619Y38659524D01*
X285309524Y38535714D01*
X285371429Y38473810D01*
X285495238Y38411905D01*
X285742857Y38411905D01*
X285866667Y38473810D01*
X285928571Y38535714D01*
X285990476Y38659524D01*
X285990476Y38969048D01*
X285928571Y39092857D01*
X285866667Y39154762D01*
X285742857Y39216667D01*
X285495238Y39216667D01*
X285371429Y39154762D01*
X285309524Y39092857D01*
X285247619Y38969048D01*
D10*
D11*
X60000000Y-148007200D02*
X60000000Y-150007200D01*
D10*
D11*
X110000000Y-148007200D02*
X110000000Y-150007200D01*
D10*
D11*
X160000000Y-148007200D02*
X160000000Y-150007200D01*
D10*
D11*
X210000000Y-148007200D02*
X210000000Y-150007200D01*
D10*
D11*
X260000000Y-148007200D02*
X260000000Y-150007200D01*
D10*
D11*
X35990476Y-149595295D02*
X35247619Y-149595295D01*
X35619048Y-149595295D02*
X35619048Y-148295295D01*
X35495238Y-148481010D01*
X35371429Y-148604819D01*
X35247619Y-148666724D01*
D10*
D11*
X85247619Y-148419105D02*
X85309524Y-148357200D01*
X85433333Y-148295295D01*
X85742857Y-148295295D01*
X85866667Y-148357200D01*
X85928571Y-148419105D01*
X85990476Y-148542914D01*
X85990476Y-148666724D01*
X85928571Y-148852438D01*
X85185714Y-149595295D01*
X85990476Y-149595295D01*
D10*
D11*
X135185714Y-148295295D02*
X135990476Y-148295295D01*
X135557143Y-148790533D01*
X135742857Y-148790533D01*
X135866667Y-148852438D01*
X135928571Y-148914343D01*
X135990476Y-149038152D01*
X135990476Y-149347676D01*
X135928571Y-149471486D01*
X135866667Y-149533390D01*
X135742857Y-149595295D01*
X135371429Y-149595295D01*
X135247619Y-149533390D01*
X135185714Y-149471486D01*
D10*
D11*
X185866667Y-148728629D02*
X185866667Y-149595295D01*
X185557143Y-148233390D02*
X185247619Y-149161962D01*
X186052381Y-149161962D01*
D10*
D11*
X235928571Y-148295295D02*
X235309524Y-148295295D01*
X235247619Y-148914343D01*
X235309524Y-148852438D01*
X235433333Y-148790533D01*
X235742857Y-148790533D01*
X235866667Y-148852438D01*
X235928571Y-148914343D01*
X235990476Y-149038152D01*
X235990476Y-149347676D01*
X235928571Y-149471486D01*
X235866667Y-149533390D01*
X235742857Y-149595295D01*
X235433333Y-149595295D01*
X235309524Y-149533390D01*
X235247619Y-149471486D01*
D10*
D11*
X285866667Y-148295295D02*
X285619048Y-148295295D01*
X285495238Y-148357200D01*
X285433333Y-148419105D01*
X285309524Y-148604819D01*
X285247619Y-148852438D01*
X285247619Y-149347676D01*
X285309524Y-149471486D01*
X285371429Y-149533390D01*
X285495238Y-149595295D01*
X285742857Y-149595295D01*
X285866667Y-149533390D01*
X285928571Y-149471486D01*
X285990476Y-149347676D01*
X285990476Y-149038152D01*
X285928571Y-148914343D01*
X285866667Y-148852438D01*
X285742857Y-148790533D01*
X285495238Y-148790533D01*
X285371429Y-148852438D01*
X285309524Y-148914343D01*
X285247619Y-149038152D01*
D10*
D11*
X10000000Y-10000000D02*
X12000000Y-10000000D01*
D10*
D11*
X10000000Y-60000000D02*
X12000000Y-60000000D01*
D10*
D11*
X10000000Y-110000000D02*
X12000000Y-110000000D01*
D10*
D11*
X10690476Y14783333D02*
X11309524Y14783333D01*
X10566667Y14411905D02*
X11000000Y15711905D01*
X11433333Y14411905D01*
D10*
D11*
X11092857Y-34907143D02*
X11278571Y-34969048D01*
X11340476Y-35030952D01*
X11402381Y-35154762D01*
X11402381Y-35340476D01*
X11340476Y-35464286D01*
X11278571Y-35526190D01*
X11154762Y-35588095D01*
X10659524Y-35588095D01*
X10659524Y-34288095D01*
X11092857Y-34288095D01*
X11216667Y-34350000D01*
X11278571Y-34411905D01*
X11340476Y-34535714D01*
X11340476Y-34659524D01*
X11278571Y-34783333D01*
X11216667Y-34845238D01*
X11092857Y-34907143D01*
X10659524Y-34907143D01*
D10*
D11*
X11402381Y-85464286D02*
X11340476Y-85526190D01*
X11154762Y-85588095D01*
X11030952Y-85588095D01*
X10845238Y-85526190D01*
X10721429Y-85402381D01*
X10659524Y-85278571D01*
X10597619Y-85030952D01*
X10597619Y-84845238D01*
X10659524Y-84597619D01*
X10721429Y-84473810D01*
X10845238Y-84350000D01*
X11030952Y-84288095D01*
X11154762Y-84288095D01*
X11340476Y-84350000D01*
X11402381Y-84411905D01*
D10*
D11*
X10659524Y-135588095D02*
X10659524Y-134288095D01*
X10969048Y-134288095D01*
X11154762Y-134350000D01*
X11278571Y-134473810D01*
X11340476Y-134597619D01*
X11402381Y-134845238D01*
X11402381Y-135030952D01*
X11340476Y-135278571D01*
X11278571Y-135402381D01*
X11154762Y-135526190D01*
X10969048Y-135588095D01*
X10659524Y-135588095D01*
D10*
D11*
X287002200Y-10000000D02*
X285002200Y-10000000D01*
D10*
D11*
X287002200Y-60000000D02*
X285002200Y-60000000D01*
D10*
D11*
X287002200Y-110000000D02*
X285002200Y-110000000D01*
D10*
D11*
X285692676Y14783333D02*
X286311724Y14783333D01*
X285568867Y14411905D02*
X286002200Y15711905D01*
X286435533Y14411905D01*
D10*
D11*
X286095057Y-34907143D02*
X286280771Y-34969048D01*
X286342676Y-35030952D01*
X286404581Y-35154762D01*
X286404581Y-35340476D01*
X286342676Y-35464286D01*
X286280771Y-35526190D01*
X286156962Y-35588095D01*
X285661724Y-35588095D01*
X285661724Y-34288095D01*
X286095057Y-34288095D01*
X286218867Y-34350000D01*
X286280771Y-34411905D01*
X286342676Y-34535714D01*
X286342676Y-34659524D01*
X286280771Y-34783333D01*
X286218867Y-34845238D01*
X286095057Y-34907143D01*
X285661724Y-34907143D01*
D10*
D11*
X286404581Y-85464286D02*
X286342676Y-85526190D01*
X286156962Y-85588095D01*
X286033152Y-85588095D01*
X285847438Y-85526190D01*
X285723629Y-85402381D01*
X285661724Y-85278571D01*
X285599819Y-85030952D01*
X285599819Y-84845238D01*
X285661724Y-84597619D01*
X285723629Y-84473810D01*
X285847438Y-84350000D01*
X286033152Y-84288095D01*
X286156962Y-84288095D01*
X286342676Y-84350000D01*
X286404581Y-84411905D01*
D10*
D11*
X285661724Y-135588095D02*
X285661724Y-134288095D01*
X285971248Y-134288095D01*
X286156962Y-134350000D01*
X286280771Y-134473810D01*
X286342676Y-134597619D01*
X286404581Y-134845238D01*
X286404581Y-135030952D01*
X286342676Y-135278571D01*
X286280771Y-135402381D01*
X286156962Y-135526190D01*
X285971248Y-135588095D01*
X285661724Y-135588095D01*
D10*
D11*
X200359343Y-143785771D02*
X200359343Y-142285771D01*
X200716486Y-142285771D01*
X200930771Y-142357200D01*
X201073629Y-142500057D01*
X201145057Y-142642914D01*
X201216486Y-142928629D01*
X201216486Y-143142914D01*
X201145057Y-143428629D01*
X201073629Y-143571486D01*
X200930771Y-143714343D01*
X200716486Y-143785771D01*
X200359343Y-143785771D01*
X202502200Y-143785771D02*
X202502200Y-143000057D01*
X202430771Y-142857200D01*
X202287914Y-142785771D01*
X202002200Y-142785771D01*
X201859343Y-142857200D01*
X202502200Y-143714343D02*
X202359343Y-143785771D01*
X202002200Y-143785771D01*
X201859343Y-143714343D01*
X201787914Y-143571486D01*
X201787914Y-143428629D01*
X201859343Y-143285771D01*
X202002200Y-143214343D01*
X202359343Y-143214343D01*
X202502200Y-143142914D01*
X203002200Y-142785771D02*
X203573629Y-142785771D01*
X203216486Y-142285771D02*
X203216486Y-143571486D01*
X203287914Y-143714343D01*
X203430772Y-143785771D01*
X203573629Y-143785771D01*
X204645057Y-143714343D02*
X204502200Y-143785771D01*
X204216486Y-143785771D01*
X204073629Y-143714343D01*
X204002200Y-143571486D01*
X204002200Y-143000057D01*
X204073629Y-142857200D01*
X204216486Y-142785771D01*
X204502200Y-142785771D01*
X204645057Y-142857200D01*
X204716486Y-143000057D01*
X204716486Y-143142914D01*
X204002200Y-143285771D01*
X205359343Y-143642914D02*
X205430771Y-143714343D01*
X205359343Y-143785771D01*
X205287914Y-143714343D01*
X205359343Y-143642914D01*
X205359343Y-143785771D01*
X205359343Y-142857200D02*
X205430771Y-142928629D01*
X205359343Y-143000057D01*
X205287914Y-142928629D01*
X205359343Y-142857200D01*
X205359343Y-143000057D01*
X207145057Y-142428629D02*
X207216486Y-142357200D01*
X207359343Y-142285771D01*
X207716486Y-142285771D01*
X207859343Y-142357200D01*
X207930772Y-142428629D01*
X208002200Y-142571486D01*
X208002200Y-142714343D01*
X207930772Y-142928629D01*
X207073629Y-143785771D01*
X208002200Y-143785771D01*
X208930771Y-142285771D02*
X209073628Y-142285771D01*
X209216485Y-142357200D01*
X209287914Y-142428629D01*
X209359343Y-142571486D01*
X209430771Y-142857200D01*
X209430771Y-143214343D01*
X209359343Y-143500057D01*
X209287914Y-143642914D01*
X209216485Y-143714343D01*
X209073628Y-143785771D01*
X208930771Y-143785771D01*
X208787914Y-143714343D01*
X208716485Y-143642914D01*
X208645057Y-143500057D01*
X208573628Y-143214343D01*
X208573628Y-142857200D01*
X208645057Y-142571486D01*
X208716485Y-142428629D01*
X208787914Y-142357200D01*
X208930771Y-142285771D01*
X210859342Y-143785771D02*
X210002199Y-143785771D01*
X210430771Y-143785771D02*
X210430771Y-142285771D01*
X210287914Y-142500057D01*
X210145056Y-142642914D01*
X210002199Y-142714343D01*
X212145056Y-142285771D02*
X211859342Y-142285771D01*
X211716485Y-142357200D01*
X211645056Y-142428629D01*
X211502199Y-142642914D01*
X211430770Y-142928629D01*
X211430770Y-143500057D01*
X211502199Y-143642914D01*
X211573627Y-143714343D01*
X211716485Y-143785771D01*
X212002199Y-143785771D01*
X212145056Y-143714343D01*
X212216485Y-143642914D01*
X212287913Y-143500057D01*
X212287913Y-143142914D01*
X212216485Y-143000057D01*
X212145056Y-142928629D01*
X212002199Y-142857200D01*
X211716485Y-142857200D01*
X211573627Y-142928629D01*
X211502199Y-143000057D01*
X211430770Y-143142914D01*
X212930770Y-143214343D02*
X214073627Y-143214343D01*
X215073627Y-142285771D02*
X215216484Y-142285771D01*
X215359341Y-142357200D01*
X215430770Y-142428629D01*
X215502199Y-142571486D01*
X215573627Y-142857200D01*
X215573627Y-143214343D01*
X215502199Y-143500057D01*
X215430770Y-143642914D01*
X215359341Y-143714343D01*
X215216484Y-143785771D01*
X215073627Y-143785771D01*
X214930770Y-143714343D01*
X214859341Y-143642914D01*
X214787913Y-143500057D01*
X214716484Y-143214343D01*
X214716484Y-142857200D01*
X214787913Y-142571486D01*
X214859341Y-142428629D01*
X214930770Y-142357200D01*
X215073627Y-142285771D01*
X217002198Y-143785771D02*
X216145055Y-143785771D01*
X216573627Y-143785771D02*
X216573627Y-142285771D01*
X216430770Y-142500057D01*
X216287912Y-142642914D01*
X216145055Y-142714343D01*
X217645055Y-143214343D02*
X218787912Y-143214343D01*
X219787912Y-142285771D02*
X219930769Y-142285771D01*
X220073626Y-142357200D01*
X220145055Y-142428629D01*
X220216484Y-142571486D01*
X220287912Y-142857200D01*
X220287912Y-143214343D01*
X220216484Y-143500057D01*
X220145055Y-143642914D01*
X220073626Y-143714343D01*
X219930769Y-143785771D01*
X219787912Y-143785771D01*
X219645055Y-143714343D01*
X219573626Y-143642914D01*
X219502198Y-143500057D01*
X219430769Y-143214343D01*
X219430769Y-142857200D01*
X219502198Y-142571486D01*
X219573626Y-142428629D01*
X219645055Y-142357200D01*
X219787912Y-142285771D01*
X221573626Y-142285771D02*
X221287912Y-142285771D01*
X221145055Y-142357200D01*
X221073626Y-142428629D01*
X220930769Y-142642914D01*
X220859340Y-142928629D01*
X220859340Y-143500057D01*
X220930769Y-143642914D01*
X221002197Y-143714343D01*
X221145055Y-143785771D01*
X221430769Y-143785771D01*
X221573626Y-143714343D01*
X221645055Y-143642914D01*
X221716483Y-143500057D01*
X221716483Y-143142914D01*
X221645055Y-143000057D01*
X221573626Y-142928629D01*
X221430769Y-142857200D01*
X221145055Y-142857200D01*
X221002197Y-142928629D01*
X220930769Y-143000057D01*
X220859340Y-143142914D01*
D10*
D11*
X177002200Y-144507200D02*
X285002200Y-144507200D01*
D10*
D11*
X178359343Y-146585771D02*
X178359343Y-145085771D01*
X179216486Y-146585771D02*
X178573629Y-145728629D01*
X179216486Y-145085771D02*
X178359343Y-145942914D01*
X179859343Y-146585771D02*
X179859343Y-145585771D01*
X179859343Y-145085771D02*
X179787914Y-145157200D01*
X179859343Y-145228629D01*
X179930771Y-145157200D01*
X179859343Y-145085771D01*
X179859343Y-145228629D01*
X181430772Y-146442914D02*
X181359343Y-146514343D01*
X181145057Y-146585771D01*
X181002200Y-146585771D01*
X180787915Y-146514343D01*
X180645057Y-146371486D01*
X180573629Y-146228629D01*
X180502200Y-145942914D01*
X180502200Y-145728629D01*
X180573629Y-145442914D01*
X180645057Y-145300057D01*
X180787915Y-145157200D01*
X181002200Y-145085771D01*
X181145057Y-145085771D01*
X181359343Y-145157200D01*
X181430772Y-145228629D01*
X182716486Y-146585771D02*
X182716486Y-145800057D01*
X182645057Y-145657200D01*
X182502200Y-145585771D01*
X182216486Y-145585771D01*
X182073629Y-145657200D01*
X182716486Y-146514343D02*
X182573629Y-146585771D01*
X182216486Y-146585771D01*
X182073629Y-146514343D01*
X182002200Y-146371486D01*
X182002200Y-146228629D01*
X182073629Y-146085771D01*
X182216486Y-146014343D01*
X182573629Y-146014343D01*
X182716486Y-145942914D01*
X184073629Y-146585771D02*
X184073629Y-145085771D01*
X184073629Y-146514343D02*
X183930772Y-146585771D01*
X183645058Y-146585771D01*
X183502200Y-146514343D01*
X183430772Y-146442914D01*
X183359343Y-146300057D01*
X183359343Y-145871486D01*
X183430772Y-145728629D01*
X183502200Y-145657200D01*
X183645058Y-145585771D01*
X183930772Y-145585771D01*
X184073629Y-145657200D01*
X185930772Y-145800057D02*
X186430772Y-145800057D01*
X186645058Y-146585771D02*
X185930772Y-146585771D01*
X185930772Y-145085771D01*
X186645058Y-145085771D01*
X187287915Y-146442914D02*
X187359343Y-146514343D01*
X187287915Y-146585771D01*
X187216486Y-146514343D01*
X187287915Y-146442914D01*
X187287915Y-146585771D01*
X188002201Y-146585771D02*
X188002201Y-145085771D01*
X188359344Y-145085771D01*
X188573629Y-145157200D01*
X188716487Y-145300057D01*
X188787915Y-145442914D01*
X188859344Y-145728629D01*
X188859344Y-145942914D01*
X188787915Y-146228629D01*
X188716487Y-146371486D01*
X188573629Y-146514343D01*
X188359344Y-146585771D01*
X188002201Y-146585771D01*
X189502201Y-146442914D02*
X189573629Y-146514343D01*
X189502201Y-146585771D01*
X189430772Y-146514343D01*
X189502201Y-146442914D01*
X189502201Y-146585771D01*
X190145058Y-146157200D02*
X190859344Y-146157200D01*
X190002201Y-146585771D02*
X190502201Y-145085771D01*
X191002201Y-146585771D01*
X191502201Y-146442914D02*
X191573629Y-146514343D01*
X191502201Y-146585771D01*
X191430772Y-146514343D01*
X191502201Y-146442914D01*
X191502201Y-146585771D01*
X194502201Y-146585771D02*
X194502201Y-145085771D01*
X194645058Y-146014343D02*
X195073629Y-146585771D01*
X195073629Y-145585771D02*
X194502201Y-146157200D01*
X195716487Y-146585771D02*
X195716487Y-145585771D01*
X195716487Y-145085771D02*
X195645058Y-145157200D01*
X195716487Y-145228629D01*
X195787915Y-145157200D01*
X195716487Y-145085771D01*
X195716487Y-145228629D01*
X197073630Y-146514343D02*
X196930773Y-146585771D01*
X196645059Y-146585771D01*
X196502201Y-146514343D01*
X196430773Y-146442914D01*
X196359344Y-146300057D01*
X196359344Y-145871486D01*
X196430773Y-145728629D01*
X196502201Y-145657200D01*
X196645059Y-145585771D01*
X196930773Y-145585771D01*
X197073630Y-145657200D01*
X198359344Y-146585771D02*
X198359344Y-145800057D01*
X198287915Y-145657200D01*
X198145058Y-145585771D01*
X197859344Y-145585771D01*
X197716487Y-145657200D01*
X198359344Y-146514343D02*
X198216487Y-146585771D01*
X197859344Y-146585771D01*
X197716487Y-146514343D01*
X197645058Y-146371486D01*
X197645058Y-146228629D01*
X197716487Y-146085771D01*
X197859344Y-146014343D01*
X198216487Y-146014343D01*
X198359344Y-145942914D01*
X199716487Y-146585771D02*
X199716487Y-145085771D01*
X199716487Y-146514343D02*
X199573630Y-146585771D01*
X199287916Y-146585771D01*
X199145058Y-146514343D01*
X199073630Y-146442914D01*
X199002201Y-146300057D01*
X199002201Y-145871486D01*
X199073630Y-145728629D01*
X199145058Y-145657200D01*
X199287916Y-145585771D01*
X199573630Y-145585771D01*
X199716487Y-145657200D01*
X202216487Y-145585771D02*
X202216487Y-146585771D01*
X201859344Y-145014343D02*
X201502201Y-146085771D01*
X202430773Y-146085771D01*
X203002201Y-146442914D02*
X203073629Y-146514343D01*
X203002201Y-146585771D01*
X202930772Y-146514343D01*
X203002201Y-146442914D01*
X203002201Y-146585771D01*
X204002201Y-145085771D02*
X204145058Y-145085771D01*
X204287915Y-145157200D01*
X204359344Y-145228629D01*
X204430773Y-145371486D01*
X204502201Y-145657200D01*
X204502201Y-146014343D01*
X204430773Y-146300057D01*
X204359344Y-146442914D01*
X204287915Y-146514343D01*
X204145058Y-146585771D01*
X204002201Y-146585771D01*
X203859344Y-146514343D01*
X203787915Y-146442914D01*
X203716487Y-146300057D01*
X203645058Y-146014343D01*
X203645058Y-145657200D01*
X203716487Y-145371486D01*
X203787915Y-145228629D01*
X203859344Y-145157200D01*
X204002201Y-145085771D01*
X205145058Y-146442914D02*
X205216486Y-146514343D01*
X205145058Y-146585771D01*
X205073629Y-146514343D01*
X205145058Y-146442914D01*
X205145058Y-146585771D01*
X206573630Y-145085771D02*
X205859344Y-145085771D01*
X205787915Y-145800057D01*
X205859344Y-145728629D01*
X206002201Y-145657200D01*
X206359344Y-145657200D01*
X206502201Y-145728629D01*
X206573630Y-145800057D01*
X206645058Y-145942914D01*
X206645058Y-146300057D01*
X206573630Y-146442914D01*
X206502201Y-146514343D01*
X206359344Y-146585771D01*
X206002201Y-146585771D01*
X205859344Y-146514343D01*
X205787915Y-146442914D01*
D10*
D11*
X177002200Y-141507200D02*
X285002200Y-141507200D01*
D10*
D12*
X264216486Y-143785771D02*
X263716486Y-143071486D01*
X263359343Y-143785771D02*
X263359343Y-142285771D01*
X263930771Y-142285771D01*
X264073629Y-142357200D01*
X264145057Y-142428629D01*
X264216486Y-142571486D01*
X264216486Y-142785771D01*
X264145057Y-142928629D01*
X264073629Y-143000057D01*
X263930771Y-143071486D01*
X263359343Y-143071486D01*
X265430771Y-143714343D02*
X265287914Y-143785771D01*
X265002200Y-143785771D01*
X264859343Y-143714343D01*
X264787914Y-143571486D01*
X264787914Y-143000057D01*
X264859343Y-142857200D01*
X265002200Y-142785771D01*
X265287914Y-142785771D01*
X265430771Y-142857200D01*
X265502200Y-143000057D01*
X265502200Y-143142914D01*
X264787914Y-143285771D01*
X266002200Y-142785771D02*
X266359343Y-143785771D01*
X266716485Y-142785771D01*
X267287914Y-143642914D02*
X267359342Y-143714343D01*
X267287914Y-143785771D01*
X267216485Y-143714343D01*
X267287914Y-143642914D01*
X267287914Y-143785771D01*
X267287914Y-142857200D02*
X267359342Y-142928629D01*
X267287914Y-143000057D01*
X267216485Y-142928629D01*
X267287914Y-142857200D01*
X267287914Y-143000057D01*
D10*
D11*
X178287914Y-143714343D02*
X178502200Y-143785771D01*
X178859343Y-143785771D01*
X179002200Y-143714343D01*
X179073629Y-143642914D01*
X179145057Y-143500057D01*
X179145057Y-143357200D01*
X179073629Y-143214343D01*
X179002200Y-143142914D01*
X178859343Y-143071486D01*
X178573629Y-143000057D01*
X178430771Y-142928629D01*
X178359343Y-142857200D01*
X178287914Y-142714343D01*
X178287914Y-142571486D01*
X178359343Y-142428629D01*
X178430771Y-142357200D01*
X178573629Y-142285771D01*
X178930771Y-142285771D01*
X179145057Y-142357200D01*
X179787914Y-143785771D02*
X179787914Y-142785771D01*
X179787914Y-142285771D02*
X179716485Y-142357200D01*
X179787914Y-142428629D01*
X179859342Y-142357200D01*
X179787914Y-142285771D01*
X179787914Y-142428629D01*
X180359343Y-142785771D02*
X181145057Y-142785771D01*
X180359343Y-143785771D01*
X181145057Y-143785771D01*
X182287914Y-143714343D02*
X182145057Y-143785771D01*
X181859343Y-143785771D01*
X181716486Y-143714343D01*
X181645057Y-143571486D01*
X181645057Y-143000057D01*
X181716486Y-142857200D01*
X181859343Y-142785771D01*
X182145057Y-142785771D01*
X182287914Y-142857200D01*
X182359343Y-143000057D01*
X182359343Y-143142914D01*
X181645057Y-143285771D01*
X183002200Y-143642914D02*
X183073628Y-143714343D01*
X183002200Y-143785771D01*
X182930771Y-143714343D01*
X183002200Y-143642914D01*
X183002200Y-143785771D01*
X183002200Y-142857200D02*
X183073628Y-142928629D01*
X183002200Y-143000057D01*
X182930771Y-142928629D01*
X183002200Y-142857200D01*
X183002200Y-143000057D01*
X184787914Y-143357200D02*
X185502200Y-143357200D01*
X184645057Y-143785771D02*
X185145057Y-142285771D01*
X185645057Y-143785771D01*
X186787914Y-142785771D02*
X186787914Y-143785771D01*
X186430771Y-142214343D02*
X186073628Y-143285771D01*
X187002200Y-143285771D01*
D10*
D11*
X263359343Y-146585771D02*
X263359343Y-145085771D01*
X264716486Y-146585771D02*
X264716486Y-145085771D01*
X264716486Y-146514343D02*
X264573629Y-146585771D01*
X264287915Y-146585771D01*
X264145057Y-146514343D01*
X264073629Y-146442914D01*
X264002200Y-146300057D01*
X264002200Y-145871486D01*
X264073629Y-145728629D01*
X264145057Y-145657200D01*
X264287915Y-145585771D01*
X264573629Y-145585771D01*
X264716486Y-145657200D01*
X265430772Y-146442914D02*
X265502200Y-146514343D01*
X265430772Y-146585771D01*
X265359343Y-146514343D01*
X265430772Y-146442914D01*
X265430772Y-146585771D01*
X265430772Y-145657200D02*
X265502200Y-145728629D01*
X265430772Y-145800057D01*
X265359343Y-145728629D01*
X265430772Y-145657200D01*
X265430772Y-145800057D01*
X268073629Y-146585771D02*
X267216486Y-146585771D01*
X267645058Y-146585771D02*
X267645058Y-145085771D01*
X267502201Y-145300057D01*
X267359343Y-145442914D01*
X267216486Y-145514343D01*
X269787914Y-145014343D02*
X268502200Y-146942914D01*
X271073629Y-146585771D02*
X270216486Y-146585771D01*
X270645058Y-146585771D02*
X270645058Y-145085771D01*
X270502201Y-145300057D01*
X270359343Y-145442914D01*
X270216486Y-145514343D01*
D10*
D11*
X177002200Y-137507200D02*
X285002200Y-137507200D01*
D10*
D13*
X178454581Y-138211962D02*
X179597438Y-138211962D01*
X178776010Y-140211962D02*
X179026010Y-138211962D01*
X180014105Y-140211962D02*
X180180771Y-138878629D01*
X180264105Y-138211962D02*
X180156962Y-138307200D01*
X180240295Y-138402438D01*
X180347439Y-138307200D01*
X180264105Y-138211962D01*
X180240295Y-138402438D01*
X180847438Y-138878629D02*
X181609343Y-138878629D01*
X181216486Y-138211962D02*
X181002200Y-139926248D01*
X181073630Y-140116724D01*
X181252201Y-140211962D01*
X181442677Y-140211962D01*
X182395058Y-140211962D02*
X182216487Y-140116724D01*
X182145057Y-139926248D01*
X182359343Y-138211962D01*
X183930772Y-140116724D02*
X183728391Y-140211962D01*
X183347439Y-140211962D01*
X183168867Y-140116724D01*
X183097438Y-139926248D01*
X183192676Y-139164343D01*
X183311724Y-138973867D01*
X183514105Y-138878629D01*
X183895057Y-138878629D01*
X184073629Y-138973867D01*
X184145057Y-139164343D01*
X184121248Y-139354819D01*
X183145057Y-139545295D01*
X184895057Y-140021486D02*
X184978392Y-140116724D01*
X184871248Y-140211962D01*
X184787915Y-140116724D01*
X184895057Y-140021486D01*
X184871248Y-140211962D01*
X185026010Y-138973867D02*
X185109344Y-139069105D01*
X185002200Y-139164343D01*
X184918867Y-139069105D01*
X185026010Y-138973867D01*
X185002200Y-139164343D01*
X187347439Y-140211962D02*
X187514105Y-138878629D01*
X187597439Y-138211962D02*
X187490296Y-138307200D01*
X187573629Y-138402438D01*
X187680773Y-138307200D01*
X187597439Y-138211962D01*
X187573629Y-138402438D01*
X188299820Y-140211962D02*
X188466486Y-138878629D01*
X188442677Y-139069105D02*
X188549821Y-138973867D01*
X188752201Y-138878629D01*
X189037915Y-138878629D01*
X189216487Y-138973867D01*
X189287915Y-139164343D01*
X189156963Y-140211962D01*
X189287915Y-139164343D02*
X189406963Y-138973867D01*
X189609344Y-138878629D01*
X189895058Y-138878629D01*
X190073630Y-138973867D01*
X190145058Y-139164343D01*
X190014106Y-140211962D01*
X191823630Y-140211962D02*
X191954582Y-139164343D01*
X191883154Y-138973867D01*
X191704582Y-138878629D01*
X191323630Y-138878629D01*
X191121249Y-138973867D01*
X191835535Y-140116724D02*
X191633154Y-140211962D01*
X191156964Y-140211962D01*
X190978392Y-140116724D01*
X190906963Y-139926248D01*
X190930773Y-139735771D01*
X191049820Y-139545295D01*
X191252202Y-139450057D01*
X191728392Y-139450057D01*
X191930773Y-139354819D01*
X193645059Y-140116724D02*
X193442678Y-140211962D01*
X193061726Y-140211962D01*
X192883155Y-140116724D01*
X192799820Y-140021486D01*
X192728392Y-139831010D01*
X192799820Y-139259581D01*
X192918868Y-139069105D01*
X193026012Y-138973867D01*
X193228392Y-138878629D01*
X193609344Y-138878629D01*
X193787916Y-138973867D01*
X196180773Y-138878629D02*
X195930773Y-140878629D01*
X196168869Y-138973867D02*
X196371250Y-138878629D01*
X196752202Y-138878629D01*
X196930774Y-138973867D01*
X197014107Y-139069105D01*
X197085535Y-139259581D01*
X197014107Y-139831010D01*
X196895059Y-140021486D01*
X196787917Y-140116724D01*
X196585536Y-140211962D01*
X196204584Y-140211962D01*
X196026012Y-140116724D01*
X198680774Y-140211962D02*
X198811726Y-139164343D01*
X198740298Y-138973867D01*
X198561726Y-138878629D01*
X198180774Y-138878629D01*
X197978393Y-138973867D01*
X198692679Y-140116724D02*
X198490298Y-140211962D01*
X198014108Y-140211962D01*
X197835536Y-140116724D01*
X197764107Y-139926248D01*
X197787917Y-139735771D01*
X197906964Y-139545295D01*
X198109346Y-139450057D01*
X198585536Y-139450057D01*
X198787917Y-139354819D01*
X199514107Y-138878629D02*
X200276012Y-138878629D01*
X199883155Y-138211962D02*
X199668869Y-139926248D01*
X199740299Y-140116724D01*
X199918870Y-140211962D01*
X200109346Y-140211962D01*
X201645060Y-140116724D02*
X201442679Y-140211962D01*
X201061727Y-140211962D01*
X200883156Y-140116724D01*
X200799821Y-140021486D01*
X200728393Y-139831010D01*
X200799821Y-139259581D01*
X200918869Y-139069105D01*
X201026013Y-138973867D01*
X201228393Y-138878629D01*
X201609345Y-138878629D01*
X201787917Y-138973867D01*
X202490298Y-140211962D02*
X202740298Y-138211962D01*
X203347441Y-140211962D02*
X203478393Y-139164343D01*
X203406965Y-138973867D01*
X203228393Y-138878629D01*
X202942679Y-138878629D01*
X202740299Y-138973867D01*
X202633155Y-139069105D01*
X204299822Y-140211962D02*
X204549822Y-138211962D01*
X204454584Y-138973867D02*
X204656965Y-138878629D01*
X205037917Y-138878629D01*
X205216489Y-138973867D01*
X205299822Y-139069105D01*
X205371250Y-139259581D01*
X205299822Y-139831010D01*
X205180774Y-140021486D01*
X205073632Y-140116724D01*
X204871251Y-140211962D01*
X204490299Y-140211962D01*
X204311727Y-140116724D01*
X206966489Y-140211962D02*
X207097441Y-139164343D01*
X207026013Y-138973867D01*
X206847441Y-138878629D01*
X206466489Y-138878629D01*
X206264108Y-138973867D01*
X206978394Y-140116724D02*
X206776013Y-140211962D01*
X206299823Y-140211962D01*
X206121251Y-140116724D01*
X206049822Y-139926248D01*
X206073632Y-139735771D01*
X206192679Y-139545295D01*
X206395061Y-139450057D01*
X206871251Y-139450057D01*
X207073632Y-139354819D01*
X207895060Y-138878629D02*
X208204585Y-140211962D01*
X208847441Y-138878629D02*
X208204585Y-140211962D01*
X207954585Y-140688152D01*
X207847441Y-140783390D01*
X207645060Y-140878629D01*
X210942680Y-138878629D02*
X211252205Y-140211962D01*
X211895061Y-138878629D01*
X213537920Y-140211962D02*
X212395062Y-140211962D01*
X212966491Y-140211962D02*
X213216491Y-138211962D01*
X212990301Y-138497676D01*
X212776015Y-138688152D01*
X212573633Y-138783390D01*
D10*
D11*
X178859343Y-135600057D02*
X178359343Y-135600057D01*
X178359343Y-136385771D02*
X178359343Y-134885771D01*
X179073629Y-134885771D01*
X179645057Y-136385771D02*
X179645057Y-135385771D01*
X179645057Y-134885771D02*
X179573628Y-134957200D01*
X179645057Y-135028629D01*
X179716485Y-134957200D01*
X179645057Y-134885771D01*
X179645057Y-135028629D01*
X180573629Y-136385771D02*
X180430771Y-136314343D01*
X180359343Y-136171486D01*
X180359343Y-134885771D01*
X181716485Y-136314343D02*
X181573628Y-136385771D01*
X181287914Y-136385771D01*
X181145057Y-136314343D01*
X181073628Y-136171486D01*
X181073628Y-135600057D01*
X181145057Y-135457200D01*
X181287914Y-135385771D01*
X181573628Y-135385771D01*
X181716485Y-135457200D01*
X181787914Y-135600057D01*
X181787914Y-135742914D01*
X181073628Y-135885771D01*
X182430771Y-136242914D02*
X182502199Y-136314343D01*
X182430771Y-136385771D01*
X182359342Y-136314343D01*
X182430771Y-136242914D01*
X182430771Y-136385771D01*
X182430771Y-135457200D02*
X182502199Y-135528629D01*
X182430771Y-135600057D01*
X182359342Y-135528629D01*
X182430771Y-135457200D01*
X182430771Y-135600057D01*
X184287914Y-136385771D02*
X184287914Y-135385771D01*
X184287914Y-134885771D02*
X184216485Y-134957200D01*
X184287914Y-135028629D01*
X184359342Y-134957200D01*
X184287914Y-134885771D01*
X184287914Y-135028629D01*
X185002200Y-136385771D02*
X185002200Y-135385771D01*
X185002200Y-135528629D02*
X185073628Y-135457200D01*
X185216486Y-135385771D01*
X185430771Y-135385771D01*
X185573628Y-135457200D01*
X185645057Y-135600057D01*
X185645057Y-136385771D01*
X185645057Y-135600057D02*
X185716486Y-135457200D01*
X185859343Y-135385771D01*
X186073628Y-135385771D01*
X186216486Y-135457200D01*
X186287914Y-135600057D01*
X186287914Y-136385771D01*
X187645057Y-136385771D02*
X187645057Y-135600057D01*
X187573628Y-135457200D01*
X187430771Y-135385771D01*
X187145057Y-135385771D01*
X187002200Y-135457200D01*
X187645057Y-136314343D02*
X187502200Y-136385771D01*
X187145057Y-136385771D01*
X187002200Y-136314343D01*
X186930771Y-136171486D01*
X186930771Y-136028629D01*
X187002200Y-135885771D01*
X187145057Y-135814343D01*
X187502200Y-135814343D01*
X187645057Y-135742914D01*
X189002200Y-136314343D02*
X188859343Y-136385771D01*
X188573629Y-136385771D01*
X188430771Y-136314343D01*
X188359343Y-136242914D01*
X188287914Y-136100057D01*
X188287914Y-135671486D01*
X188359343Y-135528629D01*
X188430771Y-135457200D01*
X188573629Y-135385771D01*
X188859343Y-135385771D01*
X189002200Y-135457200D01*
X189645057Y-135814343D02*
X190787914Y-135814343D01*
X191502200Y-135385771D02*
X191502200Y-136885771D01*
X191502200Y-135457200D02*
X191645057Y-135385771D01*
X191930771Y-135385771D01*
X192073628Y-135457200D01*
X192145057Y-135528629D01*
X192216486Y-135671486D01*
X192216486Y-136100057D01*
X192145057Y-136242914D01*
X192073628Y-136314343D01*
X191930771Y-136385771D01*
X191645057Y-136385771D01*
X191502200Y-136314343D01*
X193502200Y-136314343D02*
X193359343Y-136385771D01*
X193073629Y-136385771D01*
X192930771Y-136314343D01*
X192859343Y-136242914D01*
X192787914Y-136100057D01*
X192787914Y-135671486D01*
X192859343Y-135528629D01*
X192930771Y-135457200D01*
X193073629Y-135385771D01*
X193359343Y-135385771D01*
X193502200Y-135457200D01*
X194145057Y-136385771D02*
X194145057Y-134885771D01*
X194145057Y-135457200D02*
X194287914Y-135385771D01*
X194573628Y-135385771D01*
X194716485Y-135457200D01*
X194787914Y-135528629D01*
X194859343Y-135671486D01*
X194859343Y-136100057D01*
X194787914Y-136242914D01*
X194716485Y-136314343D01*
X194573628Y-136385771D01*
X194287914Y-136385771D01*
X194145057Y-136314343D01*
X195502200Y-136242914D02*
X195573628Y-136314343D01*
X195502200Y-136385771D01*
X195430771Y-136314343D01*
X195502200Y-136242914D01*
X195502200Y-136385771D01*
X196216486Y-136385771D02*
X196216486Y-134885771D01*
X196359343Y-135814343D02*
X196787914Y-136385771D01*
X196787914Y-135385771D02*
X196216486Y-135957200D01*
X197430772Y-136385771D02*
X197430772Y-135385771D01*
X197430772Y-134885771D02*
X197359343Y-134957200D01*
X197430772Y-135028629D01*
X197502200Y-134957200D01*
X197430772Y-134885771D01*
X197430772Y-135028629D01*
X198787915Y-136314343D02*
X198645058Y-136385771D01*
X198359344Y-136385771D01*
X198216486Y-136314343D01*
X198145058Y-136242914D01*
X198073629Y-136100057D01*
X198073629Y-135671486D01*
X198145058Y-135528629D01*
X198216486Y-135457200D01*
X198359344Y-135385771D01*
X198645058Y-135385771D01*
X198787915Y-135457200D01*
X200073629Y-136385771D02*
X200073629Y-135600057D01*
X200002200Y-135457200D01*
X199859343Y-135385771D01*
X199573629Y-135385771D01*
X199430772Y-135457200D01*
X200073629Y-136314343D02*
X199930772Y-136385771D01*
X199573629Y-136385771D01*
X199430772Y-136314343D01*
X199359343Y-136171486D01*
X199359343Y-136028629D01*
X199430772Y-135885771D01*
X199573629Y-135814343D01*
X199930772Y-135814343D01*
X200073629Y-135742914D01*
X201430772Y-136385771D02*
X201430772Y-134885771D01*
X201430772Y-136314343D02*
X201287915Y-136385771D01*
X201002201Y-136385771D01*
X200859343Y-136314343D01*
X200787915Y-136242914D01*
X200716486Y-136100057D01*
X200716486Y-135671486D01*
X200787915Y-135528629D01*
X200859343Y-135457200D01*
X201002201Y-135385771D01*
X201287915Y-135385771D01*
X201430772Y-135457200D01*
X201787915Y-136528629D02*
X202930772Y-136528629D01*
X203287915Y-135385771D02*
X203287915Y-136885771D01*
X203287915Y-135457200D02*
X203430772Y-135385771D01*
X203716486Y-135385771D01*
X203859343Y-135457200D01*
X203930772Y-135528629D01*
X204002201Y-135671486D01*
X204002201Y-136100057D01*
X203930772Y-136242914D01*
X203859343Y-136314343D01*
X203716486Y-136385771D01*
X203430772Y-136385771D01*
X203287915Y-136314343D01*
X205287915Y-136314343D02*
X205145058Y-136385771D01*
X204859344Y-136385771D01*
X204716486Y-136314343D01*
X204645058Y-136242914D01*
X204573629Y-136100057D01*
X204573629Y-135671486D01*
X204645058Y-135528629D01*
X204716486Y-135457200D01*
X204859344Y-135385771D01*
X205145058Y-135385771D01*
X205287915Y-135457200D01*
X205930772Y-136385771D02*
X205930772Y-134885771D01*
X205930772Y-135457200D02*
X206073629Y-135385771D01*
X206359343Y-135385771D01*
X206502200Y-135457200D01*
X206573629Y-135528629D01*
X206645058Y-135671486D01*
X206645058Y-136100057D01*
X206573629Y-136242914D01*
X206502200Y-136314343D01*
X206359343Y-136385771D01*
X206073629Y-136385771D01*
X205930772Y-136314343D01*
D10*
D11*
X177002200Y-131507200D02*
X285002200Y-131507200D01*
D10*
D11*
X178287914Y-133614343D02*
X178502200Y-133685771D01*
X178859343Y-133685771D01*
X179002200Y-133614343D01*
X179073629Y-133542914D01*
X179145057Y-133400057D01*
X179145057Y-133257200D01*
X179073629Y-133114343D01*
X179002200Y-133042914D01*
X178859343Y-132971486D01*
X178573629Y-132900057D01*
X178430771Y-132828629D01*
X178359343Y-132757200D01*
X178287914Y-132614343D01*
X178287914Y-132471486D01*
X178359343Y-132328629D01*
X178430771Y-132257200D01*
X178573629Y-132185771D01*
X178930771Y-132185771D01*
X179145057Y-132257200D01*
X179787914Y-133685771D02*
X179787914Y-132185771D01*
X180430771Y-133685771D02*
X180430771Y-132900057D01*
X180359342Y-132757200D01*
X180216485Y-132685771D01*
X180002200Y-132685771D01*
X179859342Y-132757200D01*
X179787914Y-132828629D01*
X181716485Y-133614343D02*
X181573628Y-133685771D01*
X181287914Y-133685771D01*
X181145057Y-133614343D01*
X181073628Y-133471486D01*
X181073628Y-132900057D01*
X181145057Y-132757200D01*
X181287914Y-132685771D01*
X181573628Y-132685771D01*
X181716485Y-132757200D01*
X181787914Y-132900057D01*
X181787914Y-133042914D01*
X181073628Y-133185771D01*
X183002199Y-133614343D02*
X182859342Y-133685771D01*
X182573628Y-133685771D01*
X182430771Y-133614343D01*
X182359342Y-133471486D01*
X182359342Y-132900057D01*
X182430771Y-132757200D01*
X182573628Y-132685771D01*
X182859342Y-132685771D01*
X183002199Y-132757200D01*
X183073628Y-132900057D01*
X183073628Y-133042914D01*
X182359342Y-133185771D01*
X183502199Y-132685771D02*
X184073628Y-132685771D01*
X183716485Y-132185771D02*
X183716485Y-133471486D01*
X183787913Y-133614343D01*
X183930771Y-133685771D01*
X184073628Y-133685771D01*
X184573628Y-133542914D02*
X184645056Y-133614343D01*
X184573628Y-133685771D01*
X184502199Y-133614343D01*
X184573628Y-133542914D01*
X184573628Y-133685771D01*
X184573628Y-132757200D02*
X184645056Y-132828629D01*
X184573628Y-132900057D01*
X184502199Y-132828629D01*
X184573628Y-132757200D01*
X184573628Y-132900057D01*
D10*
D11*
X197002200Y-141507200D02*
X197002200Y-144507200D01*
D10*
D11*
X261002200Y-141507200D02*
X261002200Y-148007200D01*
X0Y67000000D02*
X0Y0D01*
X90000000Y67000000D02*
X90000000Y0D01*
X0Y0D02*
X90000000Y0D01*
X0Y67000000D02*
X90000000Y67000000D01*
D14*
X9804420Y56160000D03*
X13004420Y60160000D03*
X9804420Y64160000D03*
X3054420Y55660000D03*
X3054420Y64660000D03*
D15*
X54770000Y47460000D03*
X49370000Y47460000D03*
D16*
X17857980Y44145300D03*
X15857980Y44145300D03*
D17*
X66850000Y24900000D03*
X66850000Y26900000D03*
X74610000Y24780000D03*
X74610000Y26780000D03*
D16*
X65280000Y17430000D03*
X63280000Y17430000D03*
X76770000Y17560000D03*
X78770000Y17560000D03*
D17*
X69469000Y25219000D03*
X69469000Y23219000D03*
X72136000Y25219000D03*
X72136000Y23219000D03*
D16*
X44217100Y52194680D03*
X42217100Y52194680D03*
D17*
X40467100Y47944680D03*
X40467100Y49944680D03*
X19900000Y31500000D03*
X19900000Y33500000D03*
X20750000Y37750000D03*
X20750000Y35750000D03*
D18*
X49657000Y55672000D03*
X49657000Y53472000D03*
D19*
X55565000Y54080000D03*
X57465000Y54080000D03*
X56515000Y56080000D03*
D15*
X73500000Y3311600D03*
X73500000Y8188400D03*
D20*
X68420000Y19520000D03*
X68420000Y18250000D03*
X68420000Y16980000D03*
X68420000Y15710000D03*
X68420000Y14440000D03*
X68420000Y13170000D03*
X68420000Y11900000D03*
X73820000Y11900000D03*
X73820000Y13170000D03*
X73820000Y14440000D03*
X73820000Y15710000D03*
X73820000Y16980000D03*
X73820000Y18250000D03*
X73820000Y19520000D03*
D21*
X43877500Y49960680D03*
X42556700Y49960680D03*
X43217100Y49960680D03*
X42556700Y47928680D03*
X43877500Y47928680D03*
D22*
X38849760Y34300040D03*
X39500000Y34300040D03*
X40150240Y34300040D03*
X40150240Y36199960D03*
X39500000Y36199960D03*
X38849760Y36199960D03*
D23*
X20731480Y44382800D03*
X20731480Y47082800D03*
D14*
X80551000Y39649000D03*
X77351000Y35649000D03*
X80551000Y31649000D03*
X87301000Y40149000D03*
X87301000Y31149000D03*
D17*
X71755000Y49635000D03*
X71755000Y51635000D03*
X68072000Y49635000D03*
X68072000Y51635000D03*
X83820000Y49635000D03*
X83820000Y51635000D03*
X87630000Y49635000D03*
X87630000Y51635000D03*
D24*
X62865000Y47523500D03*
X62865000Y53746500D03*
D16*
X65262000Y15075000D03*
X63262000Y15075000D03*
D17*
X31400000Y32600000D03*
X31400000Y34600000D03*
D25*
X17807980Y46766580D03*
X15907980Y46766580D03*
D26*
X31670000Y51270000D03*
X34370000Y51270000D03*
D27*
X34607500Y40061020D03*
X34607500Y38161020D03*
X64820000Y24910000D03*
X64820000Y26810000D03*
X76810000Y24780000D03*
X76810000Y26680000D03*
X31819860Y38167480D03*
X31819860Y40067480D03*
X69469000Y28725000D03*
X69469000Y26825000D03*
X72136000Y28725000D03*
X72136000Y26825000D03*
D28*
X15232380Y20313760D03*
X15232380Y23013760D03*
D27*
X53340000Y54130000D03*
X53340000Y56030000D03*
D26*
X69850000Y7000000D03*
X67150000Y7000000D03*
D27*
X22500000Y31550000D03*
X22500000Y33450000D03*
X20750000Y41200000D03*
X20750000Y39300000D03*
X18500000Y41200000D03*
X18500000Y39300000D03*
D26*
X22189440Y28354120D03*
X19489440Y28354120D03*
X37691040Y28384600D03*
X34991040Y28384600D03*
D29*
X70208020Y33720120D03*
X70208020Y37720120D03*
X63208020Y37720120D03*
X63208020Y33720120D03*
D30*
X77470000Y47485000D03*
D31*
X77470000Y53785000D03*
X75170000Y53785000D03*
X79770000Y53785000D03*
D32*
X29505000Y38121000D03*
X28235000Y38121000D03*
X26965000Y38121000D03*
X25695000Y38121000D03*
X25695000Y32279000D03*
X26965000Y32279000D03*
X28235000Y32279000D03*
X29505000Y32279000D03*
D33*
X34270000Y47460000D03*
X31770000Y47460000D03*
D34*
X22453600Y15456000D03*
X15646400Y15456000D03*
X46850300Y15410280D03*
X40043100Y15410280D03*
D20*
X27216580Y29045000D03*
X27216580Y27724200D03*
X29816580Y28384600D03*
X66723740Y3711040D03*
X66723740Y2390240D03*
X69323740Y3050640D03*
D35*
X19710400Y8120000D03*
X18389600Y8120000D03*
X19050000Y5520000D03*
D36*
X45414620Y11470020D03*
X45414620Y9520020D03*
X45414620Y7570020D03*
X41214620Y7570020D03*
X41214620Y9520020D03*
X41214620Y11470020D03*
M02*
