G04 #@! TF.FileFunction,Legend,Bot*
%FSLAX46Y46*%
G04 Gerber Fmt 4.6, Leading zero omitted, Abs format (unit mm)*
G04 Created by KiCad (PCBNEW 4.0.5) date 2017 January 20, Friday 16:47:27*
%MOMM*%
%LPD*%
G01*
G04 APERTURE LIST*
%ADD10C,0.100000*%
%ADD11C,0.300000*%
%ADD12C,0.150000*%
%ADD13C,0.010000*%
%ADD14C,1.700000*%
%ADD15R,2.127200X2.127200*%
%ADD16O,2.127200X2.127200*%
%ADD17R,2.127200X2.432000*%
%ADD18O,2.127200X2.432000*%
%ADD19C,1.800000*%
%ADD20R,1.900000X3.400000*%
%ADD21R,3.700000X2.700000*%
%ADD22R,2.398980X2.398980*%
%ADD23O,2.398980X2.398980*%
%ADD24O,2.000000X2.400000*%
%ADD25O,2.940000X2.400000*%
%ADD26O,2.432000X2.127200*%
%ADD27O,2.400000X2.940000*%
%ADD28O,2.400000X3.400000*%
%ADD29C,4.464000*%
%ADD30R,1.900000X2.900000*%
G04 APERTURE END LIST*
D10*
D11*
X77531957Y46895729D02*
X77531957Y48395729D01*
X76960529Y48395729D01*
X76817671Y48324300D01*
X76746243Y48252871D01*
X76674814Y48110014D01*
X76674814Y47895729D01*
X76746243Y47752871D01*
X76817671Y47681443D01*
X76960529Y47610014D01*
X77531957Y47610014D01*
X75817671Y46895729D02*
X75960529Y46967157D01*
X76031957Y47110014D01*
X76031957Y48395729D01*
X74674815Y46967157D02*
X74817672Y46895729D01*
X75103386Y46895729D01*
X75246243Y46967157D01*
X75317672Y47110014D01*
X75317672Y47681443D01*
X75246243Y47824300D01*
X75103386Y47895729D01*
X74817672Y47895729D01*
X74674815Y47824300D01*
X74603386Y47681443D01*
X74603386Y47538586D01*
X75317672Y47395729D01*
X73317672Y46895729D02*
X73317672Y47681443D01*
X73389101Y47824300D01*
X73531958Y47895729D01*
X73817672Y47895729D01*
X73960529Y47824300D01*
X73317672Y46967157D02*
X73460529Y46895729D01*
X73817672Y46895729D01*
X73960529Y46967157D01*
X74031958Y47110014D01*
X74031958Y47252871D01*
X73960529Y47395729D01*
X73817672Y47467157D01*
X73460529Y47467157D01*
X73317672Y47538586D01*
X72674815Y46967157D02*
X72531958Y46895729D01*
X72246243Y46895729D01*
X72103386Y46967157D01*
X72031958Y47110014D01*
X72031958Y47181443D01*
X72103386Y47324300D01*
X72246243Y47395729D01*
X72460529Y47395729D01*
X72603386Y47467157D01*
X72674815Y47610014D01*
X72674815Y47681443D01*
X72603386Y47824300D01*
X72460529Y47895729D01*
X72246243Y47895729D01*
X72103386Y47824300D01*
X70817672Y46967157D02*
X70960529Y46895729D01*
X71246243Y46895729D01*
X71389100Y46967157D01*
X71460529Y47110014D01*
X71460529Y47681443D01*
X71389100Y47824300D01*
X71246243Y47895729D01*
X70960529Y47895729D01*
X70817672Y47824300D01*
X70746243Y47681443D01*
X70746243Y47538586D01*
X71460529Y47395729D01*
X68317672Y46895729D02*
X68317672Y48395729D01*
X68317672Y46967157D02*
X68460529Y46895729D01*
X68746243Y46895729D01*
X68889101Y46967157D01*
X68960529Y47038586D01*
X69031958Y47181443D01*
X69031958Y47610014D01*
X68960529Y47752871D01*
X68889101Y47824300D01*
X68746243Y47895729D01*
X68460529Y47895729D01*
X68317672Y47824300D01*
X67603386Y46895729D02*
X67603386Y47895729D01*
X67603386Y47610014D02*
X67531958Y47752871D01*
X67460529Y47824300D01*
X67317672Y47895729D01*
X67174815Y47895729D01*
X66674815Y46895729D02*
X66674815Y47895729D01*
X66674815Y48395729D02*
X66746244Y48324300D01*
X66674815Y48252871D01*
X66603387Y48324300D01*
X66674815Y48395729D01*
X66674815Y48252871D01*
X66103386Y47895729D02*
X65746243Y46895729D01*
X65389101Y47895729D01*
X64246244Y46967157D02*
X64389101Y46895729D01*
X64674815Y46895729D01*
X64817672Y46967157D01*
X64889101Y47110014D01*
X64889101Y47681443D01*
X64817672Y47824300D01*
X64674815Y47895729D01*
X64389101Y47895729D01*
X64246244Y47824300D01*
X64174815Y47681443D01*
X64174815Y47538586D01*
X64889101Y47395729D01*
X61746244Y46967157D02*
X61889101Y46895729D01*
X62174815Y46895729D01*
X62317673Y46967157D01*
X62389101Y47038586D01*
X62460530Y47181443D01*
X62460530Y47610014D01*
X62389101Y47752871D01*
X62317673Y47824300D01*
X62174815Y47895729D01*
X61889101Y47895729D01*
X61746244Y47824300D01*
X60460530Y46895729D02*
X60460530Y47681443D01*
X60531959Y47824300D01*
X60674816Y47895729D01*
X60960530Y47895729D01*
X61103387Y47824300D01*
X60460530Y46967157D02*
X60603387Y46895729D01*
X60960530Y46895729D01*
X61103387Y46967157D01*
X61174816Y47110014D01*
X61174816Y47252871D01*
X61103387Y47395729D01*
X60960530Y47467157D01*
X60603387Y47467157D01*
X60460530Y47538586D01*
X59746244Y46895729D02*
X59746244Y47895729D01*
X59746244Y47610014D02*
X59674816Y47752871D01*
X59603387Y47824300D01*
X59460530Y47895729D01*
X59317673Y47895729D01*
X58246245Y46967157D02*
X58389102Y46895729D01*
X58674816Y46895729D01*
X58817673Y46967157D01*
X58889102Y47110014D01*
X58889102Y47681443D01*
X58817673Y47824300D01*
X58674816Y47895729D01*
X58389102Y47895729D01*
X58246245Y47824300D01*
X58174816Y47681443D01*
X58174816Y47538586D01*
X58889102Y47395729D01*
X57746245Y47895729D02*
X57174816Y47895729D01*
X57531959Y46895729D02*
X57531959Y48181443D01*
X57460531Y48324300D01*
X57317673Y48395729D01*
X57174816Y48395729D01*
X56031959Y47895729D02*
X56031959Y46895729D01*
X56674816Y47895729D02*
X56674816Y47110014D01*
X56603388Y46967157D01*
X56460530Y46895729D01*
X56246245Y46895729D01*
X56103388Y46967157D01*
X56031959Y47038586D01*
X55103387Y46895729D02*
X55246245Y46967157D01*
X55317673Y47110014D01*
X55317673Y48395729D01*
X54317673Y46895729D02*
X54460531Y46967157D01*
X54531959Y47110014D01*
X54531959Y48395729D01*
X53889102Y47895729D02*
X53531959Y46895729D01*
X53174817Y47895729D02*
X53531959Y46895729D01*
X53674817Y46538586D01*
X53746245Y46467157D01*
X53889102Y46395729D01*
D12*
X0Y67000000D02*
X0Y0D01*
X90000000Y67000000D02*
X90000000Y0D01*
X0Y0D02*
X90000000Y0D01*
X0Y67000000D02*
X90000000Y67000000D01*
X17086000Y6390000D02*
X17086000Y6740000D01*
X17086000Y5790000D02*
X17086000Y5240000D01*
X16586000Y6390000D02*
X17586000Y6390000D01*
X17586000Y5790000D02*
X16586000Y5790000D01*
X16586000Y5790000D02*
X17086000Y6290000D01*
X17086000Y6290000D02*
X17586000Y5790000D01*
X19118000Y6290000D02*
X19618000Y5790000D01*
X18618000Y5790000D02*
X19118000Y6290000D01*
X19618000Y5790000D02*
X18618000Y5790000D01*
X18618000Y6390000D02*
X19618000Y6390000D01*
X19118000Y5790000D02*
X19118000Y5240000D01*
X19118000Y6390000D02*
X19118000Y6740000D01*
X21150000Y6390000D02*
X21150000Y6740000D01*
X21150000Y5790000D02*
X21150000Y5240000D01*
X20650000Y6390000D02*
X21650000Y6390000D01*
X21650000Y5790000D02*
X20650000Y5790000D01*
X20650000Y5790000D02*
X21150000Y6290000D01*
X21150000Y6290000D02*
X21650000Y5790000D01*
X22098000Y4339000D02*
X23114000Y4339000D01*
X23114000Y4339000D02*
X22050000Y3490000D01*
X16050000Y3490000D02*
X22050000Y3490000D01*
X22050000Y3490000D02*
X22050000Y8490000D01*
X22050000Y8490000D02*
X16050000Y8490000D01*
X16050000Y8490000D02*
X16050000Y3490000D01*
X69286000Y6300000D02*
X69286000Y6650000D01*
X69286000Y5700000D02*
X69286000Y5150000D01*
X68786000Y6300000D02*
X69786000Y6300000D01*
X69786000Y5700000D02*
X68786000Y5700000D01*
X68786000Y5700000D02*
X69286000Y6200000D01*
X69286000Y6200000D02*
X69786000Y5700000D01*
X71318000Y6200000D02*
X71818000Y5700000D01*
X70818000Y5700000D02*
X71318000Y6200000D01*
X71818000Y5700000D02*
X70818000Y5700000D01*
X70818000Y6300000D02*
X71818000Y6300000D01*
X71318000Y5700000D02*
X71318000Y5150000D01*
X71318000Y6300000D02*
X71318000Y6650000D01*
X73350000Y6300000D02*
X73350000Y6650000D01*
X73350000Y5700000D02*
X73350000Y5150000D01*
X72850000Y6300000D02*
X73850000Y6300000D01*
X73850000Y5700000D02*
X72850000Y5700000D01*
X72850000Y5700000D02*
X73350000Y6200000D01*
X73350000Y6200000D02*
X73850000Y5700000D01*
X74298000Y4249000D02*
X75314000Y4249000D01*
X75314000Y4249000D02*
X74250000Y3400000D01*
X68250000Y3400000D02*
X74250000Y3400000D01*
X74250000Y3400000D02*
X74250000Y8400000D01*
X74250000Y8400000D02*
X68250000Y8400000D01*
X68250000Y8400000D02*
X68250000Y3400000D01*
D13*
G36*
X58166000Y13071222D02*
X83566000Y13071222D01*
X83566000Y36707333D01*
X81802112Y36707333D01*
X81802112Y14129555D01*
X59224334Y14129555D01*
X59224334Y36707333D01*
X81802112Y36707333D01*
X83566000Y36707333D01*
X83566000Y39176777D01*
X58166000Y39176777D01*
X58166000Y13071222D01*
X58166000Y13071222D01*
G37*
X58166000Y13071222D02*
X83566000Y13071222D01*
X83566000Y36707333D01*
X81802112Y36707333D01*
X81802112Y14129555D01*
X59224334Y14129555D01*
X59224334Y36707333D01*
X81802112Y36707333D01*
X83566000Y36707333D01*
X83566000Y39176777D01*
X58166000Y39176777D01*
X58166000Y13071222D01*
G36*
X74746556Y22596222D02*
X76157667Y22596222D01*
X77041309Y22517980D01*
X77532796Y22322523D01*
X77568778Y22243444D01*
X77273310Y21956818D01*
X76863223Y21890666D01*
X76440027Y21797799D01*
X76228964Y21403621D01*
X76160686Y20534763D01*
X76157667Y20126777D01*
X76180789Y19082598D01*
X76322956Y18561905D01*
X76693369Y18382695D01*
X77216000Y18362889D01*
X77959091Y18260704D01*
X78274253Y18014500D01*
X78274334Y18010111D01*
X77967781Y17762414D01*
X77229167Y17657360D01*
X77216000Y17657333D01*
X76537389Y17601609D01*
X76235717Y17299640D01*
X76159337Y16549230D01*
X76157667Y16246222D01*
X76157667Y14835111D01*
X81096556Y14835111D01*
X81096556Y32121222D01*
X78274334Y32121222D01*
X78172150Y31378132D01*
X77925945Y31062970D01*
X77921556Y31062889D01*
X77673859Y31369441D01*
X77568805Y32108055D01*
X77568778Y32121222D01*
X77670963Y32864312D01*
X77917167Y33179474D01*
X77921556Y33179555D01*
X78169253Y32873003D01*
X78274307Y32134389D01*
X78274334Y32121222D01*
X81096556Y32121222D01*
X81096556Y36001777D01*
X74746556Y36001777D01*
X74746556Y22596222D01*
X74746556Y22596222D01*
G37*
X74746556Y22596222D02*
X76157667Y22596222D01*
X77041309Y22517980D01*
X77532796Y22322523D01*
X77568778Y22243444D01*
X77273310Y21956818D01*
X76863223Y21890666D01*
X76440027Y21797799D01*
X76228964Y21403621D01*
X76160686Y20534763D01*
X76157667Y20126777D01*
X76180789Y19082598D01*
X76322956Y18561905D01*
X76693369Y18382695D01*
X77216000Y18362889D01*
X77959091Y18260704D01*
X78274253Y18014500D01*
X78274334Y18010111D01*
X77967781Y17762414D01*
X77229167Y17657360D01*
X77216000Y17657333D01*
X76537389Y17601609D01*
X76235717Y17299640D01*
X76159337Y16549230D01*
X76157667Y16246222D01*
X76157667Y14835111D01*
X81096556Y14835111D01*
X81096556Y32121222D01*
X78274334Y32121222D01*
X78172150Y31378132D01*
X77925945Y31062970D01*
X77921556Y31062889D01*
X77673859Y31369441D01*
X77568805Y32108055D01*
X77568778Y32121222D01*
X77670963Y32864312D01*
X77917167Y33179474D01*
X77921556Y33179555D01*
X78169253Y32873003D01*
X78274307Y32134389D01*
X78274334Y32121222D01*
X81096556Y32121222D01*
X81096556Y36001777D01*
X74746556Y36001777D01*
X74746556Y22596222D01*
G36*
X65365902Y33132942D02*
X64490579Y33008010D01*
X64163224Y32827120D01*
X64163223Y32826777D01*
X63875789Y32517876D01*
X63608858Y32474000D01*
X62811922Y32175502D01*
X62202071Y31479288D01*
X62046556Y30911698D01*
X61863644Y30426282D01*
X61693778Y30357333D01*
X61546590Y30015914D01*
X61435585Y29035689D01*
X61365483Y27482704D01*
X61341001Y25423008D01*
X61341000Y25418444D01*
X61365388Y23357804D01*
X61435404Y21803745D01*
X61546331Y20822313D01*
X61693452Y20479557D01*
X61693778Y20479555D01*
X62002679Y20192122D01*
X62046556Y19925190D01*
X62345054Y19128254D01*
X63041268Y18518404D01*
X63608858Y18362889D01*
X64094274Y18179976D01*
X64163223Y18010111D01*
X64504642Y17862922D01*
X65484867Y17751918D01*
X67037851Y17681816D01*
X69097548Y17657333D01*
X69102112Y17657333D01*
X71162751Y17681720D01*
X72716811Y17751736D01*
X73698242Y17862664D01*
X74040999Y18009785D01*
X74041000Y18010111D01*
X73753567Y18319012D01*
X73486635Y18362889D01*
X72931206Y18436088D01*
X72523258Y18716546D01*
X72240854Y19295553D01*
X72062056Y20264400D01*
X72024012Y20832333D01*
X67691001Y20832333D01*
X67603587Y20082716D01*
X67191251Y19806422D01*
X66632667Y19774000D01*
X65883050Y19861414D01*
X65606756Y20273749D01*
X65574334Y20832333D01*
X65661748Y21581950D01*
X66074083Y21858244D01*
X66632667Y21890666D01*
X67382284Y21803253D01*
X67658578Y21390917D01*
X67691001Y20832333D01*
X72024012Y20832333D01*
X71964925Y21714378D01*
X71927523Y23736778D01*
X71924334Y24864079D01*
X71902313Y27073925D01*
X71838708Y28762155D01*
X71737204Y29871372D01*
X71601488Y30344178D01*
X71571556Y30357333D01*
X67691001Y30357333D01*
X67691001Y22596222D01*
X65574334Y22596222D01*
X65574334Y30357333D01*
X67691001Y30357333D01*
X71571556Y30357333D01*
X71262655Y30644767D01*
X71218778Y30911698D01*
X70920280Y31708634D01*
X70224066Y32318484D01*
X69656477Y32474000D01*
X69171061Y32656912D01*
X69102112Y32826777D01*
X68775820Y33007744D01*
X67901296Y33132790D01*
X66635063Y33179555D01*
X66632667Y33179555D01*
X65365902Y33132942D01*
X65365902Y33132942D01*
G37*
X65365902Y33132942D02*
X64490579Y33008010D01*
X64163224Y32827120D01*
X64163223Y32826777D01*
X63875789Y32517876D01*
X63608858Y32474000D01*
X62811922Y32175502D01*
X62202071Y31479288D01*
X62046556Y30911698D01*
X61863644Y30426282D01*
X61693778Y30357333D01*
X61546590Y30015914D01*
X61435585Y29035689D01*
X61365483Y27482704D01*
X61341001Y25423008D01*
X61341000Y25418444D01*
X61365388Y23357804D01*
X61435404Y21803745D01*
X61546331Y20822313D01*
X61693452Y20479557D01*
X61693778Y20479555D01*
X62002679Y20192122D01*
X62046556Y19925190D01*
X62345054Y19128254D01*
X63041268Y18518404D01*
X63608858Y18362889D01*
X64094274Y18179976D01*
X64163223Y18010111D01*
X64504642Y17862922D01*
X65484867Y17751918D01*
X67037851Y17681816D01*
X69097548Y17657333D01*
X69102112Y17657333D01*
X71162751Y17681720D01*
X72716811Y17751736D01*
X73698242Y17862664D01*
X74040999Y18009785D01*
X74041000Y18010111D01*
X73753567Y18319012D01*
X73486635Y18362889D01*
X72931206Y18436088D01*
X72523258Y18716546D01*
X72240854Y19295553D01*
X72062056Y20264400D01*
X72024012Y20832333D01*
X67691001Y20832333D01*
X67603587Y20082716D01*
X67191251Y19806422D01*
X66632667Y19774000D01*
X65883050Y19861414D01*
X65606756Y20273749D01*
X65574334Y20832333D01*
X65661748Y21581950D01*
X66074083Y21858244D01*
X66632667Y21890666D01*
X67382284Y21803253D01*
X67658578Y21390917D01*
X67691001Y20832333D01*
X72024012Y20832333D01*
X71964925Y21714378D01*
X71927523Y23736778D01*
X71924334Y24864079D01*
X71902313Y27073925D01*
X71838708Y28762155D01*
X71737204Y29871372D01*
X71601488Y30344178D01*
X71571556Y30357333D01*
X67691001Y30357333D01*
X67691001Y22596222D01*
X65574334Y22596222D01*
X65574334Y30357333D01*
X67691001Y30357333D01*
X71571556Y30357333D01*
X71262655Y30644767D01*
X71218778Y30911698D01*
X70920280Y31708634D01*
X70224066Y32318484D01*
X69656477Y32474000D01*
X69171061Y32656912D01*
X69102112Y32826777D01*
X68775820Y33007744D01*
X67901296Y33132790D01*
X66635063Y33179555D01*
X66632667Y33179555D01*
X65365902Y33132942D01*
D12*
X21794695Y10236039D02*
X21794695Y11236039D01*
X21556600Y11236039D01*
X21413742Y11188420D01*
X21318504Y11093182D01*
X21270885Y10997944D01*
X21223266Y10807468D01*
X21223266Y10664610D01*
X21270885Y10474134D01*
X21318504Y10378896D01*
X21413742Y10283658D01*
X21556600Y10236039D01*
X21794695Y10236039D01*
X20889933Y11236039D02*
X20270885Y11236039D01*
X20604219Y10855087D01*
X20461361Y10855087D01*
X20366123Y10807468D01*
X20318504Y10759849D01*
X20270885Y10664610D01*
X20270885Y10426515D01*
X20318504Y10331277D01*
X20366123Y10283658D01*
X20461361Y10236039D01*
X20747076Y10236039D01*
X20842314Y10283658D01*
X20889933Y10331277D01*
X74398095Y9669619D02*
X74398095Y10669619D01*
X74160000Y10669619D01*
X74017142Y10622000D01*
X73921904Y10526762D01*
X73874285Y10431524D01*
X73826666Y10241048D01*
X73826666Y10098190D01*
X73874285Y9907714D01*
X73921904Y9812476D01*
X74017142Y9717238D01*
X74160000Y9669619D01*
X74398095Y9669619D01*
X72969523Y10336286D02*
X72969523Y9669619D01*
X73207619Y10717238D02*
X73445714Y10002952D01*
X72826666Y10002952D01*
%LPC*%
D14*
X2054420Y60160000D03*
X8354420Y60160000D03*
D15*
X21590000Y22060000D03*
D16*
X21590000Y19520000D03*
X24130000Y22060000D03*
X24130000Y19520000D03*
X26670000Y22060000D03*
X26670000Y19520000D03*
X29210000Y22060000D03*
X29210000Y19520000D03*
X31750000Y22060000D03*
X31750000Y19520000D03*
X34290000Y22060000D03*
X34290000Y19520000D03*
X36830000Y22060000D03*
X36830000Y19520000D03*
X39370000Y22060000D03*
X39370000Y19520000D03*
X41910000Y22060000D03*
X41910000Y19520000D03*
X44450000Y22060000D03*
X44450000Y19520000D03*
X46990000Y22060000D03*
X46990000Y19520000D03*
X49530000Y22060000D03*
X49530000Y19520000D03*
D17*
X38989000Y3137000D03*
D18*
X41529000Y3137000D03*
X44069000Y3137000D03*
X46609000Y3137000D03*
X49149000Y3137000D03*
D14*
X88301000Y35649000D03*
X82001000Y35649000D03*
D19*
X33905000Y2820000D03*
X33905000Y13120000D03*
X33905000Y6820000D03*
X27305000Y6820000D03*
X27305000Y13120000D03*
D20*
X25755000Y10720000D03*
D21*
X30605000Y6820000D03*
D20*
X35455000Y10720000D03*
D19*
X27305000Y2820000D03*
X10920000Y2820000D03*
X10920000Y13120000D03*
X10920000Y6820000D03*
X4320000Y6820000D03*
X4320000Y13120000D03*
D20*
X2770000Y10720000D03*
D21*
X7620000Y6820000D03*
D20*
X12470000Y10720000D03*
D19*
X4320000Y2820000D03*
D16*
X44124880Y28410000D03*
X44124880Y30950000D03*
X49204880Y28410000D03*
X46664880Y28410000D03*
X46664880Y30950000D03*
X49204880Y30950000D03*
D15*
X49204880Y41110000D03*
D16*
X46664880Y41110000D03*
X44124880Y41110000D03*
X49204880Y38570000D03*
X46664880Y38570000D03*
X44124880Y38570000D03*
X49204880Y36030000D03*
X46664880Y36030000D03*
X44124880Y36030000D03*
X49204880Y33490000D03*
X46664880Y33490000D03*
X44124880Y33490000D03*
D22*
X5080000Y19520000D03*
D23*
X5080000Y22060000D03*
X55963820Y61430000D03*
D22*
X50883820Y61430000D03*
D23*
X53423820Y61430000D03*
D24*
X88265000Y58255000D03*
X88265000Y43015000D03*
X85725000Y43015000D03*
X83185000Y43015000D03*
X80645000Y43015000D03*
X78105000Y43015000D03*
X75565000Y43015000D03*
X73025000Y43015000D03*
X70485000Y43015000D03*
X67945000Y43015000D03*
X65405000Y43015000D03*
X62865000Y43015000D03*
X60325000Y43015000D03*
X60325000Y58255000D03*
X62865000Y58255000D03*
X65405000Y58255000D03*
X67945000Y58255000D03*
X70485000Y58255000D03*
X73025000Y58255000D03*
X75565000Y58255000D03*
X78105000Y58255000D03*
X80645000Y58255000D03*
X83185000Y58255000D03*
X85725000Y58255000D03*
D18*
X80645000Y27775000D03*
X80645000Y20155000D03*
X83185000Y20155000D03*
X85725000Y20155000D03*
X85725000Y27775000D03*
X83185000Y27775000D03*
X55880000Y27775000D03*
X55880000Y20155000D03*
X58420000Y20155000D03*
X60960000Y20155000D03*
X60960000Y27775000D03*
X58420000Y27775000D03*
D25*
X5080000Y51190000D03*
D26*
X12080000Y48730000D03*
X12080000Y46190000D03*
X12080000Y43650000D03*
D25*
X5080000Y41190000D03*
X5080000Y37220000D03*
D26*
X12080000Y34760000D03*
X12080000Y32220000D03*
X12080000Y29680000D03*
D25*
X5080000Y27220000D03*
D27*
X78058000Y7201000D03*
D18*
X80518000Y14201000D03*
X83058000Y14201000D03*
X85598000Y14201000D03*
D27*
X88058000Y7201000D03*
X53166000Y7328000D03*
D18*
X55626000Y14328000D03*
X58166000Y14328000D03*
X60706000Y14328000D03*
D27*
X63166000Y7328000D03*
D18*
X19685000Y56985000D03*
X22225000Y51905000D03*
X24765000Y56985000D03*
D28*
X40401240Y63970000D03*
X42941240Y58890000D03*
X45481240Y63970000D03*
X29989780Y63970000D03*
X32529780Y58890000D03*
X35069780Y63970000D03*
D29*
X19050000Y63350240D03*
X86360000Y63350240D03*
X57848500Y35575340D03*
D30*
X21000000Y8090000D03*
X19050000Y8090000D03*
X17100000Y8090000D03*
X17100000Y3890000D03*
X19050000Y3890000D03*
X21000000Y3890000D03*
X73200000Y8000000D03*
X71250000Y8000000D03*
X69300000Y8000000D03*
X69300000Y3800000D03*
X71250000Y3800000D03*
X73200000Y3800000D03*
M02*
