G04 #@! TF.FileFunction,Soldermask,Top*
%FSLAX46Y46*%
G04 Gerber Fmt 4.6, Leading zero omitted, Abs format (unit mm)*
G04 Created by KiCad (PCBNEW 4.0.5) date 2017 January 20, Friday 16:47:27*
%MOMM*%
%LPD*%
G01*
G04 APERTURE LIST*
%ADD10C,0.100000*%
%ADD11C,0.150000*%
%ADD12R,2.400000X2.400000*%
%ADD13C,1.700000*%
%ADD14R,3.900000X2.000000*%
%ADD15R,1.400000X1.650000*%
%ADD16R,1.650000X1.400000*%
%ADD17R,1.600000X1.600000*%
%ADD18R,2.127200X2.127200*%
%ADD19O,2.127200X2.127200*%
%ADD20R,2.127200X2.432000*%
%ADD21O,2.127200X2.432000*%
%ADD22R,1.200000X1.300000*%
%ADD23R,2.000000X3.900000*%
%ADD24R,1.900000X1.000000*%
%ADD25R,0.806400X1.060400*%
%ADD26R,0.798780X1.149300*%
%ADD27R,0.803000X1.110000*%
%ADD28C,1.800000*%
%ADD29R,1.900000X3.400000*%
%ADD30R,3.700000X2.700000*%
%ADD31R,2.398980X2.398980*%
%ADD32O,2.398980X2.398980*%
%ADD33R,3.900000X2.200000*%
%ADD34R,1.100000X1.700000*%
%ADD35R,1.900000X1.700000*%
%ADD36R,1.700000X1.100000*%
%ADD37R,1.700000X1.900000*%
%ADD38R,2.400000X1.400000*%
%ADD39O,2.000000X2.400000*%
%ADD40R,4.200000X2.400000*%
%ADD41R,1.900000X2.400000*%
%ADD42O,2.940000X2.400000*%
%ADD43O,2.432000X2.127200*%
%ADD44O,2.400000X2.940000*%
%ADD45R,1.000000X2.400000*%
%ADD46O,2.400000X3.400000*%
%ADD47R,1.900000X1.650000*%
%ADD48R,3.900000X3.900000*%
%ADD49R,1.000000X1.900000*%
%ADD50C,4.464000*%
%ADD51R,2.900000X1.900000*%
G04 APERTURE END LIST*
D10*
D11*
X0Y67000000D02*
X0Y0D01*
X90000000Y67000000D02*
X90000000Y0D01*
X0Y0D02*
X90000000Y0D01*
X0Y67000000D02*
X90000000Y67000000D01*
D12*
X9804420Y56160000D03*
X13004420Y60160000D03*
X9804420Y64160000D03*
X3054420Y55660000D03*
X3054420Y64660000D03*
D13*
X2054420Y60160000D03*
X8354420Y60160000D03*
D14*
X54770000Y47460000D03*
X49370000Y47460000D03*
D15*
X17857980Y44145300D03*
X15857980Y44145300D03*
D16*
X66850000Y24900000D03*
X66850000Y26900000D03*
X74610000Y24780000D03*
X74610000Y26780000D03*
D15*
X65280000Y17430000D03*
X63280000Y17430000D03*
X76770000Y17560000D03*
X78770000Y17560000D03*
D16*
X69469000Y25219000D03*
X69469000Y23219000D03*
X72136000Y25219000D03*
X72136000Y23219000D03*
D15*
X44217100Y52194680D03*
X42217100Y52194680D03*
D16*
X40467100Y47944680D03*
X40467100Y49944680D03*
X19900000Y31500000D03*
X19900000Y33500000D03*
X20750000Y37750000D03*
X20750000Y35750000D03*
D17*
X49657000Y55672000D03*
X49657000Y53472000D03*
D18*
X21590000Y22060000D03*
D19*
X21590000Y19520000D03*
X24130000Y22060000D03*
X24130000Y19520000D03*
X26670000Y22060000D03*
X26670000Y19520000D03*
X29210000Y22060000D03*
X29210000Y19520000D03*
X31750000Y22060000D03*
X31750000Y19520000D03*
X34290000Y22060000D03*
X34290000Y19520000D03*
X36830000Y22060000D03*
X36830000Y19520000D03*
X39370000Y22060000D03*
X39370000Y19520000D03*
X41910000Y22060000D03*
X41910000Y19520000D03*
X44450000Y22060000D03*
X44450000Y19520000D03*
X46990000Y22060000D03*
X46990000Y19520000D03*
X49530000Y22060000D03*
X49530000Y19520000D03*
D20*
X38989000Y3137000D03*
D21*
X41529000Y3137000D03*
X44069000Y3137000D03*
X46609000Y3137000D03*
X49149000Y3137000D03*
D22*
X55565000Y54080000D03*
X57465000Y54080000D03*
X56515000Y56080000D03*
D23*
X75511660Y8567520D03*
X70634860Y8567520D03*
D24*
X68420000Y19520000D03*
X68420000Y18250000D03*
X68420000Y16980000D03*
X68420000Y15710000D03*
X68420000Y14440000D03*
X68420000Y13170000D03*
X68420000Y11900000D03*
X73820000Y11900000D03*
X73820000Y13170000D03*
X73820000Y14440000D03*
X73820000Y15710000D03*
X73820000Y16980000D03*
X73820000Y18250000D03*
X73820000Y19520000D03*
D25*
X43877500Y49960680D03*
X42556700Y49960680D03*
X43217100Y49960680D03*
X42556700Y47928680D03*
X43877500Y47928680D03*
D26*
X38849760Y34300040D03*
X39500000Y34300040D03*
X40150240Y34300040D03*
X40150240Y36199960D03*
X39500000Y36199960D03*
X38849760Y36199960D03*
D27*
X20731480Y44382800D03*
X20731480Y47082800D03*
D12*
X80551000Y39649000D03*
X77351000Y35649000D03*
X80551000Y31649000D03*
X87301000Y40149000D03*
X87301000Y31149000D03*
D13*
X88301000Y35649000D03*
X82001000Y35649000D03*
D28*
X33905000Y2820000D03*
X33905000Y13120000D03*
X33905000Y6820000D03*
X27305000Y6820000D03*
X27305000Y13120000D03*
D29*
X25755000Y10720000D03*
D30*
X30605000Y6820000D03*
D29*
X35455000Y10720000D03*
D28*
X27305000Y2820000D03*
X10920000Y2820000D03*
X10920000Y13120000D03*
X10920000Y6820000D03*
X4320000Y6820000D03*
X4320000Y13120000D03*
D29*
X2770000Y10720000D03*
D30*
X7620000Y6820000D03*
D29*
X12470000Y10720000D03*
D28*
X4320000Y2820000D03*
D19*
X44124880Y28410000D03*
X44124880Y30950000D03*
X49204880Y28410000D03*
X46664880Y28410000D03*
X46664880Y30950000D03*
X49204880Y30950000D03*
D18*
X49204880Y41110000D03*
D19*
X46664880Y41110000D03*
X44124880Y41110000D03*
X49204880Y38570000D03*
X46664880Y38570000D03*
X44124880Y38570000D03*
X49204880Y36030000D03*
X46664880Y36030000D03*
X44124880Y36030000D03*
X49204880Y33490000D03*
X46664880Y33490000D03*
X44124880Y33490000D03*
D31*
X5080000Y19520000D03*
D32*
X5080000Y22060000D03*
X55963820Y61430000D03*
D31*
X50883820Y61430000D03*
D32*
X53423820Y61430000D03*
D16*
X71755000Y49635000D03*
X71755000Y51635000D03*
X68072000Y49635000D03*
X68072000Y51635000D03*
X83820000Y49635000D03*
X83820000Y51635000D03*
X87630000Y49635000D03*
X87630000Y51635000D03*
D33*
X62865000Y47523500D03*
X62865000Y53746500D03*
D15*
X65262000Y15075000D03*
X63262000Y15075000D03*
D16*
X31400000Y32600000D03*
X31400000Y34600000D03*
D34*
X17807980Y46766580D03*
X15907980Y46766580D03*
D35*
X31670000Y51270000D03*
X34370000Y51270000D03*
D36*
X34607500Y40061020D03*
X34607500Y38161020D03*
X64820000Y24910000D03*
X64820000Y26810000D03*
X76810000Y24780000D03*
X76810000Y26680000D03*
X31819860Y38167480D03*
X31819860Y40067480D03*
X69469000Y28725000D03*
X69469000Y26825000D03*
X72136000Y28725000D03*
X72136000Y26825000D03*
D37*
X15232380Y20313760D03*
X15232380Y23013760D03*
D36*
X53340000Y54130000D03*
X53340000Y56030000D03*
D37*
X67899280Y2119740D03*
X67899280Y4819740D03*
D36*
X22500000Y31550000D03*
X22500000Y33450000D03*
X20750000Y41200000D03*
X20750000Y39300000D03*
X18500000Y41200000D03*
X18500000Y39300000D03*
D35*
X22189440Y28354120D03*
X19489440Y28354120D03*
X37691040Y28384600D03*
X34991040Y28384600D03*
D38*
X70208020Y33720120D03*
X70208020Y37720120D03*
X63208020Y37720120D03*
X63208020Y33720120D03*
D39*
X88265000Y58255000D03*
X88265000Y43015000D03*
X85725000Y43015000D03*
X83185000Y43015000D03*
X80645000Y43015000D03*
X78105000Y43015000D03*
X75565000Y43015000D03*
X73025000Y43015000D03*
X70485000Y43015000D03*
X67945000Y43015000D03*
X65405000Y43015000D03*
X62865000Y43015000D03*
X60325000Y43015000D03*
X60325000Y58255000D03*
X62865000Y58255000D03*
X65405000Y58255000D03*
X67945000Y58255000D03*
X70485000Y58255000D03*
X73025000Y58255000D03*
X75565000Y58255000D03*
X78105000Y58255000D03*
X80645000Y58255000D03*
X83185000Y58255000D03*
X85725000Y58255000D03*
D40*
X77470000Y47485000D03*
D41*
X77470000Y53785000D03*
X75170000Y53785000D03*
X79770000Y53785000D03*
D21*
X80645000Y27775000D03*
X80645000Y20155000D03*
X83185000Y20155000D03*
X85725000Y20155000D03*
X85725000Y27775000D03*
X83185000Y27775000D03*
X55880000Y27775000D03*
X55880000Y20155000D03*
X58420000Y20155000D03*
X60960000Y20155000D03*
X60960000Y27775000D03*
X58420000Y27775000D03*
D42*
X5080000Y51190000D03*
D43*
X12080000Y48730000D03*
X12080000Y46190000D03*
X12080000Y43650000D03*
D42*
X5080000Y41190000D03*
X5080000Y37220000D03*
D43*
X12080000Y34760000D03*
X12080000Y32220000D03*
X12080000Y29680000D03*
D42*
X5080000Y27220000D03*
D44*
X78058000Y7201000D03*
D21*
X80518000Y14201000D03*
X83058000Y14201000D03*
X85598000Y14201000D03*
D44*
X88058000Y7201000D03*
X53166000Y7328000D03*
D21*
X55626000Y14328000D03*
X58166000Y14328000D03*
X60706000Y14328000D03*
D44*
X63166000Y7328000D03*
D21*
X19685000Y56985000D03*
X22225000Y51905000D03*
X24765000Y56985000D03*
D45*
X29505000Y38121000D03*
X28235000Y38121000D03*
X26965000Y38121000D03*
X25695000Y38121000D03*
X25695000Y32279000D03*
X26965000Y32279000D03*
X28235000Y32279000D03*
X29505000Y32279000D03*
D46*
X40401240Y63970000D03*
X42941240Y58890000D03*
X45481240Y63970000D03*
X29989780Y63970000D03*
X32529780Y58890000D03*
X35069780Y63970000D03*
D47*
X34270000Y47460000D03*
X31770000Y47460000D03*
D48*
X22453600Y15456000D03*
X15646400Y15456000D03*
X46850300Y15410280D03*
X40043100Y15410280D03*
D24*
X27216580Y29045000D03*
X27216580Y27724200D03*
X29816580Y28384600D03*
D49*
X72461120Y2268800D03*
X73781920Y2268800D03*
X73121520Y4868800D03*
X19710400Y8120000D03*
X18389600Y8120000D03*
X19050000Y5520000D03*
D50*
X19050000Y63350240D03*
X86360000Y63350240D03*
X57848500Y35575340D03*
D51*
X45414620Y11470020D03*
X45414620Y9520020D03*
X45414620Y7570020D03*
X41214620Y7570020D03*
X41214620Y9520020D03*
X41214620Y11470020D03*
M02*
