G04 #@! TF.FileFunction,Soldermask,Bot*
%FSLAX46Y46*%
G04 Gerber Fmt 4.6, Leading zero omitted, Abs format (unit mm)*
G04 Created by KiCad (PCBNEW 4.0.5) date 2017 January 20, Friday 16:47:27*
%MOMM*%
%LPD*%
G01*
G04 APERTURE LIST*
%ADD10C,0.100000*%
%ADD11C,0.150000*%
%ADD12C,1.700000*%
%ADD13R,2.127200X2.127200*%
%ADD14O,2.127200X2.127200*%
%ADD15R,2.127200X2.432000*%
%ADD16O,2.127200X2.432000*%
%ADD17C,1.800000*%
%ADD18R,1.900000X3.400000*%
%ADD19R,3.700000X2.700000*%
%ADD20R,2.398980X2.398980*%
%ADD21O,2.398980X2.398980*%
%ADD22O,2.000000X2.400000*%
%ADD23O,2.940000X2.400000*%
%ADD24O,2.432000X2.127200*%
%ADD25O,2.400000X2.940000*%
%ADD26O,2.400000X3.400000*%
%ADD27C,4.464000*%
%ADD28R,1.900000X2.900000*%
G04 APERTURE END LIST*
D10*
D11*
X0Y67000000D02*
X0Y0D01*
X90000000Y67000000D02*
X90000000Y0D01*
X0Y0D02*
X90000000Y0D01*
X0Y67000000D02*
X90000000Y67000000D01*
D12*
X2054420Y60160000D03*
X8354420Y60160000D03*
D13*
X21590000Y22060000D03*
D14*
X21590000Y19520000D03*
X24130000Y22060000D03*
X24130000Y19520000D03*
X26670000Y22060000D03*
X26670000Y19520000D03*
X29210000Y22060000D03*
X29210000Y19520000D03*
X31750000Y22060000D03*
X31750000Y19520000D03*
X34290000Y22060000D03*
X34290000Y19520000D03*
X36830000Y22060000D03*
X36830000Y19520000D03*
X39370000Y22060000D03*
X39370000Y19520000D03*
X41910000Y22060000D03*
X41910000Y19520000D03*
X44450000Y22060000D03*
X44450000Y19520000D03*
X46990000Y22060000D03*
X46990000Y19520000D03*
X49530000Y22060000D03*
X49530000Y19520000D03*
D15*
X38989000Y3137000D03*
D16*
X41529000Y3137000D03*
X44069000Y3137000D03*
X46609000Y3137000D03*
X49149000Y3137000D03*
D12*
X88301000Y35649000D03*
X82001000Y35649000D03*
D17*
X33905000Y2820000D03*
X33905000Y13120000D03*
X33905000Y6820000D03*
X27305000Y6820000D03*
X27305000Y13120000D03*
D18*
X25755000Y10720000D03*
D19*
X30605000Y6820000D03*
D18*
X35455000Y10720000D03*
D17*
X27305000Y2820000D03*
X10920000Y2820000D03*
X10920000Y13120000D03*
X10920000Y6820000D03*
X4320000Y6820000D03*
X4320000Y13120000D03*
D18*
X2770000Y10720000D03*
D19*
X7620000Y6820000D03*
D18*
X12470000Y10720000D03*
D17*
X4320000Y2820000D03*
D14*
X44124880Y28410000D03*
X44124880Y30950000D03*
X49204880Y28410000D03*
X46664880Y28410000D03*
X46664880Y30950000D03*
X49204880Y30950000D03*
D13*
X49204880Y41110000D03*
D14*
X46664880Y41110000D03*
X44124880Y41110000D03*
X49204880Y38570000D03*
X46664880Y38570000D03*
X44124880Y38570000D03*
X49204880Y36030000D03*
X46664880Y36030000D03*
X44124880Y36030000D03*
X49204880Y33490000D03*
X46664880Y33490000D03*
X44124880Y33490000D03*
D20*
X5080000Y19520000D03*
D21*
X5080000Y22060000D03*
X55963820Y61430000D03*
D20*
X50883820Y61430000D03*
D21*
X53423820Y61430000D03*
D22*
X88265000Y58255000D03*
X88265000Y43015000D03*
X85725000Y43015000D03*
X83185000Y43015000D03*
X80645000Y43015000D03*
X78105000Y43015000D03*
X75565000Y43015000D03*
X73025000Y43015000D03*
X70485000Y43015000D03*
X67945000Y43015000D03*
X65405000Y43015000D03*
X62865000Y43015000D03*
X60325000Y43015000D03*
X60325000Y58255000D03*
X62865000Y58255000D03*
X65405000Y58255000D03*
X67945000Y58255000D03*
X70485000Y58255000D03*
X73025000Y58255000D03*
X75565000Y58255000D03*
X78105000Y58255000D03*
X80645000Y58255000D03*
X83185000Y58255000D03*
X85725000Y58255000D03*
D16*
X80645000Y27775000D03*
X80645000Y20155000D03*
X83185000Y20155000D03*
X85725000Y20155000D03*
X85725000Y27775000D03*
X83185000Y27775000D03*
X55880000Y27775000D03*
X55880000Y20155000D03*
X58420000Y20155000D03*
X60960000Y20155000D03*
X60960000Y27775000D03*
X58420000Y27775000D03*
D23*
X5080000Y51190000D03*
D24*
X12080000Y48730000D03*
X12080000Y46190000D03*
X12080000Y43650000D03*
D23*
X5080000Y41190000D03*
X5080000Y37220000D03*
D24*
X12080000Y34760000D03*
X12080000Y32220000D03*
X12080000Y29680000D03*
D23*
X5080000Y27220000D03*
D25*
X78058000Y7201000D03*
D16*
X80518000Y14201000D03*
X83058000Y14201000D03*
X85598000Y14201000D03*
D25*
X88058000Y7201000D03*
X53166000Y7328000D03*
D16*
X55626000Y14328000D03*
X58166000Y14328000D03*
X60706000Y14328000D03*
D25*
X63166000Y7328000D03*
D16*
X19685000Y56985000D03*
X22225000Y51905000D03*
X24765000Y56985000D03*
D26*
X40401240Y63970000D03*
X42941240Y58890000D03*
X45481240Y63970000D03*
X29989780Y63970000D03*
X32529780Y58890000D03*
X35069780Y63970000D03*
D27*
X19050000Y63350240D03*
X86360000Y63350240D03*
X57848500Y35575340D03*
D28*
X21000000Y8090000D03*
X19050000Y8090000D03*
X17100000Y8090000D03*
X17100000Y3890000D03*
X19050000Y3890000D03*
X21000000Y3890000D03*
X73200000Y8000000D03*
X71250000Y8000000D03*
X69300000Y8000000D03*
X69300000Y3800000D03*
X71250000Y3800000D03*
X73200000Y3800000D03*
M02*
