M48
;DRILL file {KiCad 4.0.4-stable} date 2017 January 14, Saturday 18:25:41
;FORMAT={3:3/ absolute / metric / suppress leading zeros}
FMAT,2
METRIC,TZ
T1C0.400
T2C0.800
T3C1.000
T4C1.016
T5C1.097
T6C1.100
%
G90
G05
M71
T1
X64122Y12865
X77920Y15420
T3
X60452Y58382
X60452Y43142
X62992Y58382
X62992Y43142
X65532Y58382
X65532Y43142
X68072Y58382
X68072Y43142
X70612Y58382
X70612Y43142
X73152Y58382
X73152Y43142
X75692Y58382
X75692Y43142
X78232Y58382
X78232Y43142
X80772Y58382
X80772Y43142
X83312Y58382
X83312Y43142
X85852Y58382
X85852Y43142
X88392Y58382
X88392Y43142
T4
X14366Y44412
X14366Y41872
X14366Y39332
X14366Y30823
X14366Y28283
X14366Y25743
X19431Y56858
X21336Y33617
X21590Y21298
X21590Y18758
X21971Y51778
X23876Y28537
X24130Y21298
X24130Y18758
X24511Y56858
X26416Y33617
X26670Y21298
X26670Y18758
X29210Y21298
X29210Y18758
X31750Y21298
X31750Y18758
X32004Y56985
X34290Y21298
X34290Y18758
X34544Y51905
X36195Y38824
X36195Y36284
X36195Y33744
X36195Y31204
X36195Y28664
X36195Y26124
X36830Y21298
X36830Y18758
X37084Y56985
X38735Y38824
X38735Y36284
X38735Y33744
X38735Y31204
X38735Y28664
X38735Y26124
X38989Y3137
X39370Y21298
X39370Y18758
X41275Y38824
X41275Y36284
X41275Y33744
X41275Y31204
X41275Y28664
X41275Y26124
X41529Y3137
X41910Y21298
X41910Y18758
X44069Y3137
X44450Y21298
X44450Y18758
X46609Y3137
X46990Y21298
X46990Y18758
X49149Y3137
X49530Y21298
X49530Y18758
X55626Y14328
X55880Y27775
X55880Y20155
X58166Y14328
X58420Y27775
X58420Y20155
X60706Y14328
X60960Y27775
X60960Y20155
X80518Y14201
X80645Y27775
X80645Y20155
X83058Y14201
X83185Y27775
X83185Y20155
X85598Y14201
X85725Y27775
X85725Y20155
T5
X43307Y56858
X45847Y56858
X50800Y56731
X53340Y56731
X55880Y56731
T2
X12295Y9462G85X12295Y10962
G05
X21995Y9462G85X21995Y10962
G05
X25755Y9258G85X25755Y10758
G05
X35455Y9258G85X35455Y10758
G05
T6
X16620Y6312G85X17670Y6312
G05
X30080Y6108G85X31130Y6108
G05
T0
M30
