M48
;DRILL file {KiCad 4.0.4-stable} date 2017 January 14, Saturday 18:25:41
;FORMAT={3:3/ absolute / metric / suppress leading zeros}
FMAT,2
METRIC,TZ
T1C1.016
T2C1.200
T3C1.400
%
G90
G05
M71
T2
X1615Y55461
X7915Y55461
X82001Y35649
X88301Y35649
T3
X13845Y12612
X13845Y6312
X13845Y2312
X20445Y12612
X20445Y6312
X20445Y2312
X27305Y12408
X27305Y6108
X27305Y2108
X33905Y12408
X33905Y6108
X33905Y2108
T1
X6774Y46872G85X7958Y46872
G05
X6774Y36872G85X7958Y36872
G05
X6774Y33283G85X7958Y33283
G05
X6774Y23283G85X7958Y23283
G05
X53166Y6736G85X53166Y7920
G05
X63166Y6736G85X63166Y7920
G05
X78058Y6609G85X78058Y7793
G05
X88058Y6609G85X88058Y7793
G05
T0
M30
