M48
;DRILL file {KiCad 4.0.5} date 2017 January 20, Friday 16:47:31
;FORMAT={3:3/ absolute / metric / suppress leading zeros}
FMAT,2
METRIC,TZ
T1C0.400
T2C0.800
T3C1.000
T4C1.016
T5C1.097
T6C1.100
%
G90
G05
M71
T1
X16436Y30582
X17577Y10930
X18293Y32583
X19436Y42875
X22393Y11885
X22920Y35700
X23188Y39004
X23843Y4422
X23990Y43195
X24130Y27013
X24257Y29934
X25217Y27046
X25616Y14481
X25640Y34580
X28415Y34724
X30168Y16317
X31598Y9858
X33043Y35024
X34536Y42207
X35585Y16619
X39888Y42410
X40668Y31900
X48003Y10554
X50975Y11557
X51374Y43338
X51504Y35824
X53627Y43762
X53833Y42413
X54773Y50757
X56360Y24293
X57409Y52642
X57970Y7333
X62621Y23213
X63620Y19610
X65479Y61661
X66228Y9098
X66507Y21557
X66660Y13310
X68958Y55138
X69337Y45855
X72320Y14520
X74486Y29609
X75288Y21943
X75496Y5547
T3
X60325Y58255
X60325Y43015
X62865Y58255
X62865Y43015
X65405Y58255
X65405Y43015
X67945Y58255
X67945Y43015
X70485Y58255
X70485Y43015
X73025Y58255
X73025Y43015
X75565Y58255
X75565Y43015
X78105Y58255
X78105Y43015
X80645Y58255
X80645Y43015
X83185Y58255
X83185Y43015
X85725Y58255
X85725Y43015
X88265Y58255
X88265Y43015
T4
X12080Y48730
X12080Y46190
X12080Y43650
X12080Y34760
X12080Y32220
X12080Y29680
X19685Y56985
X21590Y22060
X21590Y19520
X22225Y51905
X24130Y22060
X24130Y19520
X24765Y56985
X26670Y22060
X26670Y19520
X29210Y22060
X29210Y19520
X29990Y63970
X31750Y22060
X31750Y19520
X32530Y58890
X34290Y22060
X34290Y19520
X35070Y63970
X36830Y22060
X36830Y19520
X38989Y3137
X39370Y22060
X39370Y19520
X40401Y63970
X41529Y3137
X41910Y22060
X41910Y19520
X42941Y58890
X44069Y3137
X44125Y41110
X44125Y38570
X44125Y36030
X44125Y33490
X44125Y30950
X44125Y28410
X44450Y22060
X44450Y19520
X45481Y63970
X46609Y3137
X46665Y41110
X46665Y38570
X46665Y36030
X46665Y33490
X46665Y30950
X46665Y28410
X46990Y22060
X46990Y19520
X49149Y3137
X49205Y41110
X49205Y38570
X49205Y36030
X49205Y33490
X49205Y30950
X49205Y28410
X49530Y22060
X49530Y19520
X55626Y14328
X55880Y27775
X55880Y20155
X58166Y14328
X58420Y27775
X58420Y20155
X60706Y14328
X60960Y27775
X60960Y20155
X80518Y14201
X80645Y27775
X80645Y20155
X83058Y14201
X83185Y27775
X83185Y20155
X85598Y14201
X85725Y27775
X85725Y20155
T5
X5080Y22060
X5080Y19520
X50884Y61430
X53424Y61430
X55964Y61430
T2
X2770Y9970G85X2770Y11470
G05
X12470Y9970G85X12470Y11470
G05
X25755Y9970G85X25755Y11470
G05
X35455Y9970G85X35455Y11470
G05
T6
X7095Y6820G85X8145Y6820
G05
X30080Y6820G85X31130Y6820
G05
T0
M30
