M48
;DRILL file {KiCad 4.0.5} date 2017 January 19, Thursday 18:54:58
;FORMAT={3:3/ absolute / metric / suppress leading zeros}
FMAT,2
METRIC,TZ
T1C1.016
T2C1.200
T3C1.400
T4C3.200
%
G90
G05
M71
T2
X2054Y60160
X8354Y60160
X82001Y35649
X88301Y35649
T3
X4320Y13120
X4320Y6820
X4320Y2820
X10920Y13120
X10920Y6820
X10920Y2820
X27305Y13120
X27305Y6820
X27305Y2820
X33905Y13120
X33905Y6820
X33905Y2820
T4
X19050Y63350
X57848Y35575
X86360Y63350
T1
X4488Y51190G85X5672Y51190
G05
X4488Y41190G85X5672Y41190
G05
X4488Y37220G85X5672Y37220
G05
X4488Y27220G85X5672Y27220
G05
X53166Y6736G85X53166Y7920
G05
X63166Y6736G85X63166Y7920
G05
X78058Y6609G85X78058Y7793
G05
X88058Y6609G85X88058Y7793
G05
T0
M30
