G04 #@! TF.FileFunction,Copper,L2,Bot,Signal*
%FSLAX46Y46*%
G04 Gerber Fmt 4.6, Leading zero omitted, Abs format (unit mm)*
G04 Created by KiCad (PCBNEW 4.0.5) date 2017 January 20, Friday 16:47:27*
%MOMM*%
%LPD*%
G01*
G04 APERTURE LIST*
%ADD10C,0.100000*%
%ADD11C,0.150000*%
%ADD12C,0.800000*%
%ADD13C,1.300000*%
%ADD14R,1.727200X1.727200*%
%ADD15O,1.727200X1.727200*%
%ADD16R,1.727200X2.032000*%
%ADD17O,1.727200X2.032000*%
%ADD18R,1.500000X3.000000*%
%ADD19R,3.300000X2.300000*%
%ADD20R,1.998980X1.998980*%
%ADD21O,1.998980X1.998980*%
%ADD22O,1.600000X2.000000*%
%ADD23O,2.540000X2.000000*%
%ADD24O,2.032000X1.727200*%
%ADD25O,2.000000X2.540000*%
%ADD26O,2.000000X3.000000*%
%ADD27C,4.064000*%
%ADD28R,1.500000X2.500000*%
%ADD29C,0.600000*%
%ADD30C,0.250000*%
%ADD31C,0.400000*%
%ADD32C,0.350000*%
%ADD33C,0.254000*%
G04 APERTURE END LIST*
D10*
D11*
X0Y67000000D02*
X0Y0D01*
X90000000Y67000000D02*
X90000000Y0D01*
X0Y0D02*
X90000000Y0D01*
X0Y67000000D02*
X90000000Y67000000D01*
D12*
X65478660Y61661140D03*
X24257000Y29934000D03*
X24130000Y27013000D03*
X51374040Y43337580D03*
X69336920Y45854720D03*
X74485500Y29608880D03*
X75288140Y21943160D03*
X62621160Y23213160D03*
X66507360Y21557080D03*
X56360060Y24292660D03*
X19436080Y42875300D03*
X39888160Y42410480D03*
X16436340Y30581700D03*
X68958460Y55138420D03*
X31597600Y9857840D03*
D13*
X2054420Y60160000D03*
X8354420Y60160000D03*
D14*
X21590000Y22060000D03*
D15*
X21590000Y19520000D03*
X24130000Y22060000D03*
X24130000Y19520000D03*
X26670000Y22060000D03*
X26670000Y19520000D03*
X29210000Y22060000D03*
X29210000Y19520000D03*
X31750000Y22060000D03*
X31750000Y19520000D03*
X34290000Y22060000D03*
X34290000Y19520000D03*
X36830000Y22060000D03*
X36830000Y19520000D03*
X39370000Y22060000D03*
X39370000Y19520000D03*
X41910000Y22060000D03*
X41910000Y19520000D03*
X44450000Y22060000D03*
X44450000Y19520000D03*
X46990000Y22060000D03*
X46990000Y19520000D03*
X49530000Y22060000D03*
X49530000Y19520000D03*
D16*
X38989000Y3137000D03*
D17*
X41529000Y3137000D03*
X44069000Y3137000D03*
X46609000Y3137000D03*
X49149000Y3137000D03*
D13*
X88301000Y35649000D03*
X82001000Y35649000D03*
D18*
X25755000Y10720000D03*
D19*
X30605000Y6820000D03*
D18*
X35455000Y10720000D03*
X2770000Y10720000D03*
D19*
X7620000Y6820000D03*
D18*
X12470000Y10720000D03*
D15*
X44124880Y28410000D03*
X44124880Y30950000D03*
X49204880Y28410000D03*
X46664880Y28410000D03*
X46664880Y30950000D03*
X49204880Y30950000D03*
D14*
X49204880Y41110000D03*
D15*
X46664880Y41110000D03*
X44124880Y41110000D03*
X49204880Y38570000D03*
X46664880Y38570000D03*
X44124880Y38570000D03*
X49204880Y36030000D03*
X46664880Y36030000D03*
X44124880Y36030000D03*
X49204880Y33490000D03*
X46664880Y33490000D03*
X44124880Y33490000D03*
D20*
X5080000Y19520000D03*
D21*
X5080000Y22060000D03*
X55963820Y61430000D03*
D20*
X50883820Y61430000D03*
D21*
X53423820Y61430000D03*
D22*
X88265000Y58255000D03*
X88265000Y43015000D03*
X85725000Y43015000D03*
X83185000Y43015000D03*
X80645000Y43015000D03*
X78105000Y43015000D03*
X75565000Y43015000D03*
X73025000Y43015000D03*
X70485000Y43015000D03*
X67945000Y43015000D03*
X65405000Y43015000D03*
X62865000Y43015000D03*
X60325000Y43015000D03*
X60325000Y58255000D03*
X62865000Y58255000D03*
X65405000Y58255000D03*
X67945000Y58255000D03*
X70485000Y58255000D03*
X73025000Y58255000D03*
X75565000Y58255000D03*
X78105000Y58255000D03*
X80645000Y58255000D03*
X83185000Y58255000D03*
X85725000Y58255000D03*
D17*
X80645000Y27775000D03*
X80645000Y20155000D03*
X83185000Y20155000D03*
X85725000Y20155000D03*
X85725000Y27775000D03*
X83185000Y27775000D03*
X55880000Y27775000D03*
X55880000Y20155000D03*
X58420000Y20155000D03*
X60960000Y20155000D03*
X60960000Y27775000D03*
X58420000Y27775000D03*
D23*
X5080000Y51190000D03*
D24*
X12080000Y48730000D03*
X12080000Y46190000D03*
X12080000Y43650000D03*
D23*
X5080000Y41190000D03*
X5080000Y37220000D03*
D24*
X12080000Y34760000D03*
X12080000Y32220000D03*
X12080000Y29680000D03*
D23*
X5080000Y27220000D03*
D25*
X78058000Y7201000D03*
D17*
X80518000Y14201000D03*
X83058000Y14201000D03*
X85598000Y14201000D03*
D25*
X88058000Y7201000D03*
X53166000Y7328000D03*
D17*
X55626000Y14328000D03*
X58166000Y14328000D03*
X60706000Y14328000D03*
D25*
X63166000Y7328000D03*
D17*
X19685000Y56985000D03*
X22225000Y51905000D03*
X24765000Y56985000D03*
D26*
X40401240Y63970000D03*
X42941240Y58890000D03*
X45481240Y63970000D03*
X29989780Y63970000D03*
X32529780Y58890000D03*
X35069780Y63970000D03*
D27*
X19050000Y63350240D03*
X86360000Y63350240D03*
X57848500Y35575340D03*
D12*
X35585400Y16619320D03*
X48003460Y10553800D03*
X50975260Y11557100D03*
D28*
X21000000Y8090000D03*
X19050000Y8090000D03*
X17100000Y8090000D03*
X17100000Y3890000D03*
X19050000Y3890000D03*
X21000000Y3890000D03*
X73200000Y8000000D03*
X71250000Y8000000D03*
X69300000Y8000000D03*
X69300000Y3800000D03*
X71250000Y3800000D03*
X73200000Y3800000D03*
D12*
X25217120Y27046020D03*
X30167580Y16317060D03*
X25615900Y14480640D03*
X17576800Y10929720D03*
X23990300Y43195340D03*
X33042860Y35024160D03*
X40667940Y31899960D03*
D29*
X34536380Y42207280D03*
D12*
X66227960Y9098380D03*
X23187660Y39004340D03*
X28414980Y34724440D03*
X57409080Y52641600D03*
X54772560Y50756920D03*
X23842980Y4422240D03*
D29*
X18293080Y32583220D03*
X25640000Y34580000D03*
X22920000Y35700000D03*
X53832760Y42413020D03*
X53627020Y43761760D03*
X57970420Y7333080D03*
X51503580Y35824260D03*
X22392640Y11884760D03*
X75496420Y5547460D03*
X72320000Y14520000D03*
X66660000Y13310000D03*
X63620000Y19610000D03*
D30*
X60960000Y25230000D02*
X58420000Y22690000D01*
X58420000Y22690000D02*
X58420000Y20155000D01*
X60960000Y27775000D02*
X60960000Y25230000D01*
D31*
X25217120Y27046020D02*
X33042860Y34871760D01*
X33042860Y34871760D02*
X33042860Y35024160D01*
X30167580Y15751375D02*
X30167580Y16317060D01*
X32945571Y12546726D02*
X30167580Y15324717D01*
X32945571Y12079429D02*
X32945571Y12546726D01*
X35455000Y10720000D02*
X34305000Y10720000D01*
X30167580Y15324717D02*
X30167580Y15751375D01*
X34305000Y10720000D02*
X32945571Y12079429D01*
X25615900Y14480640D02*
X25215901Y14080641D01*
X16980641Y14080641D02*
X13620000Y10720000D01*
X25215901Y14080641D02*
X16980641Y14080641D01*
X13620000Y10720000D02*
X12470000Y10720000D01*
X17576800Y10929720D02*
X12679720Y10929720D01*
X12679720Y10929720D02*
X12470000Y10720000D01*
D30*
X39370000Y19520000D02*
X38094920Y20795080D01*
X38094920Y20795080D02*
X25798780Y20795080D01*
X37073840Y39669820D02*
X34536380Y42207280D01*
X25798780Y20795080D02*
X25392380Y21201480D01*
X25392380Y21201480D02*
X25392380Y23396040D01*
X25392380Y23396040D02*
X37073840Y35077500D01*
X37073840Y35077500D02*
X37073840Y39669820D01*
D31*
X71250000Y3800000D02*
X73200000Y3800000D01*
X69300000Y3800000D02*
X71250000Y3800000D01*
X69300000Y3800000D02*
X69300000Y4300000D01*
X69300000Y4300000D02*
X66227960Y7372040D01*
X66227960Y7372040D02*
X66227960Y9098380D01*
X68699990Y3551468D02*
X68875729Y3375729D01*
X28414980Y34724440D02*
X24135080Y39004340D01*
X24135080Y39004340D02*
X23187660Y39004340D01*
X56158079Y51156919D02*
X57409080Y52407920D01*
X57409080Y52407920D02*
X57409080Y52641600D01*
X54772560Y50756920D02*
X55172559Y51156919D01*
X55172559Y51156919D02*
X56158079Y51156919D01*
X19050000Y3890000D02*
X17100000Y3890000D01*
X21000000Y3890000D02*
X19050000Y3890000D01*
X23842980Y4422240D02*
X21532240Y4422240D01*
D30*
X21532240Y4422240D02*
X21000000Y3890000D01*
X18293080Y32583220D02*
X18293080Y33007484D01*
X18293080Y33007484D02*
X18305780Y33020184D01*
X18305780Y33020184D02*
X18305780Y35577880D01*
X18305780Y35577880D02*
X12100560Y41783100D01*
X12100560Y41783100D02*
X12100560Y43784620D01*
X24520000Y35700000D02*
X25640000Y34580000D01*
X22920000Y35700000D02*
X24520000Y35700000D01*
X20368686Y19520000D02*
X21590000Y19520000D01*
X14089380Y19520000D02*
X20368686Y19520000D01*
X7620000Y13050620D02*
X14089380Y19520000D01*
X7620000Y6820000D02*
X7620000Y13050620D01*
X30605000Y6820000D02*
X30605000Y11802940D01*
X30605000Y11802940D02*
X24130000Y18277940D01*
X24130000Y18277940D02*
X24130000Y19520000D01*
X38989000Y3137000D02*
X38989000Y4003140D01*
X38989000Y4003140D02*
X32420560Y10571580D01*
X32420560Y10571580D02*
X32420560Y12329260D01*
X32420560Y12329260D02*
X27871420Y16878400D01*
X27871420Y16878400D02*
X27871420Y18318580D01*
X27871420Y18318580D02*
X26670000Y19520000D01*
X41529000Y3137000D02*
X41529000Y8420200D01*
X41529000Y8420200D02*
X34325560Y15623640D01*
X34325560Y15623640D02*
X33106360Y15623640D01*
X33106360Y15623640D02*
X30073599Y18656401D01*
X30073599Y18656401D02*
X29210000Y19520000D01*
X32613599Y18656401D02*
X31750000Y19520000D01*
X35949051Y17556149D02*
X33713851Y17556149D01*
X44069000Y3137000D02*
X44069000Y9436200D01*
X33713851Y17556149D02*
X32613599Y18656401D01*
X44069000Y9436200D02*
X35949051Y17556149D01*
X35803840Y18006160D02*
X35153599Y18656401D01*
X35153599Y18656401D02*
X34290000Y19520000D01*
X46609000Y8801200D02*
X37404040Y18006160D01*
X46609000Y3137000D02*
X46609000Y8801200D01*
X37404040Y18006160D02*
X35803840Y18006160D01*
X39618920Y17797880D02*
X39596060Y17775020D01*
X39596060Y17775020D02*
X39168492Y17775020D01*
X39168492Y17775020D02*
X38287111Y18656401D01*
X38287111Y18656401D02*
X37693599Y18656401D01*
X37693599Y18656401D02*
X36830000Y19520000D01*
X49166780Y15702380D02*
X47071280Y17797880D01*
X47071280Y17797880D02*
X39618920Y17797880D01*
X49166780Y4420780D02*
X49166780Y15702380D01*
X49149000Y3137000D02*
X49149000Y4403000D01*
X49149000Y4403000D02*
X49166780Y4420780D01*
X53832760Y42413020D02*
X53834030Y42411750D01*
X53834030Y42411750D02*
X64582040Y53159760D01*
X64582040Y53159760D02*
X70825360Y53159760D01*
X70825360Y53159760D02*
X75565000Y57899400D01*
X75565000Y57899400D02*
X75565000Y58255000D01*
X75565000Y58255000D02*
X75481180Y58255000D01*
X53651760Y43761760D02*
X53627020Y43761760D01*
X67945000Y58055000D02*
X53651760Y43761760D01*
X67945000Y58255000D02*
X67945000Y58055000D01*
X26670000Y22060000D02*
X30899100Y26289100D01*
X53906420Y17983300D02*
X55270400Y16619320D01*
X30899100Y26289100D02*
X51414680Y26289100D01*
X58567080Y16619320D02*
X60706000Y14480400D01*
X51414680Y26289100D02*
X53906420Y23797360D01*
X53906420Y23797360D02*
X53906420Y17983300D01*
X55270400Y16619320D02*
X58567080Y16619320D01*
X60706000Y14480400D02*
X60706000Y14328000D01*
X34290000Y22060000D02*
X37338000Y25108000D01*
X50972720Y25108000D02*
X52679600Y23401120D01*
X37338000Y25108000D02*
X50972720Y25108000D01*
X52679600Y23401120D02*
X52679600Y14074240D01*
X56067960Y10685880D02*
X82235280Y10685880D01*
X52679600Y14074240D02*
X56067960Y10685880D01*
X82235280Y10685880D02*
X85598000Y14048600D01*
X85598000Y14048600D02*
X85598000Y14201000D01*
X51181000Y23070920D02*
X51181000Y14122500D01*
X51181000Y14122500D02*
X57970420Y7333080D01*
X50256440Y23995480D02*
X51181000Y23070920D01*
X39370000Y22060000D02*
X41305480Y23995480D01*
X41305480Y23995480D02*
X50256440Y23995480D01*
X51503580Y35824260D02*
X56250840Y40571520D01*
X56250840Y40571520D02*
X68241520Y40571520D01*
X68241520Y40571520D02*
X70485000Y42815000D01*
X70485000Y42815000D02*
X70485000Y43015000D01*
X19050000Y8090000D02*
X21000000Y8090000D01*
X17100000Y8090000D02*
X19050000Y8090000D01*
D32*
X21000000Y8090000D02*
X21000000Y10492120D01*
X21000000Y10492120D02*
X22392640Y11884760D01*
D30*
X71250000Y8000000D02*
X69300000Y8000000D01*
X73200000Y8000000D02*
X71250000Y8000000D01*
X75496420Y5547460D02*
X73200000Y7843880D01*
X73200000Y7843880D02*
X73200000Y8000000D01*
X72320000Y14520000D02*
X74540000Y12300000D01*
X74540000Y12300000D02*
X81309400Y12300000D01*
X81309400Y12300000D02*
X83058000Y14048600D01*
X83058000Y14048600D02*
X83058000Y14201000D01*
X75565000Y43015000D02*
X75565000Y44805700D01*
X49248490Y64112670D02*
X44030900Y58895080D01*
X75565000Y44805700D02*
X81948020Y51188720D01*
X81948020Y51188720D02*
X81948020Y59502140D01*
X43436160Y58895080D02*
X42941240Y59390000D01*
X81948020Y59502140D02*
X80825340Y60624820D01*
X44030900Y58895080D02*
X43436160Y58895080D01*
X80825340Y60624820D02*
X79156560Y60624820D01*
X79156560Y60624820D02*
X75668710Y64112670D01*
X75668710Y64112670D02*
X49248490Y64112670D01*
X42941240Y59390000D02*
X42941240Y58890000D01*
X33779780Y58890000D02*
X32529780Y58890000D01*
X73025000Y43015000D02*
X73025000Y44907300D01*
X44198540Y56400800D02*
X36268980Y56400800D01*
X49434889Y63662659D02*
X46464220Y60691990D01*
X46464220Y58666480D02*
X44198540Y56400800D01*
X75422761Y63662659D02*
X49434889Y63662659D01*
X76837540Y62247880D02*
X75422761Y63662659D01*
X46464220Y60691990D02*
X46464220Y58666480D01*
X36268980Y56400800D02*
X33779780Y58890000D01*
X76837540Y48719840D02*
X76837540Y62247880D01*
X73025000Y44907300D02*
X76837540Y48719840D01*
X63919999Y15170001D02*
X65780000Y13310000D01*
X65780000Y13310000D02*
X66660000Y13310000D01*
X63620000Y19610000D02*
X63919999Y19310001D01*
X63919999Y19310001D02*
X63919999Y15170001D01*
D33*
G36*
X89290000Y59486312D02*
X89279698Y59501730D01*
X88814151Y59812799D01*
X88265000Y59922032D01*
X87715849Y59812799D01*
X87250302Y59501730D01*
X86995000Y59119644D01*
X86739698Y59501730D01*
X86274151Y59812799D01*
X85725000Y59922032D01*
X85175849Y59812799D01*
X84710302Y59501730D01*
X84399233Y59036183D01*
X84307984Y58577443D01*
X84189727Y58980389D01*
X83912189Y59324889D01*
X83523943Y59536956D01*
X83481734Y59542234D01*
X83308000Y59492988D01*
X83308000Y58378000D01*
X83328000Y58378000D01*
X83328000Y58132000D01*
X83308000Y58132000D01*
X83308000Y57017012D01*
X83481734Y56967766D01*
X83523943Y56973044D01*
X83912189Y57185111D01*
X84189727Y57529611D01*
X84307984Y57932557D01*
X84399233Y57473817D01*
X84710302Y57008270D01*
X85175849Y56697201D01*
X85725000Y56587968D01*
X86274151Y56697201D01*
X86739698Y57008270D01*
X86995000Y57390356D01*
X87250302Y57008270D01*
X87715849Y56697201D01*
X88265000Y56587968D01*
X88814151Y56697201D01*
X89279698Y57008270D01*
X89290000Y57023688D01*
X89290000Y44246312D01*
X89279698Y44261730D01*
X88814151Y44572799D01*
X88265000Y44682032D01*
X87715849Y44572799D01*
X87250302Y44261730D01*
X86939233Y43796183D01*
X86847984Y43337443D01*
X86729727Y43740389D01*
X86452189Y44084889D01*
X86063943Y44296956D01*
X86021734Y44302234D01*
X85848000Y44252988D01*
X85848000Y43138000D01*
X85868000Y43138000D01*
X85868000Y42892000D01*
X85848000Y42892000D01*
X85848000Y41777012D01*
X86021734Y41727766D01*
X86063943Y41733044D01*
X86452189Y41945111D01*
X86729727Y42289611D01*
X86847984Y42692557D01*
X86939233Y42233817D01*
X87250302Y41768270D01*
X87715849Y41457201D01*
X88265000Y41347968D01*
X88814151Y41457201D01*
X89279698Y41768270D01*
X89290000Y41783688D01*
X89290000Y36477125D01*
X89029845Y36737735D01*
X88557724Y36933777D01*
X88046519Y36934223D01*
X87574057Y36739005D01*
X87212265Y36377845D01*
X87016223Y35905724D01*
X87015777Y35394519D01*
X87210995Y34922057D01*
X87572155Y34560265D01*
X88044276Y34364223D01*
X88555481Y34363777D01*
X89027943Y34558995D01*
X89290000Y34820594D01*
X89290000Y8550878D01*
X89214120Y8664441D01*
X88683687Y9018864D01*
X88058000Y9143321D01*
X87432313Y9018864D01*
X86901880Y8664441D01*
X86547457Y8134008D01*
X86423000Y7508321D01*
X86423000Y6893679D01*
X86547457Y6267992D01*
X86901880Y5737559D01*
X87432313Y5383136D01*
X88058000Y5258679D01*
X88683687Y5383136D01*
X89214120Y5737559D01*
X89290000Y5851122D01*
X89290000Y710000D01*
X710000Y710000D01*
X710000Y2555617D01*
X2984769Y2555617D01*
X3187582Y2064771D01*
X3562796Y1688902D01*
X4053287Y1485232D01*
X4584383Y1484769D01*
X5075229Y1687582D01*
X5451098Y2062796D01*
X5654768Y2553287D01*
X5654770Y2555617D01*
X9584769Y2555617D01*
X9787582Y2064771D01*
X10162796Y1688902D01*
X10653287Y1485232D01*
X11184383Y1484769D01*
X11675229Y1687582D01*
X12051098Y2062796D01*
X12254768Y2553287D01*
X12255231Y3084383D01*
X12052418Y3575229D01*
X11677204Y3951098D01*
X11186713Y4154768D01*
X10655617Y4155231D01*
X10164771Y3952418D01*
X9788902Y3577204D01*
X9585232Y3086713D01*
X9584769Y2555617D01*
X5654770Y2555617D01*
X5655231Y3084383D01*
X5452418Y3575229D01*
X5077204Y3951098D01*
X4586713Y4154768D01*
X4055617Y4155231D01*
X3564771Y3952418D01*
X3188902Y3577204D01*
X2985232Y3086713D01*
X2984769Y2555617D01*
X710000Y2555617D01*
X710000Y6555617D01*
X2984769Y6555617D01*
X3187582Y6064771D01*
X3562796Y5688902D01*
X4053287Y5485232D01*
X4584383Y5484769D01*
X5075229Y5687582D01*
X5322560Y5934482D01*
X5322560Y5670000D01*
X5366838Y5434683D01*
X5505910Y5218559D01*
X5718110Y5073569D01*
X5970000Y5022560D01*
X9270000Y5022560D01*
X9505317Y5066838D01*
X9619013Y5140000D01*
X15702560Y5140000D01*
X15702560Y2640000D01*
X15746838Y2404683D01*
X15885910Y2188559D01*
X16098110Y2043569D01*
X16350000Y1992560D01*
X17850000Y1992560D01*
X18083260Y2036451D01*
X18300000Y1992560D01*
X19800000Y1992560D01*
X20033260Y2036451D01*
X20250000Y1992560D01*
X21750000Y1992560D01*
X21985317Y2036838D01*
X22201441Y2175910D01*
X22346431Y2388110D01*
X22380352Y2555617D01*
X25969769Y2555617D01*
X26172582Y2064771D01*
X26547796Y1688902D01*
X27038287Y1485232D01*
X27569383Y1484769D01*
X28060229Y1687582D01*
X28436098Y2062796D01*
X28639768Y2553287D01*
X28639770Y2555617D01*
X32569769Y2555617D01*
X32772582Y2064771D01*
X33147796Y1688902D01*
X33638287Y1485232D01*
X34169383Y1484769D01*
X34660229Y1687582D01*
X35036098Y2062796D01*
X35239768Y2553287D01*
X35240231Y3084383D01*
X35037418Y3575229D01*
X34662204Y3951098D01*
X34171713Y4154768D01*
X33640617Y4155231D01*
X33149771Y3952418D01*
X32773902Y3577204D01*
X32570232Y3086713D01*
X32569769Y2555617D01*
X28639770Y2555617D01*
X28640231Y3084383D01*
X28437418Y3575229D01*
X28062204Y3951098D01*
X27571713Y4154768D01*
X27040617Y4155231D01*
X26549771Y3952418D01*
X26173902Y3577204D01*
X25970232Y3086713D01*
X25969769Y2555617D01*
X22380352Y2555617D01*
X22397440Y2640000D01*
X22397440Y3587240D01*
X23214088Y3587240D01*
X23255934Y3545321D01*
X23636203Y3387420D01*
X24047951Y3387061D01*
X24428495Y3544298D01*
X24719899Y3835194D01*
X24877800Y4215463D01*
X24878159Y4627211D01*
X24720922Y5007755D01*
X24430026Y5299159D01*
X24049757Y5457060D01*
X23638009Y5457419D01*
X23257465Y5300182D01*
X23214448Y5257240D01*
X22375380Y5257240D01*
X22353162Y5375317D01*
X22214090Y5591441D01*
X22001890Y5736431D01*
X21750000Y5787440D01*
X20250000Y5787440D01*
X20016740Y5743549D01*
X19800000Y5787440D01*
X18300000Y5787440D01*
X18066740Y5743549D01*
X17850000Y5787440D01*
X16350000Y5787440D01*
X16114683Y5743162D01*
X15898559Y5604090D01*
X15753569Y5391890D01*
X15702560Y5140000D01*
X9619013Y5140000D01*
X9721441Y5205910D01*
X9866431Y5418110D01*
X9917440Y5670000D01*
X9917440Y5934686D01*
X10162796Y5688902D01*
X10653287Y5485232D01*
X11184383Y5484769D01*
X11675229Y5687582D01*
X12051098Y6062796D01*
X12254768Y6553287D01*
X12255231Y7084383D01*
X12052418Y7575229D01*
X11677204Y7951098D01*
X11186713Y8154768D01*
X10655617Y8155231D01*
X10164771Y7952418D01*
X9917440Y7705518D01*
X9917440Y7970000D01*
X9873162Y8205317D01*
X9734090Y8421441D01*
X9521890Y8566431D01*
X9270000Y8617440D01*
X8380000Y8617440D01*
X8380000Y10515250D01*
X11393000Y10515250D01*
X11393000Y9154956D01*
X11442783Y9034770D01*
X11534769Y8942783D01*
X11654955Y8893000D01*
X12265250Y8893000D01*
X12347000Y8974750D01*
X12347000Y10597000D01*
X12593000Y10597000D01*
X12593000Y8974750D01*
X12674750Y8893000D01*
X13285045Y8893000D01*
X13405231Y8942783D01*
X13497217Y9034770D01*
X13547000Y9154956D01*
X13547000Y9340000D01*
X15702560Y9340000D01*
X15702560Y6840000D01*
X15746838Y6604683D01*
X15885910Y6388559D01*
X16098110Y6243569D01*
X16350000Y6192560D01*
X17850000Y6192560D01*
X18083260Y6236451D01*
X18300000Y6192560D01*
X19800000Y6192560D01*
X20033260Y6236451D01*
X20250000Y6192560D01*
X21750000Y6192560D01*
X21985317Y6236838D01*
X22201441Y6375910D01*
X22346431Y6588110D01*
X22397440Y6840000D01*
X22397440Y9340000D01*
X22353162Y9575317D01*
X22214090Y9791441D01*
X22001890Y9936431D01*
X21810000Y9975290D01*
X21810000Y10156608D01*
X22620723Y10967331D01*
X22921583Y11091643D01*
X23184832Y11354433D01*
X23327478Y11697961D01*
X23327802Y12069927D01*
X23185757Y12413703D01*
X22922967Y12676952D01*
X22579439Y12819598D01*
X22207473Y12819922D01*
X21863697Y12677877D01*
X21600448Y12415087D01*
X21474756Y12112389D01*
X20427244Y11064876D01*
X20251658Y10802094D01*
X20190000Y10492120D01*
X20190000Y9976150D01*
X20016740Y9943549D01*
X19800000Y9987440D01*
X18300000Y9987440D01*
X18066740Y9943549D01*
X17850000Y9987440D01*
X16350000Y9987440D01*
X16114683Y9943162D01*
X15898559Y9804090D01*
X15753569Y9591890D01*
X15702560Y9340000D01*
X13547000Y9340000D01*
X13547000Y10515250D01*
X13465250Y10597000D01*
X12593000Y10597000D01*
X12347000Y10597000D01*
X11474750Y10597000D01*
X11393000Y10515250D01*
X8380000Y10515250D01*
X8380000Y12735818D01*
X8499799Y12855617D01*
X9584769Y12855617D01*
X9787582Y12364771D01*
X10162796Y11988902D01*
X10653287Y11785232D01*
X11184383Y11784769D01*
X11393000Y11870968D01*
X11393000Y10924750D01*
X11474750Y10843000D01*
X12347000Y10843000D01*
X12347000Y12465250D01*
X12593000Y12465250D01*
X12593000Y10843000D01*
X13465250Y10843000D01*
X13547000Y10924750D01*
X13547000Y12285044D01*
X13497217Y12405230D01*
X13405231Y12497217D01*
X13285045Y12547000D01*
X12674750Y12547000D01*
X12593000Y12465250D01*
X12347000Y12465250D01*
X12265250Y12547000D01*
X12127586Y12547000D01*
X12254768Y12853287D01*
X12255231Y13384383D01*
X12052418Y13875229D01*
X11677204Y14251098D01*
X11186713Y14454768D01*
X10655617Y14455231D01*
X10164771Y14252418D01*
X9788902Y13877204D01*
X9585232Y13386713D01*
X9584769Y12855617D01*
X8499799Y12855617D01*
X14404182Y18760000D01*
X20300738Y18760000D01*
X20500971Y18460330D01*
X20987152Y18135474D01*
X21560641Y18021400D01*
X21619359Y18021400D01*
X22192848Y18135474D01*
X22679029Y18460330D01*
X22860000Y18731172D01*
X23040971Y18460330D01*
X23378594Y18234738D01*
X23427852Y17987101D01*
X23592599Y17740539D01*
X26925480Y14407658D01*
X26549771Y14252418D01*
X26173902Y13877204D01*
X25970232Y13386713D01*
X25969779Y12867440D01*
X25005000Y12867440D01*
X24769683Y12823162D01*
X24553559Y12684090D01*
X24408569Y12471890D01*
X24357560Y12220000D01*
X24357560Y9220000D01*
X24401838Y8984683D01*
X24540910Y8768559D01*
X24753110Y8623569D01*
X25005000Y8572560D01*
X26505000Y8572560D01*
X26740317Y8616838D01*
X26956441Y8755910D01*
X27101431Y8968110D01*
X27152440Y9220000D01*
X27152440Y11785132D01*
X27569383Y11784769D01*
X28060229Y11987582D01*
X28436098Y12362796D01*
X28592848Y12740290D01*
X29845000Y11488138D01*
X29845000Y8617440D01*
X28955000Y8617440D01*
X28719683Y8573162D01*
X28503559Y8434090D01*
X28358569Y8221890D01*
X28307560Y7970000D01*
X28307560Y7705314D01*
X28062204Y7951098D01*
X27571713Y8154768D01*
X27040617Y8155231D01*
X26549771Y7952418D01*
X26173902Y7577204D01*
X25970232Y7086713D01*
X25969769Y6555617D01*
X26172582Y6064771D01*
X26547796Y5688902D01*
X27038287Y5485232D01*
X27569383Y5484769D01*
X28060229Y5687582D01*
X28307560Y5934482D01*
X28307560Y5670000D01*
X28351838Y5434683D01*
X28490910Y5218559D01*
X28703110Y5073569D01*
X28955000Y5022560D01*
X32255000Y5022560D01*
X32490317Y5066838D01*
X32706441Y5205910D01*
X32851431Y5418110D01*
X32902440Y5670000D01*
X32902440Y5934686D01*
X33147796Y5688902D01*
X33638287Y5485232D01*
X34169383Y5484769D01*
X34660229Y5687582D01*
X35036098Y6062796D01*
X35239768Y6553287D01*
X35239876Y6677462D01*
X37526187Y4391151D01*
X37477960Y4153000D01*
X37477960Y2121000D01*
X37522238Y1885683D01*
X37661310Y1669559D01*
X37873510Y1524569D01*
X38125400Y1473560D01*
X39852600Y1473560D01*
X40087917Y1517838D01*
X40304041Y1656910D01*
X40449031Y1869110D01*
X40457400Y1910439D01*
X40469330Y1892585D01*
X40955511Y1567729D01*
X41529000Y1453655D01*
X42102489Y1567729D01*
X42588670Y1892585D01*
X42799000Y2207366D01*
X43009330Y1892585D01*
X43495511Y1567729D01*
X44069000Y1453655D01*
X44642489Y1567729D01*
X45128670Y1892585D01*
X45339000Y2207366D01*
X45549330Y1892585D01*
X46035511Y1567729D01*
X46609000Y1453655D01*
X47182489Y1567729D01*
X47668670Y1892585D01*
X47879000Y2207366D01*
X48089330Y1892585D01*
X48575511Y1567729D01*
X49149000Y1453655D01*
X49722489Y1567729D01*
X50208670Y1892585D01*
X50533526Y2378766D01*
X50647600Y2952255D01*
X50647600Y3321745D01*
X50533526Y3895234D01*
X50208670Y4381415D01*
X49926780Y4569768D01*
X49926780Y7635321D01*
X51531000Y7635321D01*
X51531000Y7020679D01*
X51655457Y6394992D01*
X52009880Y5864559D01*
X52540313Y5510136D01*
X53166000Y5385679D01*
X53791687Y5510136D01*
X54322120Y5864559D01*
X54676543Y6394992D01*
X54801000Y7020679D01*
X54801000Y7635321D01*
X54676543Y8261008D01*
X54322120Y8791441D01*
X53791687Y9145864D01*
X53166000Y9270321D01*
X52540313Y9145864D01*
X52009880Y8791441D01*
X51655457Y8261008D01*
X51531000Y7635321D01*
X49926780Y7635321D01*
X49926780Y15702380D01*
X49868928Y15993219D01*
X49704181Y16239781D01*
X47608681Y18335281D01*
X47446881Y18443392D01*
X47713639Y18574536D01*
X48020369Y18923430D01*
X48140408Y19213260D01*
X48379592Y19213260D01*
X48499631Y18923430D01*
X48806361Y18574536D01*
X49223258Y18369580D01*
X49407000Y18417509D01*
X49407000Y19397000D01*
X48427993Y19397000D01*
X48379592Y19213260D01*
X48140408Y19213260D01*
X48092007Y19397000D01*
X47113000Y19397000D01*
X47113000Y19377000D01*
X46867000Y19377000D01*
X46867000Y19397000D01*
X46847000Y19397000D01*
X46847000Y19643000D01*
X46867000Y19643000D01*
X46867000Y20622491D01*
X47113000Y20622491D01*
X47113000Y19643000D01*
X48092007Y19643000D01*
X48140408Y19826740D01*
X48379592Y19826740D01*
X48427993Y19643000D01*
X49407000Y19643000D01*
X49407000Y20622491D01*
X49223258Y20670420D01*
X48806361Y20465464D01*
X48499631Y20116570D01*
X48379592Y19826740D01*
X48140408Y19826740D01*
X48020369Y20116570D01*
X47713639Y20465464D01*
X47296742Y20670420D01*
X47113000Y20622491D01*
X46867000Y20622491D01*
X46683258Y20670420D01*
X46266361Y20465464D01*
X45959631Y20116570D01*
X45891848Y19952910D01*
X45863885Y20093489D01*
X45539029Y20579670D01*
X45224248Y20790000D01*
X45539029Y21000330D01*
X45863885Y21486511D01*
X45891848Y21627090D01*
X45959631Y21463430D01*
X46266361Y21114536D01*
X46683258Y20909580D01*
X46867000Y20957509D01*
X46867000Y21937000D01*
X47113000Y21937000D01*
X47113000Y20957509D01*
X47296742Y20909580D01*
X47713639Y21114536D01*
X48020369Y21463430D01*
X48140408Y21753260D01*
X48379592Y21753260D01*
X48499631Y21463430D01*
X48806361Y21114536D01*
X49223258Y20909580D01*
X49407000Y20957509D01*
X49407000Y21937000D01*
X48427993Y21937000D01*
X48379592Y21753260D01*
X48140408Y21753260D01*
X48092007Y21937000D01*
X47113000Y21937000D01*
X46867000Y21937000D01*
X46847000Y21937000D01*
X46847000Y22183000D01*
X46867000Y22183000D01*
X46867000Y22203000D01*
X47113000Y22203000D01*
X47113000Y22183000D01*
X48092007Y22183000D01*
X48140408Y22366740D01*
X48020369Y22656570D01*
X47713639Y23005464D01*
X47296742Y23210420D01*
X47113002Y23162492D01*
X47113002Y23235480D01*
X49406998Y23235480D01*
X49406998Y23162492D01*
X49223258Y23210420D01*
X48806361Y23005464D01*
X48499631Y22656570D01*
X48379592Y22366740D01*
X48427993Y22183000D01*
X49407000Y22183000D01*
X49407000Y22203000D01*
X49653000Y22203000D01*
X49653000Y22183000D01*
X49673000Y22183000D01*
X49673000Y21937000D01*
X49653000Y21937000D01*
X49653000Y20957509D01*
X49836742Y20909580D01*
X50253639Y21114536D01*
X50421000Y21304903D01*
X50421000Y20275097D01*
X50253639Y20465464D01*
X49836742Y20670420D01*
X49653000Y20622491D01*
X49653000Y19643000D01*
X49673000Y19643000D01*
X49673000Y19397000D01*
X49653000Y19397000D01*
X49653000Y18417509D01*
X49836742Y18369580D01*
X50253639Y18574536D01*
X50421000Y18764903D01*
X50421000Y14122500D01*
X50478852Y13831661D01*
X50643599Y13585099D01*
X57035298Y7193400D01*
X57035258Y7147913D01*
X57177303Y6804137D01*
X57440093Y6540888D01*
X57783621Y6398242D01*
X58155587Y6397918D01*
X58499363Y6539963D01*
X58762612Y6802753D01*
X58905258Y7146281D01*
X58905582Y7518247D01*
X58857209Y7635321D01*
X61531000Y7635321D01*
X61531000Y7020679D01*
X61655457Y6394992D01*
X62009880Y5864559D01*
X62540313Y5510136D01*
X63166000Y5385679D01*
X63791687Y5510136D01*
X64322120Y5864559D01*
X64676543Y6394992D01*
X64801000Y7020679D01*
X64801000Y7635321D01*
X64676543Y8261008D01*
X64322120Y8791441D01*
X63791687Y9145864D01*
X63166000Y9270321D01*
X62540313Y9145864D01*
X62009880Y8791441D01*
X61655457Y8261008D01*
X61531000Y7635321D01*
X58857209Y7635321D01*
X58763537Y7862023D01*
X58500747Y8125272D01*
X58157219Y8267918D01*
X58110343Y8267959D01*
X56452422Y9925880D01*
X65591915Y9925880D01*
X65351041Y9685426D01*
X65193140Y9305157D01*
X65192781Y8893409D01*
X65350018Y8512865D01*
X65392960Y8469848D01*
X65392960Y7372040D01*
X65456521Y7052499D01*
X65611872Y6820000D01*
X65637526Y6781606D01*
X67902560Y4516572D01*
X67902560Y3740344D01*
X67864990Y3551468D01*
X67902560Y3362592D01*
X67902560Y2550000D01*
X67946838Y2314683D01*
X68085910Y2098559D01*
X68298110Y1953569D01*
X68550000Y1902560D01*
X70050000Y1902560D01*
X70283260Y1946451D01*
X70500000Y1902560D01*
X72000000Y1902560D01*
X72233260Y1946451D01*
X72450000Y1902560D01*
X73950000Y1902560D01*
X74185317Y1946838D01*
X74401441Y2085910D01*
X74546431Y2298110D01*
X74597440Y2550000D01*
X74597440Y5050000D01*
X74553162Y5285317D01*
X74414090Y5501441D01*
X74201890Y5646431D01*
X73950000Y5697440D01*
X72450000Y5697440D01*
X72216740Y5653549D01*
X72000000Y5697440D01*
X70500000Y5697440D01*
X70266740Y5653549D01*
X70050000Y5697440D01*
X69083428Y5697440D01*
X68678308Y6102560D01*
X70050000Y6102560D01*
X70283260Y6146451D01*
X70500000Y6102560D01*
X72000000Y6102560D01*
X72233260Y6146451D01*
X72450000Y6102560D01*
X73866518Y6102560D01*
X74561298Y5407780D01*
X74561258Y5362293D01*
X74703303Y5018517D01*
X74966093Y4755268D01*
X75309621Y4612622D01*
X75681587Y4612298D01*
X76025363Y4754343D01*
X76288612Y5017133D01*
X76431258Y5360661D01*
X76431582Y5732627D01*
X76289537Y6076403D01*
X76026747Y6339652D01*
X75683219Y6482298D01*
X75636343Y6482339D01*
X74610361Y7508321D01*
X76423000Y7508321D01*
X76423000Y6893679D01*
X76547457Y6267992D01*
X76901880Y5737559D01*
X77432313Y5383136D01*
X78058000Y5258679D01*
X78683687Y5383136D01*
X79214120Y5737559D01*
X79568543Y6267992D01*
X79693000Y6893679D01*
X79693000Y7508321D01*
X79568543Y8134008D01*
X79214120Y8664441D01*
X78683687Y9018864D01*
X78058000Y9143321D01*
X77432313Y9018864D01*
X76901880Y8664441D01*
X76547457Y8134008D01*
X76423000Y7508321D01*
X74610361Y7508321D01*
X74597440Y7521242D01*
X74597440Y9250000D01*
X74553162Y9485317D01*
X74414090Y9701441D01*
X74201890Y9846431D01*
X73950000Y9897440D01*
X72450000Y9897440D01*
X72216740Y9853549D01*
X72000000Y9897440D01*
X70500000Y9897440D01*
X70266740Y9853549D01*
X70050000Y9897440D01*
X68550000Y9897440D01*
X68314683Y9853162D01*
X68098559Y9714090D01*
X67953569Y9501890D01*
X67902560Y9250000D01*
X67902560Y6878308D01*
X67062960Y7717908D01*
X67062960Y8469488D01*
X67104879Y8511334D01*
X67262780Y8891603D01*
X67263139Y9303351D01*
X67105902Y9683895D01*
X66864339Y9925880D01*
X82235280Y9925880D01*
X82526119Y9983732D01*
X82772681Y10148479D01*
X85217536Y12593334D01*
X85598000Y12517655D01*
X86171489Y12631729D01*
X86657670Y12956585D01*
X86982526Y13442766D01*
X87096600Y14016255D01*
X87096600Y14385745D01*
X86982526Y14959234D01*
X86657670Y15445415D01*
X86171489Y15770271D01*
X85598000Y15884345D01*
X85024511Y15770271D01*
X84538330Y15445415D01*
X84328000Y15130634D01*
X84117670Y15445415D01*
X83631489Y15770271D01*
X83058000Y15884345D01*
X82484511Y15770271D01*
X81998330Y15445415D01*
X81673474Y14959234D01*
X81626918Y14725179D01*
X81549806Y14951211D01*
X81242492Y15300560D01*
X80824740Y15503808D01*
X80641000Y15455407D01*
X80641000Y14324000D01*
X80661000Y14324000D01*
X80661000Y14078000D01*
X80641000Y14078000D01*
X80641000Y14058000D01*
X80395000Y14058000D01*
X80395000Y14078000D01*
X79407635Y14078000D01*
X79335963Y13891150D01*
X79486194Y13450789D01*
X79793508Y13101440D01*
X79878683Y13060000D01*
X74854802Y13060000D01*
X73403952Y14510850D01*
X79335963Y14510850D01*
X79407635Y14324000D01*
X80395000Y14324000D01*
X80395000Y15455407D01*
X80211260Y15503808D01*
X79793508Y15300560D01*
X79486194Y14951211D01*
X79335963Y14510850D01*
X73403952Y14510850D01*
X73255122Y14659680D01*
X73255162Y14705167D01*
X73113117Y15048943D01*
X72850327Y15312192D01*
X72506799Y15454838D01*
X72134833Y15455162D01*
X71791057Y15313117D01*
X71527808Y15050327D01*
X71385162Y14706799D01*
X71384838Y14334833D01*
X71526883Y13991057D01*
X71789673Y13727808D01*
X72133201Y13585162D01*
X72180077Y13585121D01*
X74002599Y11762599D01*
X74249161Y11597852D01*
X74540000Y11540000D01*
X81309400Y11540000D01*
X81600239Y11597852D01*
X81846801Y11762599D01*
X82677536Y12593334D01*
X83003161Y12528563D01*
X81920478Y11445880D01*
X56382762Y11445880D01*
X53810492Y14018150D01*
X54443963Y14018150D01*
X54594194Y13577789D01*
X54901508Y13228440D01*
X55319260Y13025192D01*
X55503000Y13073593D01*
X55503000Y14205000D01*
X54515635Y14205000D01*
X54443963Y14018150D01*
X53810492Y14018150D01*
X53439600Y14389042D01*
X53439600Y14637850D01*
X54443963Y14637850D01*
X54515635Y14451000D01*
X55503000Y14451000D01*
X55503000Y15582407D01*
X55319260Y15630808D01*
X54901508Y15427560D01*
X54594194Y15078211D01*
X54443963Y14637850D01*
X53439600Y14637850D01*
X53439600Y17375318D01*
X54732999Y16081919D01*
X54979561Y15917172D01*
X55270400Y15859320D01*
X57535713Y15859320D01*
X57106330Y15572415D01*
X56781474Y15086234D01*
X56734918Y14852179D01*
X56657806Y15078211D01*
X56350492Y15427560D01*
X55932740Y15630808D01*
X55749000Y15582407D01*
X55749000Y14451000D01*
X55769000Y14451000D01*
X55769000Y14205000D01*
X55749000Y14205000D01*
X55749000Y13073593D01*
X55932740Y13025192D01*
X56350492Y13228440D01*
X56657806Y13577789D01*
X56734918Y13803821D01*
X56781474Y13569766D01*
X57106330Y13083585D01*
X57592511Y12758729D01*
X58166000Y12644655D01*
X58739489Y12758729D01*
X59225670Y13083585D01*
X59436000Y13398366D01*
X59646330Y13083585D01*
X60132511Y12758729D01*
X60706000Y12644655D01*
X61279489Y12758729D01*
X61765670Y13083585D01*
X62090526Y13569766D01*
X62204600Y14143255D01*
X62204600Y14512745D01*
X62090526Y15086234D01*
X61765670Y15572415D01*
X61279489Y15897271D01*
X60706000Y16011345D01*
X60325536Y15935666D01*
X59104481Y17156721D01*
X58857919Y17321468D01*
X58567080Y17379320D01*
X55585202Y17379320D01*
X54666420Y18298102D01*
X54666420Y19140927D01*
X54820330Y18910585D01*
X55306511Y18585729D01*
X55880000Y18471655D01*
X56453489Y18585729D01*
X56939670Y18910585D01*
X57150000Y19225366D01*
X57360330Y18910585D01*
X57846511Y18585729D01*
X58420000Y18471655D01*
X58993489Y18585729D01*
X59479670Y18910585D01*
X59690000Y19225366D01*
X59900330Y18910585D01*
X60386511Y18585729D01*
X60960000Y18471655D01*
X61533489Y18585729D01*
X62019670Y18910585D01*
X62344526Y19396766D01*
X62350108Y19424833D01*
X62684838Y19424833D01*
X62826883Y19081057D01*
X63089673Y18817808D01*
X63159999Y18788606D01*
X63159999Y15170001D01*
X63217851Y14879162D01*
X63382598Y14632600D01*
X65242599Y12772599D01*
X65489161Y12607852D01*
X65780000Y12550000D01*
X66097537Y12550000D01*
X66129673Y12517808D01*
X66473201Y12375162D01*
X66845167Y12374838D01*
X67188943Y12516883D01*
X67452192Y12779673D01*
X67594838Y13123201D01*
X67595162Y13495167D01*
X67453117Y13838943D01*
X67190327Y14102192D01*
X66846799Y14244838D01*
X66474833Y14245162D01*
X66131057Y14103117D01*
X66097882Y14070000D01*
X66094802Y14070000D01*
X64679999Y15484803D01*
X64679999Y19310001D01*
X64622147Y19600840D01*
X64555080Y19701213D01*
X64555162Y19795167D01*
X64413117Y20138943D01*
X64212666Y20339745D01*
X79146400Y20339745D01*
X79146400Y19970255D01*
X79260474Y19396766D01*
X79585330Y18910585D01*
X80071511Y18585729D01*
X80645000Y18471655D01*
X81218489Y18585729D01*
X81704670Y18910585D01*
X81915000Y19225366D01*
X82125330Y18910585D01*
X82611511Y18585729D01*
X83185000Y18471655D01*
X83758489Y18585729D01*
X84244670Y18910585D01*
X84455000Y19225366D01*
X84665330Y18910585D01*
X85151511Y18585729D01*
X85725000Y18471655D01*
X86298489Y18585729D01*
X86784670Y18910585D01*
X87109526Y19396766D01*
X87223600Y19970255D01*
X87223600Y20339745D01*
X87109526Y20913234D01*
X86784670Y21399415D01*
X86298489Y21724271D01*
X85725000Y21838345D01*
X85151511Y21724271D01*
X84665330Y21399415D01*
X84455000Y21084634D01*
X84244670Y21399415D01*
X83758489Y21724271D01*
X83185000Y21838345D01*
X82611511Y21724271D01*
X82125330Y21399415D01*
X81915000Y21084634D01*
X81704670Y21399415D01*
X81218489Y21724271D01*
X80645000Y21838345D01*
X80071511Y21724271D01*
X79585330Y21399415D01*
X79260474Y20913234D01*
X79146400Y20339745D01*
X64212666Y20339745D01*
X64150327Y20402192D01*
X63806799Y20544838D01*
X63434833Y20545162D01*
X63091057Y20403117D01*
X62827808Y20140327D01*
X62685162Y19796799D01*
X62684838Y19424833D01*
X62350108Y19424833D01*
X62458600Y19970255D01*
X62458600Y20339745D01*
X62344526Y20913234D01*
X62019670Y21399415D01*
X61533489Y21724271D01*
X60960000Y21838345D01*
X60386511Y21724271D01*
X59900330Y21399415D01*
X59690000Y21084634D01*
X59479670Y21399415D01*
X59180000Y21599648D01*
X59180000Y22375198D01*
X61497401Y24692599D01*
X61662148Y24939160D01*
X61695732Y25108000D01*
X61720000Y25230000D01*
X61720000Y26330352D01*
X62019670Y26530585D01*
X62344526Y27016766D01*
X62458600Y27590255D01*
X62458600Y27959745D01*
X79146400Y27959745D01*
X79146400Y27590255D01*
X79260474Y27016766D01*
X79585330Y26530585D01*
X80071511Y26205729D01*
X80645000Y26091655D01*
X81218489Y26205729D01*
X81704670Y26530585D01*
X81915000Y26845366D01*
X82125330Y26530585D01*
X82611511Y26205729D01*
X83185000Y26091655D01*
X83758489Y26205729D01*
X84244670Y26530585D01*
X84455000Y26845366D01*
X84665330Y26530585D01*
X85151511Y26205729D01*
X85725000Y26091655D01*
X86298489Y26205729D01*
X86784670Y26530585D01*
X87109526Y27016766D01*
X87223600Y27590255D01*
X87223600Y27959745D01*
X87109526Y28533234D01*
X86784670Y29019415D01*
X86298489Y29344271D01*
X85725000Y29458345D01*
X85151511Y29344271D01*
X84665330Y29019415D01*
X84455000Y28704634D01*
X84244670Y29019415D01*
X83758489Y29344271D01*
X83185000Y29458345D01*
X82611511Y29344271D01*
X82125330Y29019415D01*
X81915000Y28704634D01*
X81704670Y29019415D01*
X81218489Y29344271D01*
X80645000Y29458345D01*
X80071511Y29344271D01*
X79585330Y29019415D01*
X79260474Y28533234D01*
X79146400Y27959745D01*
X62458600Y27959745D01*
X62344526Y28533234D01*
X62019670Y29019415D01*
X61533489Y29344271D01*
X60960000Y29458345D01*
X60386511Y29344271D01*
X59900330Y29019415D01*
X59690000Y28704634D01*
X59479670Y29019415D01*
X58993489Y29344271D01*
X58420000Y29458345D01*
X57846511Y29344271D01*
X57360330Y29019415D01*
X57150000Y28704634D01*
X56939670Y29019415D01*
X56453489Y29344271D01*
X55880000Y29458345D01*
X55306511Y29344271D01*
X54820330Y29019415D01*
X54495474Y28533234D01*
X54381400Y27959745D01*
X54381400Y27590255D01*
X54495474Y27016766D01*
X54820330Y26530585D01*
X55306511Y26205729D01*
X55880000Y26091655D01*
X56453489Y26205729D01*
X56939670Y26530585D01*
X57150000Y26845366D01*
X57360330Y26530585D01*
X57846511Y26205729D01*
X58420000Y26091655D01*
X58993489Y26205729D01*
X59479670Y26530585D01*
X59690000Y26845366D01*
X59900330Y26530585D01*
X60200000Y26330352D01*
X60200000Y25544802D01*
X57882599Y23227401D01*
X57717852Y22980839D01*
X57660000Y22690000D01*
X57660000Y21599648D01*
X57360330Y21399415D01*
X57150000Y21084634D01*
X56939670Y21399415D01*
X56453489Y21724271D01*
X55880000Y21838345D01*
X55306511Y21724271D01*
X54820330Y21399415D01*
X54666420Y21169073D01*
X54666420Y23797360D01*
X54608568Y24088199D01*
X54559844Y24161120D01*
X54443822Y24334761D01*
X51952081Y26826501D01*
X51705519Y26991248D01*
X51414680Y27049100D01*
X49857667Y27049100D01*
X50264550Y27320971D01*
X50589406Y27807152D01*
X50703480Y28380641D01*
X50703480Y28439359D01*
X50589406Y29012848D01*
X50264550Y29499029D01*
X49993708Y29680000D01*
X50264550Y29860971D01*
X50589406Y30347152D01*
X50703480Y30920641D01*
X50703480Y30979359D01*
X50589406Y31552848D01*
X50264550Y32039029D01*
X49993708Y32220000D01*
X50264550Y32400971D01*
X50589406Y32887152D01*
X50703480Y33460641D01*
X50703480Y33519359D01*
X50589406Y34092848D01*
X50264550Y34579029D01*
X49993708Y34760000D01*
X50264550Y34940971D01*
X50589406Y35427152D01*
X50611044Y35535931D01*
X50710463Y35295317D01*
X50973253Y35032068D01*
X51316781Y34889422D01*
X51688747Y34889098D01*
X52032523Y35031143D01*
X52048575Y35047168D01*
X55181038Y35047168D01*
X55586209Y34066579D01*
X56335793Y33315685D01*
X57315673Y32908804D01*
X58376672Y32907878D01*
X59357261Y33313049D01*
X60108155Y34062633D01*
X60515036Y35042513D01*
X60515343Y35394519D01*
X80715777Y35394519D01*
X80910995Y34922057D01*
X81272155Y34560265D01*
X81744276Y34364223D01*
X82255481Y34363777D01*
X82727943Y34558995D01*
X83089735Y34920155D01*
X83285777Y35392276D01*
X83286223Y35903481D01*
X83091005Y36375943D01*
X82729845Y36737735D01*
X82257724Y36933777D01*
X81746519Y36934223D01*
X81274057Y36739005D01*
X80912265Y36377845D01*
X80716223Y35905724D01*
X80715777Y35394519D01*
X60515343Y35394519D01*
X60515962Y36103512D01*
X60110791Y37084101D01*
X59361207Y37834995D01*
X58381327Y38241876D01*
X57320328Y38242802D01*
X56339739Y37837631D01*
X55588845Y37088047D01*
X55181964Y36108167D01*
X55181038Y35047168D01*
X52048575Y35047168D01*
X52295772Y35293933D01*
X52438418Y35637461D01*
X52438459Y35684337D01*
X56565642Y39811520D01*
X68241520Y39811520D01*
X68532359Y39869372D01*
X68778921Y40034119D01*
X70157845Y41413043D01*
X70485000Y41347968D01*
X71034151Y41457201D01*
X71499698Y41768270D01*
X71755000Y42150356D01*
X72010302Y41768270D01*
X72475849Y41457201D01*
X73025000Y41347968D01*
X73574151Y41457201D01*
X74039698Y41768270D01*
X74295000Y42150356D01*
X74550302Y41768270D01*
X75015849Y41457201D01*
X75565000Y41347968D01*
X76114151Y41457201D01*
X76579698Y41768270D01*
X76835000Y42150356D01*
X77090302Y41768270D01*
X77555849Y41457201D01*
X78105000Y41347968D01*
X78654151Y41457201D01*
X79119698Y41768270D01*
X79375000Y42150356D01*
X79630302Y41768270D01*
X80095849Y41457201D01*
X80645000Y41347968D01*
X81194151Y41457201D01*
X81659698Y41768270D01*
X81915000Y42150356D01*
X82170302Y41768270D01*
X82635849Y41457201D01*
X83185000Y41347968D01*
X83734151Y41457201D01*
X84199698Y41768270D01*
X84510767Y42233817D01*
X84602016Y42692557D01*
X84720273Y42289611D01*
X84997811Y41945111D01*
X85386057Y41733044D01*
X85428266Y41727766D01*
X85602000Y41777012D01*
X85602000Y42892000D01*
X85582000Y42892000D01*
X85582000Y43138000D01*
X85602000Y43138000D01*
X85602000Y44252988D01*
X85428266Y44302234D01*
X85386057Y44296956D01*
X84997811Y44084889D01*
X84720273Y43740389D01*
X84602016Y43337443D01*
X84510767Y43796183D01*
X84199698Y44261730D01*
X83734151Y44572799D01*
X83185000Y44682032D01*
X82635849Y44572799D01*
X82170302Y44261730D01*
X81915000Y43879644D01*
X81659698Y44261730D01*
X81194151Y44572799D01*
X80645000Y44682032D01*
X80095849Y44572799D01*
X79630302Y44261730D01*
X79375000Y43879644D01*
X79119698Y44261730D01*
X78654151Y44572799D01*
X78105000Y44682032D01*
X77555849Y44572799D01*
X77090302Y44261730D01*
X76835000Y43879644D01*
X76579698Y44261730D01*
X76325000Y44431914D01*
X76325000Y44490898D01*
X82485421Y50651319D01*
X82650168Y50897880D01*
X82663260Y50963697D01*
X82708020Y51188720D01*
X82708020Y57048442D01*
X82846057Y56973044D01*
X82888266Y56967766D01*
X83062000Y57017012D01*
X83062000Y58132000D01*
X83042000Y58132000D01*
X83042000Y58378000D01*
X83062000Y58378000D01*
X83062000Y59492988D01*
X82888266Y59542234D01*
X82846057Y59536956D01*
X82708020Y59461558D01*
X82708020Y59502140D01*
X82650168Y59792979D01*
X82650168Y59792980D01*
X82485421Y60039541D01*
X81362741Y61162221D01*
X81116179Y61326968D01*
X80825340Y61384820D01*
X79471362Y61384820D01*
X78034114Y62822068D01*
X83692538Y62822068D01*
X84097709Y61841479D01*
X84847293Y61090585D01*
X85827173Y60683704D01*
X86888172Y60682778D01*
X87868761Y61087949D01*
X88619655Y61837533D01*
X89026536Y62817413D01*
X89027462Y63878412D01*
X88622291Y64859001D01*
X87872707Y65609895D01*
X86892827Y66016776D01*
X85831828Y66017702D01*
X84851239Y65612531D01*
X84100345Y64862947D01*
X83693464Y63883067D01*
X83692538Y62822068D01*
X78034114Y62822068D01*
X76206111Y64650071D01*
X75959549Y64814818D01*
X75668710Y64872670D01*
X49248490Y64872670D01*
X48957651Y64814818D01*
X48711089Y64650071D01*
X44318302Y60257284D01*
X44097360Y60587947D01*
X43566927Y60942370D01*
X42941240Y61066827D01*
X42315553Y60942370D01*
X41785120Y60587947D01*
X41430697Y60057514D01*
X41306240Y59431827D01*
X41306240Y58348173D01*
X41430697Y57722486D01*
X41785120Y57192053D01*
X41831894Y57160800D01*
X36583782Y57160800D01*
X34317181Y59427401D01*
X34142435Y59544162D01*
X34040323Y60057514D01*
X33685900Y60587947D01*
X33155467Y60942370D01*
X32529780Y61066827D01*
X31904093Y60942370D01*
X31373660Y60587947D01*
X31019237Y60057514D01*
X30894780Y59431827D01*
X30894780Y58348173D01*
X31019237Y57722486D01*
X31373660Y57192053D01*
X31904093Y56837630D01*
X32529780Y56713173D01*
X33155467Y56837630D01*
X33685900Y57192053D01*
X33973099Y57621879D01*
X35731579Y55863399D01*
X35978140Y55698652D01*
X36268980Y55640800D01*
X44198540Y55640800D01*
X44489379Y55698652D01*
X44735941Y55863399D01*
X47001621Y58129079D01*
X47166368Y58375640D01*
X47224220Y58666480D01*
X47224220Y60377188D01*
X48072282Y61225250D01*
X49557330Y61225250D01*
X49557330Y60365465D01*
X49607113Y60245279D01*
X49699100Y60153293D01*
X49819286Y60103510D01*
X50679070Y60103510D01*
X50760820Y60185260D01*
X50760820Y61307000D01*
X49639080Y61307000D01*
X49557330Y61225250D01*
X48072282Y61225250D01*
X49341567Y62494535D01*
X49557330Y62494535D01*
X49557330Y61634750D01*
X49639080Y61553000D01*
X50760820Y61553000D01*
X50760820Y62674740D01*
X50679070Y62756490D01*
X49819286Y62756490D01*
X49699100Y62706707D01*
X49607113Y62614721D01*
X49557330Y62494535D01*
X49341567Y62494535D01*
X49749691Y62902659D01*
X52710313Y62902659D01*
X52236039Y62585759D01*
X52196830Y62527078D01*
X52160527Y62614721D01*
X52068540Y62706707D01*
X51948354Y62756490D01*
X51088570Y62756490D01*
X51006820Y62674740D01*
X51006820Y61553000D01*
X51026820Y61553000D01*
X51026820Y61307000D01*
X51006820Y61307000D01*
X51006820Y60185260D01*
X51088570Y60103510D01*
X51948354Y60103510D01*
X52068540Y60153293D01*
X52160527Y60245279D01*
X52196830Y60332922D01*
X52236039Y60274241D01*
X52766306Y59919928D01*
X53391798Y59795510D01*
X53455842Y59795510D01*
X54081334Y59919928D01*
X54611601Y60274241D01*
X54693820Y60397290D01*
X54776039Y60274241D01*
X55306306Y59919928D01*
X55931798Y59795510D01*
X55995842Y59795510D01*
X56621334Y59919928D01*
X57151601Y60274241D01*
X57505914Y60804508D01*
X57630332Y61430000D01*
X57505914Y62055492D01*
X57151601Y62585759D01*
X56677327Y62902659D01*
X75107959Y62902659D01*
X76077540Y61933078D01*
X76077540Y59820081D01*
X75565000Y59922032D01*
X75015849Y59812799D01*
X74550302Y59501730D01*
X74295000Y59119644D01*
X74039698Y59501730D01*
X73574151Y59812799D01*
X73025000Y59922032D01*
X72475849Y59812799D01*
X72010302Y59501730D01*
X71755000Y59119644D01*
X71499698Y59501730D01*
X71034151Y59812799D01*
X70485000Y59922032D01*
X69935849Y59812799D01*
X69470302Y59501730D01*
X69215000Y59119644D01*
X68959698Y59501730D01*
X68494151Y59812799D01*
X67945000Y59922032D01*
X67395849Y59812799D01*
X66930302Y59501730D01*
X66675000Y59119644D01*
X66419698Y59501730D01*
X65954151Y59812799D01*
X65405000Y59922032D01*
X64855849Y59812799D01*
X64390302Y59501730D01*
X64135000Y59119644D01*
X63879698Y59501730D01*
X63414151Y59812799D01*
X62865000Y59922032D01*
X62315849Y59812799D01*
X61850302Y59501730D01*
X61595000Y59119644D01*
X61339698Y59501730D01*
X60874151Y59812799D01*
X60325000Y59922032D01*
X59775849Y59812799D01*
X59310302Y59501730D01*
X58999233Y59036183D01*
X58890000Y58487032D01*
X58890000Y58022968D01*
X58999233Y57473817D01*
X59310302Y57008270D01*
X59775849Y56697201D01*
X60325000Y56587968D01*
X60874151Y56697201D01*
X61339698Y57008270D01*
X61595000Y57390356D01*
X61850302Y57008270D01*
X62315849Y56697201D01*
X62865000Y56587968D01*
X63414151Y56697201D01*
X63879698Y57008270D01*
X64135000Y57390356D01*
X64390302Y57008270D01*
X64855849Y56697201D01*
X65403470Y56588272D01*
X53512059Y44696861D01*
X53441853Y44696922D01*
X53098077Y44554877D01*
X52834828Y44292087D01*
X52692182Y43948559D01*
X52691858Y43576593D01*
X52833903Y43232817D01*
X53081790Y42984497D01*
X53040568Y42943347D01*
X52897922Y42599819D01*
X52897598Y42227853D01*
X53039643Y41884077D01*
X53302433Y41620828D01*
X53645961Y41478182D01*
X54017927Y41477858D01*
X54361703Y41619903D01*
X54624952Y41882693D01*
X54767598Y42226221D01*
X54767637Y42270555D01*
X64896842Y52399760D01*
X70825360Y52399760D01*
X71116199Y52457612D01*
X71362761Y52622359D01*
X75367629Y56627227D01*
X75565000Y56587968D01*
X76077540Y56689919D01*
X76077540Y49034642D01*
X72487599Y45444701D01*
X72322852Y45198139D01*
X72265000Y44907300D01*
X72265000Y44431914D01*
X72010302Y44261730D01*
X71755000Y43879644D01*
X71499698Y44261730D01*
X71034151Y44572799D01*
X70485000Y44682032D01*
X69935849Y44572799D01*
X69470302Y44261730D01*
X69215000Y43879644D01*
X68959698Y44261730D01*
X68494151Y44572799D01*
X67945000Y44682032D01*
X67395849Y44572799D01*
X66930302Y44261730D01*
X66675000Y43879644D01*
X66419698Y44261730D01*
X65954151Y44572799D01*
X65405000Y44682032D01*
X64855849Y44572799D01*
X64390302Y44261730D01*
X64135000Y43879644D01*
X63879698Y44261730D01*
X63414151Y44572799D01*
X62865000Y44682032D01*
X62315849Y44572799D01*
X61850302Y44261730D01*
X61595000Y43879644D01*
X61339698Y44261730D01*
X60874151Y44572799D01*
X60325000Y44682032D01*
X59775849Y44572799D01*
X59310302Y44261730D01*
X58999233Y43796183D01*
X58890000Y43247032D01*
X58890000Y42782968D01*
X58999233Y42233817D01*
X59310302Y41768270D01*
X59775849Y41457201D01*
X60325000Y41347968D01*
X60874151Y41457201D01*
X61339698Y41768270D01*
X61595000Y42150356D01*
X61850302Y41768270D01*
X62315849Y41457201D01*
X62865000Y41347968D01*
X63414151Y41457201D01*
X63879698Y41768270D01*
X64135000Y42150356D01*
X64390302Y41768270D01*
X64855849Y41457201D01*
X65405000Y41347968D01*
X65954151Y41457201D01*
X66419698Y41768270D01*
X66675000Y42150356D01*
X66930302Y41768270D01*
X67395849Y41457201D01*
X67943470Y41348272D01*
X67926718Y41331520D01*
X56250840Y41331520D01*
X56008254Y41283266D01*
X55960000Y41273668D01*
X55713439Y41108921D01*
X51363900Y36759382D01*
X51318413Y36759422D01*
X50974637Y36617377D01*
X50711388Y36354587D01*
X50666337Y36246092D01*
X50589406Y36632848D01*
X50264550Y37119029D01*
X49993708Y37300000D01*
X50264550Y37480971D01*
X50589406Y37967152D01*
X50703480Y38540641D01*
X50703480Y38599359D01*
X50589406Y39172848D01*
X50278306Y39638442D01*
X50303797Y39643238D01*
X50519921Y39782310D01*
X50664911Y39994510D01*
X50715920Y40246400D01*
X50715920Y41973600D01*
X50671642Y42208917D01*
X50532570Y42425041D01*
X50320370Y42570031D01*
X50068480Y42621040D01*
X48341280Y42621040D01*
X48105963Y42576762D01*
X47889839Y42437690D01*
X47744849Y42225490D01*
X47736016Y42181869D01*
X47724550Y42199029D01*
X47238369Y42523885D01*
X46664880Y42637959D01*
X46091391Y42523885D01*
X45605210Y42199029D01*
X45394880Y41884248D01*
X45184550Y42199029D01*
X44698369Y42523885D01*
X44124880Y42637959D01*
X43551391Y42523885D01*
X43065210Y42199029D01*
X42740354Y41712848D01*
X42626280Y41139359D01*
X42626280Y41080641D01*
X42740354Y40507152D01*
X43065210Y40020971D01*
X43336052Y39840000D01*
X43065210Y39659029D01*
X42740354Y39172848D01*
X42626280Y38599359D01*
X42626280Y38540641D01*
X42740354Y37967152D01*
X43065210Y37480971D01*
X43336052Y37300000D01*
X43065210Y37119029D01*
X42740354Y36632848D01*
X42626280Y36059359D01*
X42626280Y36000641D01*
X42740354Y35427152D01*
X43065210Y34940971D01*
X43336052Y34760000D01*
X43065210Y34579029D01*
X42740354Y34092848D01*
X42626280Y33519359D01*
X42626280Y33460641D01*
X42740354Y32887152D01*
X43065210Y32400971D01*
X43336052Y32220000D01*
X43065210Y32039029D01*
X42740354Y31552848D01*
X42626280Y30979359D01*
X42626280Y30920641D01*
X42740354Y30347152D01*
X43065210Y29860971D01*
X43336052Y29680000D01*
X43065210Y29499029D01*
X42740354Y29012848D01*
X42626280Y28439359D01*
X42626280Y28380641D01*
X42740354Y27807152D01*
X43065210Y27320971D01*
X43472093Y27049100D01*
X30899100Y27049100D01*
X30608261Y26991248D01*
X30361699Y26826501D01*
X27028356Y23493158D01*
X26699359Y23558600D01*
X26640641Y23558600D01*
X26627036Y23555894D01*
X37611241Y34540099D01*
X37775988Y34786661D01*
X37833840Y35077500D01*
X37833840Y39669820D01*
X37775988Y39960659D01*
X37775988Y39960660D01*
X37611241Y40207221D01*
X35471502Y42346960D01*
X35471542Y42392447D01*
X35329497Y42736223D01*
X35066707Y42999472D01*
X34723179Y43142118D01*
X34351213Y43142442D01*
X34007437Y43000397D01*
X33744188Y42737607D01*
X33601542Y42394079D01*
X33601218Y42022113D01*
X33743263Y41678337D01*
X34006053Y41415088D01*
X34349581Y41272442D01*
X34396457Y41272401D01*
X36313840Y39355018D01*
X36313840Y35392302D01*
X24854979Y23933441D01*
X24690232Y23686879D01*
X24645481Y23461904D01*
X24159359Y23558600D01*
X24100641Y23558600D01*
X23527152Y23444526D01*
X23061558Y23133426D01*
X23056762Y23158917D01*
X22917690Y23375041D01*
X22705490Y23520031D01*
X22453600Y23571040D01*
X20726400Y23571040D01*
X20491083Y23526762D01*
X20274959Y23387690D01*
X20129969Y23175490D01*
X20078960Y22923600D01*
X20078960Y21196400D01*
X20123238Y20961083D01*
X20262310Y20744959D01*
X20474510Y20599969D01*
X20518131Y20591136D01*
X20500971Y20579670D01*
X20300738Y20280000D01*
X14089380Y20280000D01*
X13798541Y20222148D01*
X13551979Y20057401D01*
X7082599Y13588021D01*
X6917852Y13341459D01*
X6860000Y13050620D01*
X6860000Y8617440D01*
X5970000Y8617440D01*
X5734683Y8573162D01*
X5518559Y8434090D01*
X5373569Y8221890D01*
X5322560Y7970000D01*
X5322560Y7705314D01*
X5077204Y7951098D01*
X4586713Y8154768D01*
X4055617Y8155231D01*
X3564771Y7952418D01*
X3188902Y7577204D01*
X2985232Y7086713D01*
X2984769Y6555617D01*
X710000Y6555617D01*
X710000Y12220000D01*
X1372560Y12220000D01*
X1372560Y9220000D01*
X1416838Y8984683D01*
X1555910Y8768559D01*
X1768110Y8623569D01*
X2020000Y8572560D01*
X3520000Y8572560D01*
X3755317Y8616838D01*
X3971441Y8755910D01*
X4116431Y8968110D01*
X4167440Y9220000D01*
X4167440Y11785132D01*
X4584383Y11784769D01*
X5075229Y11987582D01*
X5451098Y12362796D01*
X5654768Y12853287D01*
X5655231Y13384383D01*
X5452418Y13875229D01*
X5077204Y14251098D01*
X4586713Y14454768D01*
X4055617Y14455231D01*
X3564771Y14252418D01*
X3188902Y13877204D01*
X2985232Y13386713D01*
X2984779Y12867440D01*
X2020000Y12867440D01*
X1784683Y12823162D01*
X1568559Y12684090D01*
X1423569Y12471890D01*
X1372560Y12220000D01*
X710000Y12220000D01*
X710000Y19315250D01*
X3753510Y19315250D01*
X3753510Y18455466D01*
X3803293Y18335280D01*
X3895279Y18243293D01*
X4015465Y18193510D01*
X4875250Y18193510D01*
X4957000Y18275260D01*
X4957000Y19397000D01*
X5203000Y19397000D01*
X5203000Y18275260D01*
X5284750Y18193510D01*
X6144535Y18193510D01*
X6264721Y18243293D01*
X6356707Y18335280D01*
X6406490Y18455466D01*
X6406490Y19315250D01*
X6324740Y19397000D01*
X5203000Y19397000D01*
X4957000Y19397000D01*
X3835260Y19397000D01*
X3753510Y19315250D01*
X710000Y19315250D01*
X710000Y22092022D01*
X3445510Y22092022D01*
X3445510Y22027978D01*
X3569928Y21402486D01*
X3924241Y20872219D01*
X3982922Y20833010D01*
X3895279Y20796707D01*
X3803293Y20704720D01*
X3753510Y20584534D01*
X3753510Y19724750D01*
X3835260Y19643000D01*
X4957000Y19643000D01*
X4957000Y19663000D01*
X5203000Y19663000D01*
X5203000Y19643000D01*
X6324740Y19643000D01*
X6406490Y19724750D01*
X6406490Y20584534D01*
X6356707Y20704720D01*
X6264721Y20796707D01*
X6177078Y20833010D01*
X6235759Y20872219D01*
X6590072Y21402486D01*
X6714490Y22027978D01*
X6714490Y22092022D01*
X6590072Y22717514D01*
X6235759Y23247781D01*
X5705492Y23602094D01*
X5080000Y23726512D01*
X4454508Y23602094D01*
X3924241Y23247781D01*
X3569928Y22717514D01*
X3445510Y22092022D01*
X710000Y22092022D01*
X710000Y27220000D01*
X3137679Y27220000D01*
X3262136Y26594313D01*
X3616559Y26063880D01*
X4146992Y25709457D01*
X4772679Y25585000D01*
X5387321Y25585000D01*
X6013008Y25709457D01*
X6543441Y26063880D01*
X6897864Y26594313D01*
X7022321Y27220000D01*
X6897864Y27845687D01*
X6543441Y28376120D01*
X6013008Y28730543D01*
X5387321Y28855000D01*
X4772679Y28855000D01*
X4146992Y28730543D01*
X3616559Y28376120D01*
X3262136Y27845687D01*
X3137679Y27220000D01*
X710000Y27220000D01*
X710000Y32220000D01*
X10396655Y32220000D01*
X10510729Y31646511D01*
X10835585Y31160330D01*
X11150366Y30950000D01*
X10835585Y30739670D01*
X10510729Y30253489D01*
X10396655Y29680000D01*
X10510729Y29106511D01*
X10835585Y28620330D01*
X11321766Y28295474D01*
X11895255Y28181400D01*
X12264745Y28181400D01*
X12838234Y28295474D01*
X13324415Y28620330D01*
X13649271Y29106511D01*
X13763345Y29680000D01*
X13649271Y30253489D01*
X13324415Y30739670D01*
X13009634Y30950000D01*
X13324415Y31160330D01*
X13649271Y31646511D01*
X13763345Y32220000D01*
X13649271Y32793489D01*
X13324415Y33279670D01*
X12838234Y33604526D01*
X12604179Y33651082D01*
X12830211Y33728194D01*
X13179560Y34035508D01*
X13382808Y34453260D01*
X13334407Y34637000D01*
X12203000Y34637000D01*
X12203000Y34617000D01*
X11957000Y34617000D01*
X11957000Y34637000D01*
X10825593Y34637000D01*
X10777192Y34453260D01*
X10980440Y34035508D01*
X11329789Y33728194D01*
X11555821Y33651082D01*
X11321766Y33604526D01*
X10835585Y33279670D01*
X10510729Y32793489D01*
X10396655Y32220000D01*
X710000Y32220000D01*
X710000Y35066740D01*
X10777192Y35066740D01*
X10825593Y34883000D01*
X11957000Y34883000D01*
X11957000Y35870365D01*
X12203000Y35870365D01*
X12203000Y34883000D01*
X13334407Y34883000D01*
X13382808Y35066740D01*
X13179560Y35484492D01*
X12830211Y35791806D01*
X12389850Y35942037D01*
X12203000Y35870365D01*
X11957000Y35870365D01*
X11770150Y35942037D01*
X11329789Y35791806D01*
X10980440Y35484492D01*
X10777192Y35066740D01*
X710000Y35066740D01*
X710000Y37220000D01*
X3137679Y37220000D01*
X3262136Y36594313D01*
X3616559Y36063880D01*
X4146992Y35709457D01*
X4772679Y35585000D01*
X5387321Y35585000D01*
X6013008Y35709457D01*
X6543441Y36063880D01*
X6897864Y36594313D01*
X7022321Y37220000D01*
X6897864Y37845687D01*
X6543441Y38376120D01*
X6013008Y38730543D01*
X5387321Y38855000D01*
X4772679Y38855000D01*
X4146992Y38730543D01*
X3616559Y38376120D01*
X3262136Y37845687D01*
X3137679Y37220000D01*
X710000Y37220000D01*
X710000Y41190000D01*
X3137679Y41190000D01*
X3262136Y40564313D01*
X3616559Y40033880D01*
X4146992Y39679457D01*
X4772679Y39555000D01*
X5387321Y39555000D01*
X6013008Y39679457D01*
X6543441Y40033880D01*
X6897864Y40564313D01*
X7022321Y41190000D01*
X6897864Y41815687D01*
X6543441Y42346120D01*
X6013008Y42700543D01*
X5387321Y42825000D01*
X4772679Y42825000D01*
X4146992Y42700543D01*
X3616559Y42346120D01*
X3262136Y41815687D01*
X3137679Y41190000D01*
X710000Y41190000D01*
X710000Y48730000D01*
X10396655Y48730000D01*
X10510729Y48156511D01*
X10835585Y47670330D01*
X11150366Y47460000D01*
X10835585Y47249670D01*
X10510729Y46763489D01*
X10396655Y46190000D01*
X10510729Y45616511D01*
X10835585Y45130330D01*
X11150366Y44920000D01*
X10835585Y44709670D01*
X10510729Y44223489D01*
X10396655Y43650000D01*
X10510729Y43076511D01*
X10835585Y42590330D01*
X11321766Y42265474D01*
X11340560Y42261736D01*
X11340560Y41783100D01*
X11398412Y41492261D01*
X11563159Y41245699D01*
X17545780Y35263078D01*
X17545780Y33158361D01*
X17500888Y33113547D01*
X17358242Y32770019D01*
X17357918Y32398053D01*
X17499963Y32054277D01*
X17762753Y31791028D01*
X18106281Y31648382D01*
X18478247Y31648058D01*
X18822023Y31790103D01*
X19085272Y32052893D01*
X19227918Y32396421D01*
X19228242Y32768387D01*
X19086197Y33112163D01*
X19065780Y33132616D01*
X19065780Y35514833D01*
X21984838Y35514833D01*
X22126883Y35171057D01*
X22389673Y34907808D01*
X22733201Y34765162D01*
X23105167Y34764838D01*
X23448943Y34906883D01*
X23482118Y34940000D01*
X24205198Y34940000D01*
X24704878Y34440320D01*
X24704838Y34394833D01*
X24846883Y34051057D01*
X25109673Y33787808D01*
X25453201Y33645162D01*
X25825167Y33644838D01*
X26168943Y33786883D01*
X26432192Y34049673D01*
X26574838Y34393201D01*
X26575162Y34765167D01*
X26433117Y35108943D01*
X26170327Y35372192D01*
X25826799Y35514838D01*
X25779923Y35514879D01*
X25057401Y36237401D01*
X24810839Y36402148D01*
X24520000Y36460000D01*
X23482463Y36460000D01*
X23450327Y36492192D01*
X23106799Y36634838D01*
X22734833Y36635162D01*
X22391057Y36493117D01*
X22127808Y36230327D01*
X21985162Y35886799D01*
X21984838Y35514833D01*
X19065780Y35514833D01*
X19065780Y35577880D01*
X19058416Y35614901D01*
X19007928Y35868720D01*
X18843181Y36115281D01*
X16159093Y38799369D01*
X22152481Y38799369D01*
X22309718Y38418825D01*
X22600614Y38127421D01*
X22980883Y37969520D01*
X23392631Y37969161D01*
X23773175Y38126398D01*
X23802690Y38155862D01*
X27379853Y34578699D01*
X27379801Y34519469D01*
X27537038Y34138925D01*
X27827934Y33847521D01*
X28208203Y33689620D01*
X28619951Y33689261D01*
X29000495Y33846498D01*
X29291899Y34137394D01*
X29449800Y34517663D01*
X29450159Y34929411D01*
X29292922Y35309955D01*
X29002026Y35601359D01*
X28621757Y35759260D01*
X28560975Y35759313D01*
X24725514Y39594774D01*
X24719249Y39598960D01*
X24454621Y39775779D01*
X24135080Y39839340D01*
X23816552Y39839340D01*
X23774706Y39881259D01*
X23394437Y40039160D01*
X22982689Y40039519D01*
X22602145Y39882282D01*
X22310741Y39591386D01*
X22152840Y39211117D01*
X22152481Y38799369D01*
X16159093Y38799369D01*
X12860560Y42097902D01*
X12860560Y42280392D01*
X13324415Y42590330D01*
X13649271Y43076511D01*
X13763345Y43650000D01*
X13649271Y44223489D01*
X13324415Y44709670D01*
X13009634Y44920000D01*
X13324415Y45130330D01*
X13649271Y45616511D01*
X13763345Y46190000D01*
X13649271Y46763489D01*
X13324415Y47249670D01*
X13009634Y47460000D01*
X13324415Y47670330D01*
X13649271Y48156511D01*
X13763345Y48730000D01*
X13649271Y49303489D01*
X13324415Y49789670D01*
X12838234Y50114526D01*
X12264745Y50228600D01*
X11895255Y50228600D01*
X11321766Y50114526D01*
X10835585Y49789670D01*
X10510729Y49303489D01*
X10396655Y48730000D01*
X710000Y48730000D01*
X710000Y51190000D01*
X3137679Y51190000D01*
X3262136Y50564313D01*
X3616559Y50033880D01*
X4146992Y49679457D01*
X4772679Y49555000D01*
X5387321Y49555000D01*
X6013008Y49679457D01*
X6543441Y50033880D01*
X6897864Y50564313D01*
X7022321Y51190000D01*
X6897864Y51815687D01*
X6714745Y52089745D01*
X20726400Y52089745D01*
X20726400Y51720255D01*
X20840474Y51146766D01*
X21165330Y50660585D01*
X21651511Y50335729D01*
X22225000Y50221655D01*
X22798489Y50335729D01*
X23122084Y50551949D01*
X53737381Y50551949D01*
X53894618Y50171405D01*
X54185514Y49880001D01*
X54565783Y49722100D01*
X54977531Y49721741D01*
X55358075Y49878978D01*
X55649479Y50169874D01*
X55712613Y50321919D01*
X56158079Y50321919D01*
X56477620Y50385480D01*
X56748513Y50566485D01*
X57911248Y51729220D01*
X57994595Y51763658D01*
X58285999Y52054554D01*
X58443900Y52434823D01*
X58444259Y52846571D01*
X58287022Y53227115D01*
X57996126Y53518519D01*
X57615857Y53676420D01*
X57204109Y53676779D01*
X56823565Y53519542D01*
X56532161Y53228646D01*
X56374260Y52848377D01*
X56374003Y52553711D01*
X55812211Y51991919D01*
X55172559Y51991919D01*
X54853018Y51928358D01*
X54684394Y51815687D01*
X54648986Y51792028D01*
X54567589Y51792099D01*
X54187045Y51634862D01*
X53895641Y51343966D01*
X53737740Y50963697D01*
X53737381Y50551949D01*
X23122084Y50551949D01*
X23284670Y50660585D01*
X23609526Y51146766D01*
X23723600Y51720255D01*
X23723600Y52089745D01*
X23609526Y52663234D01*
X23284670Y53149415D01*
X22798489Y53474271D01*
X22225000Y53588345D01*
X21651511Y53474271D01*
X21165330Y53149415D01*
X20840474Y52663234D01*
X20726400Y52089745D01*
X6714745Y52089745D01*
X6543441Y52346120D01*
X6013008Y52700543D01*
X5387321Y52825000D01*
X4772679Y52825000D01*
X4146992Y52700543D01*
X3616559Y52346120D01*
X3262136Y51815687D01*
X3137679Y51190000D01*
X710000Y51190000D01*
X710000Y57169745D01*
X18186400Y57169745D01*
X18186400Y56800255D01*
X18300474Y56226766D01*
X18625330Y55740585D01*
X19111511Y55415729D01*
X19685000Y55301655D01*
X20258489Y55415729D01*
X20744670Y55740585D01*
X21069526Y56226766D01*
X21183600Y56800255D01*
X21183600Y57169745D01*
X23266400Y57169745D01*
X23266400Y56800255D01*
X23380474Y56226766D01*
X23705330Y55740585D01*
X24191511Y55415729D01*
X24765000Y55301655D01*
X25338489Y55415729D01*
X25824670Y55740585D01*
X26149526Y56226766D01*
X26263600Y56800255D01*
X26263600Y57169745D01*
X26149526Y57743234D01*
X25824670Y58229415D01*
X25338489Y58554271D01*
X24765000Y58668345D01*
X24191511Y58554271D01*
X23705330Y58229415D01*
X23380474Y57743234D01*
X23266400Y57169745D01*
X21183600Y57169745D01*
X21069526Y57743234D01*
X20744670Y58229415D01*
X20258489Y58554271D01*
X19685000Y58668345D01*
X19111511Y58554271D01*
X18625330Y58229415D01*
X18300474Y57743234D01*
X18186400Y57169745D01*
X710000Y57169745D01*
X710000Y59905519D01*
X769197Y59905519D01*
X964415Y59433057D01*
X1325575Y59071265D01*
X1797696Y58875223D01*
X2308901Y58874777D01*
X2781363Y59069995D01*
X3143155Y59431155D01*
X3339197Y59903276D01*
X3339198Y59905519D01*
X7069197Y59905519D01*
X7264415Y59433057D01*
X7625575Y59071265D01*
X8097696Y58875223D01*
X8608901Y58874777D01*
X9081363Y59069995D01*
X9443155Y59431155D01*
X9639197Y59903276D01*
X9639643Y60414481D01*
X9444425Y60886943D01*
X9083265Y61248735D01*
X8611144Y61444777D01*
X8099939Y61445223D01*
X7627477Y61250005D01*
X7265685Y60888845D01*
X7069643Y60416724D01*
X7069197Y59905519D01*
X3339198Y59905519D01*
X3339643Y60414481D01*
X3144425Y60886943D01*
X2783265Y61248735D01*
X2311144Y61444777D01*
X1799939Y61445223D01*
X1327477Y61250005D01*
X965685Y60888845D01*
X769643Y60416724D01*
X769197Y59905519D01*
X710000Y59905519D01*
X710000Y62822068D01*
X16382538Y62822068D01*
X16787709Y61841479D01*
X17537293Y61090585D01*
X18517173Y60683704D01*
X19578172Y60682778D01*
X20558761Y61087949D01*
X21309655Y61837533D01*
X21716536Y62817413D01*
X21717462Y63878412D01*
X21455741Y64511827D01*
X28354780Y64511827D01*
X28354780Y63428173D01*
X28479237Y62802486D01*
X28833660Y62272053D01*
X29364093Y61917630D01*
X29989780Y61793173D01*
X30615467Y61917630D01*
X31145900Y62272053D01*
X31500323Y62802486D01*
X31624780Y63428173D01*
X31624780Y63847000D01*
X33742780Y63847000D01*
X33742780Y63347000D01*
X33890862Y62848542D01*
X34218423Y62444695D01*
X34675596Y62196941D01*
X34741600Y62184222D01*
X34946780Y62230840D01*
X34946780Y63847000D01*
X35192780Y63847000D01*
X35192780Y62230840D01*
X35397960Y62184222D01*
X35463964Y62196941D01*
X35921137Y62444695D01*
X36248698Y62848542D01*
X36396780Y63347000D01*
X36396780Y63847000D01*
X35192780Y63847000D01*
X34946780Y63847000D01*
X33742780Y63847000D01*
X31624780Y63847000D01*
X31624780Y64511827D01*
X31608634Y64593000D01*
X33742780Y64593000D01*
X33742780Y64093000D01*
X34946780Y64093000D01*
X34946780Y65709160D01*
X35192780Y65709160D01*
X35192780Y64093000D01*
X36396780Y64093000D01*
X36396780Y64511827D01*
X38766240Y64511827D01*
X38766240Y63428173D01*
X38890697Y62802486D01*
X39245120Y62272053D01*
X39775553Y61917630D01*
X40401240Y61793173D01*
X41026927Y61917630D01*
X41557360Y62272053D01*
X41911783Y62802486D01*
X42036240Y63428173D01*
X42036240Y63847000D01*
X44154240Y63847000D01*
X44154240Y63347000D01*
X44302322Y62848542D01*
X44629883Y62444695D01*
X45087056Y62196941D01*
X45153060Y62184222D01*
X45358240Y62230840D01*
X45358240Y63847000D01*
X45604240Y63847000D01*
X45604240Y62230840D01*
X45809420Y62184222D01*
X45875424Y62196941D01*
X46332597Y62444695D01*
X46660158Y62848542D01*
X46808240Y63347000D01*
X46808240Y63847000D01*
X45604240Y63847000D01*
X45358240Y63847000D01*
X44154240Y63847000D01*
X42036240Y63847000D01*
X42036240Y64511827D01*
X42020094Y64593000D01*
X44154240Y64593000D01*
X44154240Y64093000D01*
X45358240Y64093000D01*
X45358240Y65709160D01*
X45604240Y65709160D01*
X45604240Y64093000D01*
X46808240Y64093000D01*
X46808240Y64593000D01*
X46660158Y65091458D01*
X46332597Y65495305D01*
X45875424Y65743059D01*
X45809420Y65755778D01*
X45604240Y65709160D01*
X45358240Y65709160D01*
X45153060Y65755778D01*
X45087056Y65743059D01*
X44629883Y65495305D01*
X44302322Y65091458D01*
X44154240Y64593000D01*
X42020094Y64593000D01*
X41911783Y65137514D01*
X41557360Y65667947D01*
X41026927Y66022370D01*
X40401240Y66146827D01*
X39775553Y66022370D01*
X39245120Y65667947D01*
X38890697Y65137514D01*
X38766240Y64511827D01*
X36396780Y64511827D01*
X36396780Y64593000D01*
X36248698Y65091458D01*
X35921137Y65495305D01*
X35463964Y65743059D01*
X35397960Y65755778D01*
X35192780Y65709160D01*
X34946780Y65709160D01*
X34741600Y65755778D01*
X34675596Y65743059D01*
X34218423Y65495305D01*
X33890862Y65091458D01*
X33742780Y64593000D01*
X31608634Y64593000D01*
X31500323Y65137514D01*
X31145900Y65667947D01*
X30615467Y66022370D01*
X29989780Y66146827D01*
X29364093Y66022370D01*
X28833660Y65667947D01*
X28479237Y65137514D01*
X28354780Y64511827D01*
X21455741Y64511827D01*
X21312291Y64859001D01*
X20562707Y65609895D01*
X19582827Y66016776D01*
X18521828Y66017702D01*
X17541239Y65612531D01*
X16790345Y64862947D01*
X16383464Y63883067D01*
X16382538Y62822068D01*
X710000Y62822068D01*
X710000Y66290000D01*
X89290000Y66290000D01*
X89290000Y59486312D01*
X89290000Y59486312D01*
G37*
X89290000Y59486312D02*
X89279698Y59501730D01*
X88814151Y59812799D01*
X88265000Y59922032D01*
X87715849Y59812799D01*
X87250302Y59501730D01*
X86995000Y59119644D01*
X86739698Y59501730D01*
X86274151Y59812799D01*
X85725000Y59922032D01*
X85175849Y59812799D01*
X84710302Y59501730D01*
X84399233Y59036183D01*
X84307984Y58577443D01*
X84189727Y58980389D01*
X83912189Y59324889D01*
X83523943Y59536956D01*
X83481734Y59542234D01*
X83308000Y59492988D01*
X83308000Y58378000D01*
X83328000Y58378000D01*
X83328000Y58132000D01*
X83308000Y58132000D01*
X83308000Y57017012D01*
X83481734Y56967766D01*
X83523943Y56973044D01*
X83912189Y57185111D01*
X84189727Y57529611D01*
X84307984Y57932557D01*
X84399233Y57473817D01*
X84710302Y57008270D01*
X85175849Y56697201D01*
X85725000Y56587968D01*
X86274151Y56697201D01*
X86739698Y57008270D01*
X86995000Y57390356D01*
X87250302Y57008270D01*
X87715849Y56697201D01*
X88265000Y56587968D01*
X88814151Y56697201D01*
X89279698Y57008270D01*
X89290000Y57023688D01*
X89290000Y44246312D01*
X89279698Y44261730D01*
X88814151Y44572799D01*
X88265000Y44682032D01*
X87715849Y44572799D01*
X87250302Y44261730D01*
X86939233Y43796183D01*
X86847984Y43337443D01*
X86729727Y43740389D01*
X86452189Y44084889D01*
X86063943Y44296956D01*
X86021734Y44302234D01*
X85848000Y44252988D01*
X85848000Y43138000D01*
X85868000Y43138000D01*
X85868000Y42892000D01*
X85848000Y42892000D01*
X85848000Y41777012D01*
X86021734Y41727766D01*
X86063943Y41733044D01*
X86452189Y41945111D01*
X86729727Y42289611D01*
X86847984Y42692557D01*
X86939233Y42233817D01*
X87250302Y41768270D01*
X87715849Y41457201D01*
X88265000Y41347968D01*
X88814151Y41457201D01*
X89279698Y41768270D01*
X89290000Y41783688D01*
X89290000Y36477125D01*
X89029845Y36737735D01*
X88557724Y36933777D01*
X88046519Y36934223D01*
X87574057Y36739005D01*
X87212265Y36377845D01*
X87016223Y35905724D01*
X87015777Y35394519D01*
X87210995Y34922057D01*
X87572155Y34560265D01*
X88044276Y34364223D01*
X88555481Y34363777D01*
X89027943Y34558995D01*
X89290000Y34820594D01*
X89290000Y8550878D01*
X89214120Y8664441D01*
X88683687Y9018864D01*
X88058000Y9143321D01*
X87432313Y9018864D01*
X86901880Y8664441D01*
X86547457Y8134008D01*
X86423000Y7508321D01*
X86423000Y6893679D01*
X86547457Y6267992D01*
X86901880Y5737559D01*
X87432313Y5383136D01*
X88058000Y5258679D01*
X88683687Y5383136D01*
X89214120Y5737559D01*
X89290000Y5851122D01*
X89290000Y710000D01*
X710000Y710000D01*
X710000Y2555617D01*
X2984769Y2555617D01*
X3187582Y2064771D01*
X3562796Y1688902D01*
X4053287Y1485232D01*
X4584383Y1484769D01*
X5075229Y1687582D01*
X5451098Y2062796D01*
X5654768Y2553287D01*
X5654770Y2555617D01*
X9584769Y2555617D01*
X9787582Y2064771D01*
X10162796Y1688902D01*
X10653287Y1485232D01*
X11184383Y1484769D01*
X11675229Y1687582D01*
X12051098Y2062796D01*
X12254768Y2553287D01*
X12255231Y3084383D01*
X12052418Y3575229D01*
X11677204Y3951098D01*
X11186713Y4154768D01*
X10655617Y4155231D01*
X10164771Y3952418D01*
X9788902Y3577204D01*
X9585232Y3086713D01*
X9584769Y2555617D01*
X5654770Y2555617D01*
X5655231Y3084383D01*
X5452418Y3575229D01*
X5077204Y3951098D01*
X4586713Y4154768D01*
X4055617Y4155231D01*
X3564771Y3952418D01*
X3188902Y3577204D01*
X2985232Y3086713D01*
X2984769Y2555617D01*
X710000Y2555617D01*
X710000Y6555617D01*
X2984769Y6555617D01*
X3187582Y6064771D01*
X3562796Y5688902D01*
X4053287Y5485232D01*
X4584383Y5484769D01*
X5075229Y5687582D01*
X5322560Y5934482D01*
X5322560Y5670000D01*
X5366838Y5434683D01*
X5505910Y5218559D01*
X5718110Y5073569D01*
X5970000Y5022560D01*
X9270000Y5022560D01*
X9505317Y5066838D01*
X9619013Y5140000D01*
X15702560Y5140000D01*
X15702560Y2640000D01*
X15746838Y2404683D01*
X15885910Y2188559D01*
X16098110Y2043569D01*
X16350000Y1992560D01*
X17850000Y1992560D01*
X18083260Y2036451D01*
X18300000Y1992560D01*
X19800000Y1992560D01*
X20033260Y2036451D01*
X20250000Y1992560D01*
X21750000Y1992560D01*
X21985317Y2036838D01*
X22201441Y2175910D01*
X22346431Y2388110D01*
X22380352Y2555617D01*
X25969769Y2555617D01*
X26172582Y2064771D01*
X26547796Y1688902D01*
X27038287Y1485232D01*
X27569383Y1484769D01*
X28060229Y1687582D01*
X28436098Y2062796D01*
X28639768Y2553287D01*
X28639770Y2555617D01*
X32569769Y2555617D01*
X32772582Y2064771D01*
X33147796Y1688902D01*
X33638287Y1485232D01*
X34169383Y1484769D01*
X34660229Y1687582D01*
X35036098Y2062796D01*
X35239768Y2553287D01*
X35240231Y3084383D01*
X35037418Y3575229D01*
X34662204Y3951098D01*
X34171713Y4154768D01*
X33640617Y4155231D01*
X33149771Y3952418D01*
X32773902Y3577204D01*
X32570232Y3086713D01*
X32569769Y2555617D01*
X28639770Y2555617D01*
X28640231Y3084383D01*
X28437418Y3575229D01*
X28062204Y3951098D01*
X27571713Y4154768D01*
X27040617Y4155231D01*
X26549771Y3952418D01*
X26173902Y3577204D01*
X25970232Y3086713D01*
X25969769Y2555617D01*
X22380352Y2555617D01*
X22397440Y2640000D01*
X22397440Y3587240D01*
X23214088Y3587240D01*
X23255934Y3545321D01*
X23636203Y3387420D01*
X24047951Y3387061D01*
X24428495Y3544298D01*
X24719899Y3835194D01*
X24877800Y4215463D01*
X24878159Y4627211D01*
X24720922Y5007755D01*
X24430026Y5299159D01*
X24049757Y5457060D01*
X23638009Y5457419D01*
X23257465Y5300182D01*
X23214448Y5257240D01*
X22375380Y5257240D01*
X22353162Y5375317D01*
X22214090Y5591441D01*
X22001890Y5736431D01*
X21750000Y5787440D01*
X20250000Y5787440D01*
X20016740Y5743549D01*
X19800000Y5787440D01*
X18300000Y5787440D01*
X18066740Y5743549D01*
X17850000Y5787440D01*
X16350000Y5787440D01*
X16114683Y5743162D01*
X15898559Y5604090D01*
X15753569Y5391890D01*
X15702560Y5140000D01*
X9619013Y5140000D01*
X9721441Y5205910D01*
X9866431Y5418110D01*
X9917440Y5670000D01*
X9917440Y5934686D01*
X10162796Y5688902D01*
X10653287Y5485232D01*
X11184383Y5484769D01*
X11675229Y5687582D01*
X12051098Y6062796D01*
X12254768Y6553287D01*
X12255231Y7084383D01*
X12052418Y7575229D01*
X11677204Y7951098D01*
X11186713Y8154768D01*
X10655617Y8155231D01*
X10164771Y7952418D01*
X9917440Y7705518D01*
X9917440Y7970000D01*
X9873162Y8205317D01*
X9734090Y8421441D01*
X9521890Y8566431D01*
X9270000Y8617440D01*
X8380000Y8617440D01*
X8380000Y10515250D01*
X11393000Y10515250D01*
X11393000Y9154956D01*
X11442783Y9034770D01*
X11534769Y8942783D01*
X11654955Y8893000D01*
X12265250Y8893000D01*
X12347000Y8974750D01*
X12347000Y10597000D01*
X12593000Y10597000D01*
X12593000Y8974750D01*
X12674750Y8893000D01*
X13285045Y8893000D01*
X13405231Y8942783D01*
X13497217Y9034770D01*
X13547000Y9154956D01*
X13547000Y9340000D01*
X15702560Y9340000D01*
X15702560Y6840000D01*
X15746838Y6604683D01*
X15885910Y6388559D01*
X16098110Y6243569D01*
X16350000Y6192560D01*
X17850000Y6192560D01*
X18083260Y6236451D01*
X18300000Y6192560D01*
X19800000Y6192560D01*
X20033260Y6236451D01*
X20250000Y6192560D01*
X21750000Y6192560D01*
X21985317Y6236838D01*
X22201441Y6375910D01*
X22346431Y6588110D01*
X22397440Y6840000D01*
X22397440Y9340000D01*
X22353162Y9575317D01*
X22214090Y9791441D01*
X22001890Y9936431D01*
X21810000Y9975290D01*
X21810000Y10156608D01*
X22620723Y10967331D01*
X22921583Y11091643D01*
X23184832Y11354433D01*
X23327478Y11697961D01*
X23327802Y12069927D01*
X23185757Y12413703D01*
X22922967Y12676952D01*
X22579439Y12819598D01*
X22207473Y12819922D01*
X21863697Y12677877D01*
X21600448Y12415087D01*
X21474756Y12112389D01*
X20427244Y11064876D01*
X20251658Y10802094D01*
X20190000Y10492120D01*
X20190000Y9976150D01*
X20016740Y9943549D01*
X19800000Y9987440D01*
X18300000Y9987440D01*
X18066740Y9943549D01*
X17850000Y9987440D01*
X16350000Y9987440D01*
X16114683Y9943162D01*
X15898559Y9804090D01*
X15753569Y9591890D01*
X15702560Y9340000D01*
X13547000Y9340000D01*
X13547000Y10515250D01*
X13465250Y10597000D01*
X12593000Y10597000D01*
X12347000Y10597000D01*
X11474750Y10597000D01*
X11393000Y10515250D01*
X8380000Y10515250D01*
X8380000Y12735818D01*
X8499799Y12855617D01*
X9584769Y12855617D01*
X9787582Y12364771D01*
X10162796Y11988902D01*
X10653287Y11785232D01*
X11184383Y11784769D01*
X11393000Y11870968D01*
X11393000Y10924750D01*
X11474750Y10843000D01*
X12347000Y10843000D01*
X12347000Y12465250D01*
X12593000Y12465250D01*
X12593000Y10843000D01*
X13465250Y10843000D01*
X13547000Y10924750D01*
X13547000Y12285044D01*
X13497217Y12405230D01*
X13405231Y12497217D01*
X13285045Y12547000D01*
X12674750Y12547000D01*
X12593000Y12465250D01*
X12347000Y12465250D01*
X12265250Y12547000D01*
X12127586Y12547000D01*
X12254768Y12853287D01*
X12255231Y13384383D01*
X12052418Y13875229D01*
X11677204Y14251098D01*
X11186713Y14454768D01*
X10655617Y14455231D01*
X10164771Y14252418D01*
X9788902Y13877204D01*
X9585232Y13386713D01*
X9584769Y12855617D01*
X8499799Y12855617D01*
X14404182Y18760000D01*
X20300738Y18760000D01*
X20500971Y18460330D01*
X20987152Y18135474D01*
X21560641Y18021400D01*
X21619359Y18021400D01*
X22192848Y18135474D01*
X22679029Y18460330D01*
X22860000Y18731172D01*
X23040971Y18460330D01*
X23378594Y18234738D01*
X23427852Y17987101D01*
X23592599Y17740539D01*
X26925480Y14407658D01*
X26549771Y14252418D01*
X26173902Y13877204D01*
X25970232Y13386713D01*
X25969779Y12867440D01*
X25005000Y12867440D01*
X24769683Y12823162D01*
X24553559Y12684090D01*
X24408569Y12471890D01*
X24357560Y12220000D01*
X24357560Y9220000D01*
X24401838Y8984683D01*
X24540910Y8768559D01*
X24753110Y8623569D01*
X25005000Y8572560D01*
X26505000Y8572560D01*
X26740317Y8616838D01*
X26956441Y8755910D01*
X27101431Y8968110D01*
X27152440Y9220000D01*
X27152440Y11785132D01*
X27569383Y11784769D01*
X28060229Y11987582D01*
X28436098Y12362796D01*
X28592848Y12740290D01*
X29845000Y11488138D01*
X29845000Y8617440D01*
X28955000Y8617440D01*
X28719683Y8573162D01*
X28503559Y8434090D01*
X28358569Y8221890D01*
X28307560Y7970000D01*
X28307560Y7705314D01*
X28062204Y7951098D01*
X27571713Y8154768D01*
X27040617Y8155231D01*
X26549771Y7952418D01*
X26173902Y7577204D01*
X25970232Y7086713D01*
X25969769Y6555617D01*
X26172582Y6064771D01*
X26547796Y5688902D01*
X27038287Y5485232D01*
X27569383Y5484769D01*
X28060229Y5687582D01*
X28307560Y5934482D01*
X28307560Y5670000D01*
X28351838Y5434683D01*
X28490910Y5218559D01*
X28703110Y5073569D01*
X28955000Y5022560D01*
X32255000Y5022560D01*
X32490317Y5066838D01*
X32706441Y5205910D01*
X32851431Y5418110D01*
X32902440Y5670000D01*
X32902440Y5934686D01*
X33147796Y5688902D01*
X33638287Y5485232D01*
X34169383Y5484769D01*
X34660229Y5687582D01*
X35036098Y6062796D01*
X35239768Y6553287D01*
X35239876Y6677462D01*
X37526187Y4391151D01*
X37477960Y4153000D01*
X37477960Y2121000D01*
X37522238Y1885683D01*
X37661310Y1669559D01*
X37873510Y1524569D01*
X38125400Y1473560D01*
X39852600Y1473560D01*
X40087917Y1517838D01*
X40304041Y1656910D01*
X40449031Y1869110D01*
X40457400Y1910439D01*
X40469330Y1892585D01*
X40955511Y1567729D01*
X41529000Y1453655D01*
X42102489Y1567729D01*
X42588670Y1892585D01*
X42799000Y2207366D01*
X43009330Y1892585D01*
X43495511Y1567729D01*
X44069000Y1453655D01*
X44642489Y1567729D01*
X45128670Y1892585D01*
X45339000Y2207366D01*
X45549330Y1892585D01*
X46035511Y1567729D01*
X46609000Y1453655D01*
X47182489Y1567729D01*
X47668670Y1892585D01*
X47879000Y2207366D01*
X48089330Y1892585D01*
X48575511Y1567729D01*
X49149000Y1453655D01*
X49722489Y1567729D01*
X50208670Y1892585D01*
X50533526Y2378766D01*
X50647600Y2952255D01*
X50647600Y3321745D01*
X50533526Y3895234D01*
X50208670Y4381415D01*
X49926780Y4569768D01*
X49926780Y7635321D01*
X51531000Y7635321D01*
X51531000Y7020679D01*
X51655457Y6394992D01*
X52009880Y5864559D01*
X52540313Y5510136D01*
X53166000Y5385679D01*
X53791687Y5510136D01*
X54322120Y5864559D01*
X54676543Y6394992D01*
X54801000Y7020679D01*
X54801000Y7635321D01*
X54676543Y8261008D01*
X54322120Y8791441D01*
X53791687Y9145864D01*
X53166000Y9270321D01*
X52540313Y9145864D01*
X52009880Y8791441D01*
X51655457Y8261008D01*
X51531000Y7635321D01*
X49926780Y7635321D01*
X49926780Y15702380D01*
X49868928Y15993219D01*
X49704181Y16239781D01*
X47608681Y18335281D01*
X47446881Y18443392D01*
X47713639Y18574536D01*
X48020369Y18923430D01*
X48140408Y19213260D01*
X48379592Y19213260D01*
X48499631Y18923430D01*
X48806361Y18574536D01*
X49223258Y18369580D01*
X49407000Y18417509D01*
X49407000Y19397000D01*
X48427993Y19397000D01*
X48379592Y19213260D01*
X48140408Y19213260D01*
X48092007Y19397000D01*
X47113000Y19397000D01*
X47113000Y19377000D01*
X46867000Y19377000D01*
X46867000Y19397000D01*
X46847000Y19397000D01*
X46847000Y19643000D01*
X46867000Y19643000D01*
X46867000Y20622491D01*
X47113000Y20622491D01*
X47113000Y19643000D01*
X48092007Y19643000D01*
X48140408Y19826740D01*
X48379592Y19826740D01*
X48427993Y19643000D01*
X49407000Y19643000D01*
X49407000Y20622491D01*
X49223258Y20670420D01*
X48806361Y20465464D01*
X48499631Y20116570D01*
X48379592Y19826740D01*
X48140408Y19826740D01*
X48020369Y20116570D01*
X47713639Y20465464D01*
X47296742Y20670420D01*
X47113000Y20622491D01*
X46867000Y20622491D01*
X46683258Y20670420D01*
X46266361Y20465464D01*
X45959631Y20116570D01*
X45891848Y19952910D01*
X45863885Y20093489D01*
X45539029Y20579670D01*
X45224248Y20790000D01*
X45539029Y21000330D01*
X45863885Y21486511D01*
X45891848Y21627090D01*
X45959631Y21463430D01*
X46266361Y21114536D01*
X46683258Y20909580D01*
X46867000Y20957509D01*
X46867000Y21937000D01*
X47113000Y21937000D01*
X47113000Y20957509D01*
X47296742Y20909580D01*
X47713639Y21114536D01*
X48020369Y21463430D01*
X48140408Y21753260D01*
X48379592Y21753260D01*
X48499631Y21463430D01*
X48806361Y21114536D01*
X49223258Y20909580D01*
X49407000Y20957509D01*
X49407000Y21937000D01*
X48427993Y21937000D01*
X48379592Y21753260D01*
X48140408Y21753260D01*
X48092007Y21937000D01*
X47113000Y21937000D01*
X46867000Y21937000D01*
X46847000Y21937000D01*
X46847000Y22183000D01*
X46867000Y22183000D01*
X46867000Y22203000D01*
X47113000Y22203000D01*
X47113000Y22183000D01*
X48092007Y22183000D01*
X48140408Y22366740D01*
X48020369Y22656570D01*
X47713639Y23005464D01*
X47296742Y23210420D01*
X47113002Y23162492D01*
X47113002Y23235480D01*
X49406998Y23235480D01*
X49406998Y23162492D01*
X49223258Y23210420D01*
X48806361Y23005464D01*
X48499631Y22656570D01*
X48379592Y22366740D01*
X48427993Y22183000D01*
X49407000Y22183000D01*
X49407000Y22203000D01*
X49653000Y22203000D01*
X49653000Y22183000D01*
X49673000Y22183000D01*
X49673000Y21937000D01*
X49653000Y21937000D01*
X49653000Y20957509D01*
X49836742Y20909580D01*
X50253639Y21114536D01*
X50421000Y21304903D01*
X50421000Y20275097D01*
X50253639Y20465464D01*
X49836742Y20670420D01*
X49653000Y20622491D01*
X49653000Y19643000D01*
X49673000Y19643000D01*
X49673000Y19397000D01*
X49653000Y19397000D01*
X49653000Y18417509D01*
X49836742Y18369580D01*
X50253639Y18574536D01*
X50421000Y18764903D01*
X50421000Y14122500D01*
X50478852Y13831661D01*
X50643599Y13585099D01*
X57035298Y7193400D01*
X57035258Y7147913D01*
X57177303Y6804137D01*
X57440093Y6540888D01*
X57783621Y6398242D01*
X58155587Y6397918D01*
X58499363Y6539963D01*
X58762612Y6802753D01*
X58905258Y7146281D01*
X58905582Y7518247D01*
X58857209Y7635321D01*
X61531000Y7635321D01*
X61531000Y7020679D01*
X61655457Y6394992D01*
X62009880Y5864559D01*
X62540313Y5510136D01*
X63166000Y5385679D01*
X63791687Y5510136D01*
X64322120Y5864559D01*
X64676543Y6394992D01*
X64801000Y7020679D01*
X64801000Y7635321D01*
X64676543Y8261008D01*
X64322120Y8791441D01*
X63791687Y9145864D01*
X63166000Y9270321D01*
X62540313Y9145864D01*
X62009880Y8791441D01*
X61655457Y8261008D01*
X61531000Y7635321D01*
X58857209Y7635321D01*
X58763537Y7862023D01*
X58500747Y8125272D01*
X58157219Y8267918D01*
X58110343Y8267959D01*
X56452422Y9925880D01*
X65591915Y9925880D01*
X65351041Y9685426D01*
X65193140Y9305157D01*
X65192781Y8893409D01*
X65350018Y8512865D01*
X65392960Y8469848D01*
X65392960Y7372040D01*
X65456521Y7052499D01*
X65611872Y6820000D01*
X65637526Y6781606D01*
X67902560Y4516572D01*
X67902560Y3740344D01*
X67864990Y3551468D01*
X67902560Y3362592D01*
X67902560Y2550000D01*
X67946838Y2314683D01*
X68085910Y2098559D01*
X68298110Y1953569D01*
X68550000Y1902560D01*
X70050000Y1902560D01*
X70283260Y1946451D01*
X70500000Y1902560D01*
X72000000Y1902560D01*
X72233260Y1946451D01*
X72450000Y1902560D01*
X73950000Y1902560D01*
X74185317Y1946838D01*
X74401441Y2085910D01*
X74546431Y2298110D01*
X74597440Y2550000D01*
X74597440Y5050000D01*
X74553162Y5285317D01*
X74414090Y5501441D01*
X74201890Y5646431D01*
X73950000Y5697440D01*
X72450000Y5697440D01*
X72216740Y5653549D01*
X72000000Y5697440D01*
X70500000Y5697440D01*
X70266740Y5653549D01*
X70050000Y5697440D01*
X69083428Y5697440D01*
X68678308Y6102560D01*
X70050000Y6102560D01*
X70283260Y6146451D01*
X70500000Y6102560D01*
X72000000Y6102560D01*
X72233260Y6146451D01*
X72450000Y6102560D01*
X73866518Y6102560D01*
X74561298Y5407780D01*
X74561258Y5362293D01*
X74703303Y5018517D01*
X74966093Y4755268D01*
X75309621Y4612622D01*
X75681587Y4612298D01*
X76025363Y4754343D01*
X76288612Y5017133D01*
X76431258Y5360661D01*
X76431582Y5732627D01*
X76289537Y6076403D01*
X76026747Y6339652D01*
X75683219Y6482298D01*
X75636343Y6482339D01*
X74610361Y7508321D01*
X76423000Y7508321D01*
X76423000Y6893679D01*
X76547457Y6267992D01*
X76901880Y5737559D01*
X77432313Y5383136D01*
X78058000Y5258679D01*
X78683687Y5383136D01*
X79214120Y5737559D01*
X79568543Y6267992D01*
X79693000Y6893679D01*
X79693000Y7508321D01*
X79568543Y8134008D01*
X79214120Y8664441D01*
X78683687Y9018864D01*
X78058000Y9143321D01*
X77432313Y9018864D01*
X76901880Y8664441D01*
X76547457Y8134008D01*
X76423000Y7508321D01*
X74610361Y7508321D01*
X74597440Y7521242D01*
X74597440Y9250000D01*
X74553162Y9485317D01*
X74414090Y9701441D01*
X74201890Y9846431D01*
X73950000Y9897440D01*
X72450000Y9897440D01*
X72216740Y9853549D01*
X72000000Y9897440D01*
X70500000Y9897440D01*
X70266740Y9853549D01*
X70050000Y9897440D01*
X68550000Y9897440D01*
X68314683Y9853162D01*
X68098559Y9714090D01*
X67953569Y9501890D01*
X67902560Y9250000D01*
X67902560Y6878308D01*
X67062960Y7717908D01*
X67062960Y8469488D01*
X67104879Y8511334D01*
X67262780Y8891603D01*
X67263139Y9303351D01*
X67105902Y9683895D01*
X66864339Y9925880D01*
X82235280Y9925880D01*
X82526119Y9983732D01*
X82772681Y10148479D01*
X85217536Y12593334D01*
X85598000Y12517655D01*
X86171489Y12631729D01*
X86657670Y12956585D01*
X86982526Y13442766D01*
X87096600Y14016255D01*
X87096600Y14385745D01*
X86982526Y14959234D01*
X86657670Y15445415D01*
X86171489Y15770271D01*
X85598000Y15884345D01*
X85024511Y15770271D01*
X84538330Y15445415D01*
X84328000Y15130634D01*
X84117670Y15445415D01*
X83631489Y15770271D01*
X83058000Y15884345D01*
X82484511Y15770271D01*
X81998330Y15445415D01*
X81673474Y14959234D01*
X81626918Y14725179D01*
X81549806Y14951211D01*
X81242492Y15300560D01*
X80824740Y15503808D01*
X80641000Y15455407D01*
X80641000Y14324000D01*
X80661000Y14324000D01*
X80661000Y14078000D01*
X80641000Y14078000D01*
X80641000Y14058000D01*
X80395000Y14058000D01*
X80395000Y14078000D01*
X79407635Y14078000D01*
X79335963Y13891150D01*
X79486194Y13450789D01*
X79793508Y13101440D01*
X79878683Y13060000D01*
X74854802Y13060000D01*
X73403952Y14510850D01*
X79335963Y14510850D01*
X79407635Y14324000D01*
X80395000Y14324000D01*
X80395000Y15455407D01*
X80211260Y15503808D01*
X79793508Y15300560D01*
X79486194Y14951211D01*
X79335963Y14510850D01*
X73403952Y14510850D01*
X73255122Y14659680D01*
X73255162Y14705167D01*
X73113117Y15048943D01*
X72850327Y15312192D01*
X72506799Y15454838D01*
X72134833Y15455162D01*
X71791057Y15313117D01*
X71527808Y15050327D01*
X71385162Y14706799D01*
X71384838Y14334833D01*
X71526883Y13991057D01*
X71789673Y13727808D01*
X72133201Y13585162D01*
X72180077Y13585121D01*
X74002599Y11762599D01*
X74249161Y11597852D01*
X74540000Y11540000D01*
X81309400Y11540000D01*
X81600239Y11597852D01*
X81846801Y11762599D01*
X82677536Y12593334D01*
X83003161Y12528563D01*
X81920478Y11445880D01*
X56382762Y11445880D01*
X53810492Y14018150D01*
X54443963Y14018150D01*
X54594194Y13577789D01*
X54901508Y13228440D01*
X55319260Y13025192D01*
X55503000Y13073593D01*
X55503000Y14205000D01*
X54515635Y14205000D01*
X54443963Y14018150D01*
X53810492Y14018150D01*
X53439600Y14389042D01*
X53439600Y14637850D01*
X54443963Y14637850D01*
X54515635Y14451000D01*
X55503000Y14451000D01*
X55503000Y15582407D01*
X55319260Y15630808D01*
X54901508Y15427560D01*
X54594194Y15078211D01*
X54443963Y14637850D01*
X53439600Y14637850D01*
X53439600Y17375318D01*
X54732999Y16081919D01*
X54979561Y15917172D01*
X55270400Y15859320D01*
X57535713Y15859320D01*
X57106330Y15572415D01*
X56781474Y15086234D01*
X56734918Y14852179D01*
X56657806Y15078211D01*
X56350492Y15427560D01*
X55932740Y15630808D01*
X55749000Y15582407D01*
X55749000Y14451000D01*
X55769000Y14451000D01*
X55769000Y14205000D01*
X55749000Y14205000D01*
X55749000Y13073593D01*
X55932740Y13025192D01*
X56350492Y13228440D01*
X56657806Y13577789D01*
X56734918Y13803821D01*
X56781474Y13569766D01*
X57106330Y13083585D01*
X57592511Y12758729D01*
X58166000Y12644655D01*
X58739489Y12758729D01*
X59225670Y13083585D01*
X59436000Y13398366D01*
X59646330Y13083585D01*
X60132511Y12758729D01*
X60706000Y12644655D01*
X61279489Y12758729D01*
X61765670Y13083585D01*
X62090526Y13569766D01*
X62204600Y14143255D01*
X62204600Y14512745D01*
X62090526Y15086234D01*
X61765670Y15572415D01*
X61279489Y15897271D01*
X60706000Y16011345D01*
X60325536Y15935666D01*
X59104481Y17156721D01*
X58857919Y17321468D01*
X58567080Y17379320D01*
X55585202Y17379320D01*
X54666420Y18298102D01*
X54666420Y19140927D01*
X54820330Y18910585D01*
X55306511Y18585729D01*
X55880000Y18471655D01*
X56453489Y18585729D01*
X56939670Y18910585D01*
X57150000Y19225366D01*
X57360330Y18910585D01*
X57846511Y18585729D01*
X58420000Y18471655D01*
X58993489Y18585729D01*
X59479670Y18910585D01*
X59690000Y19225366D01*
X59900330Y18910585D01*
X60386511Y18585729D01*
X60960000Y18471655D01*
X61533489Y18585729D01*
X62019670Y18910585D01*
X62344526Y19396766D01*
X62350108Y19424833D01*
X62684838Y19424833D01*
X62826883Y19081057D01*
X63089673Y18817808D01*
X63159999Y18788606D01*
X63159999Y15170001D01*
X63217851Y14879162D01*
X63382598Y14632600D01*
X65242599Y12772599D01*
X65489161Y12607852D01*
X65780000Y12550000D01*
X66097537Y12550000D01*
X66129673Y12517808D01*
X66473201Y12375162D01*
X66845167Y12374838D01*
X67188943Y12516883D01*
X67452192Y12779673D01*
X67594838Y13123201D01*
X67595162Y13495167D01*
X67453117Y13838943D01*
X67190327Y14102192D01*
X66846799Y14244838D01*
X66474833Y14245162D01*
X66131057Y14103117D01*
X66097882Y14070000D01*
X66094802Y14070000D01*
X64679999Y15484803D01*
X64679999Y19310001D01*
X64622147Y19600840D01*
X64555080Y19701213D01*
X64555162Y19795167D01*
X64413117Y20138943D01*
X64212666Y20339745D01*
X79146400Y20339745D01*
X79146400Y19970255D01*
X79260474Y19396766D01*
X79585330Y18910585D01*
X80071511Y18585729D01*
X80645000Y18471655D01*
X81218489Y18585729D01*
X81704670Y18910585D01*
X81915000Y19225366D01*
X82125330Y18910585D01*
X82611511Y18585729D01*
X83185000Y18471655D01*
X83758489Y18585729D01*
X84244670Y18910585D01*
X84455000Y19225366D01*
X84665330Y18910585D01*
X85151511Y18585729D01*
X85725000Y18471655D01*
X86298489Y18585729D01*
X86784670Y18910585D01*
X87109526Y19396766D01*
X87223600Y19970255D01*
X87223600Y20339745D01*
X87109526Y20913234D01*
X86784670Y21399415D01*
X86298489Y21724271D01*
X85725000Y21838345D01*
X85151511Y21724271D01*
X84665330Y21399415D01*
X84455000Y21084634D01*
X84244670Y21399415D01*
X83758489Y21724271D01*
X83185000Y21838345D01*
X82611511Y21724271D01*
X82125330Y21399415D01*
X81915000Y21084634D01*
X81704670Y21399415D01*
X81218489Y21724271D01*
X80645000Y21838345D01*
X80071511Y21724271D01*
X79585330Y21399415D01*
X79260474Y20913234D01*
X79146400Y20339745D01*
X64212666Y20339745D01*
X64150327Y20402192D01*
X63806799Y20544838D01*
X63434833Y20545162D01*
X63091057Y20403117D01*
X62827808Y20140327D01*
X62685162Y19796799D01*
X62684838Y19424833D01*
X62350108Y19424833D01*
X62458600Y19970255D01*
X62458600Y20339745D01*
X62344526Y20913234D01*
X62019670Y21399415D01*
X61533489Y21724271D01*
X60960000Y21838345D01*
X60386511Y21724271D01*
X59900330Y21399415D01*
X59690000Y21084634D01*
X59479670Y21399415D01*
X59180000Y21599648D01*
X59180000Y22375198D01*
X61497401Y24692599D01*
X61662148Y24939160D01*
X61695732Y25108000D01*
X61720000Y25230000D01*
X61720000Y26330352D01*
X62019670Y26530585D01*
X62344526Y27016766D01*
X62458600Y27590255D01*
X62458600Y27959745D01*
X79146400Y27959745D01*
X79146400Y27590255D01*
X79260474Y27016766D01*
X79585330Y26530585D01*
X80071511Y26205729D01*
X80645000Y26091655D01*
X81218489Y26205729D01*
X81704670Y26530585D01*
X81915000Y26845366D01*
X82125330Y26530585D01*
X82611511Y26205729D01*
X83185000Y26091655D01*
X83758489Y26205729D01*
X84244670Y26530585D01*
X84455000Y26845366D01*
X84665330Y26530585D01*
X85151511Y26205729D01*
X85725000Y26091655D01*
X86298489Y26205729D01*
X86784670Y26530585D01*
X87109526Y27016766D01*
X87223600Y27590255D01*
X87223600Y27959745D01*
X87109526Y28533234D01*
X86784670Y29019415D01*
X86298489Y29344271D01*
X85725000Y29458345D01*
X85151511Y29344271D01*
X84665330Y29019415D01*
X84455000Y28704634D01*
X84244670Y29019415D01*
X83758489Y29344271D01*
X83185000Y29458345D01*
X82611511Y29344271D01*
X82125330Y29019415D01*
X81915000Y28704634D01*
X81704670Y29019415D01*
X81218489Y29344271D01*
X80645000Y29458345D01*
X80071511Y29344271D01*
X79585330Y29019415D01*
X79260474Y28533234D01*
X79146400Y27959745D01*
X62458600Y27959745D01*
X62344526Y28533234D01*
X62019670Y29019415D01*
X61533489Y29344271D01*
X60960000Y29458345D01*
X60386511Y29344271D01*
X59900330Y29019415D01*
X59690000Y28704634D01*
X59479670Y29019415D01*
X58993489Y29344271D01*
X58420000Y29458345D01*
X57846511Y29344271D01*
X57360330Y29019415D01*
X57150000Y28704634D01*
X56939670Y29019415D01*
X56453489Y29344271D01*
X55880000Y29458345D01*
X55306511Y29344271D01*
X54820330Y29019415D01*
X54495474Y28533234D01*
X54381400Y27959745D01*
X54381400Y27590255D01*
X54495474Y27016766D01*
X54820330Y26530585D01*
X55306511Y26205729D01*
X55880000Y26091655D01*
X56453489Y26205729D01*
X56939670Y26530585D01*
X57150000Y26845366D01*
X57360330Y26530585D01*
X57846511Y26205729D01*
X58420000Y26091655D01*
X58993489Y26205729D01*
X59479670Y26530585D01*
X59690000Y26845366D01*
X59900330Y26530585D01*
X60200000Y26330352D01*
X60200000Y25544802D01*
X57882599Y23227401D01*
X57717852Y22980839D01*
X57660000Y22690000D01*
X57660000Y21599648D01*
X57360330Y21399415D01*
X57150000Y21084634D01*
X56939670Y21399415D01*
X56453489Y21724271D01*
X55880000Y21838345D01*
X55306511Y21724271D01*
X54820330Y21399415D01*
X54666420Y21169073D01*
X54666420Y23797360D01*
X54608568Y24088199D01*
X54559844Y24161120D01*
X54443822Y24334761D01*
X51952081Y26826501D01*
X51705519Y26991248D01*
X51414680Y27049100D01*
X49857667Y27049100D01*
X50264550Y27320971D01*
X50589406Y27807152D01*
X50703480Y28380641D01*
X50703480Y28439359D01*
X50589406Y29012848D01*
X50264550Y29499029D01*
X49993708Y29680000D01*
X50264550Y29860971D01*
X50589406Y30347152D01*
X50703480Y30920641D01*
X50703480Y30979359D01*
X50589406Y31552848D01*
X50264550Y32039029D01*
X49993708Y32220000D01*
X50264550Y32400971D01*
X50589406Y32887152D01*
X50703480Y33460641D01*
X50703480Y33519359D01*
X50589406Y34092848D01*
X50264550Y34579029D01*
X49993708Y34760000D01*
X50264550Y34940971D01*
X50589406Y35427152D01*
X50611044Y35535931D01*
X50710463Y35295317D01*
X50973253Y35032068D01*
X51316781Y34889422D01*
X51688747Y34889098D01*
X52032523Y35031143D01*
X52048575Y35047168D01*
X55181038Y35047168D01*
X55586209Y34066579D01*
X56335793Y33315685D01*
X57315673Y32908804D01*
X58376672Y32907878D01*
X59357261Y33313049D01*
X60108155Y34062633D01*
X60515036Y35042513D01*
X60515343Y35394519D01*
X80715777Y35394519D01*
X80910995Y34922057D01*
X81272155Y34560265D01*
X81744276Y34364223D01*
X82255481Y34363777D01*
X82727943Y34558995D01*
X83089735Y34920155D01*
X83285777Y35392276D01*
X83286223Y35903481D01*
X83091005Y36375943D01*
X82729845Y36737735D01*
X82257724Y36933777D01*
X81746519Y36934223D01*
X81274057Y36739005D01*
X80912265Y36377845D01*
X80716223Y35905724D01*
X80715777Y35394519D01*
X60515343Y35394519D01*
X60515962Y36103512D01*
X60110791Y37084101D01*
X59361207Y37834995D01*
X58381327Y38241876D01*
X57320328Y38242802D01*
X56339739Y37837631D01*
X55588845Y37088047D01*
X55181964Y36108167D01*
X55181038Y35047168D01*
X52048575Y35047168D01*
X52295772Y35293933D01*
X52438418Y35637461D01*
X52438459Y35684337D01*
X56565642Y39811520D01*
X68241520Y39811520D01*
X68532359Y39869372D01*
X68778921Y40034119D01*
X70157845Y41413043D01*
X70485000Y41347968D01*
X71034151Y41457201D01*
X71499698Y41768270D01*
X71755000Y42150356D01*
X72010302Y41768270D01*
X72475849Y41457201D01*
X73025000Y41347968D01*
X73574151Y41457201D01*
X74039698Y41768270D01*
X74295000Y42150356D01*
X74550302Y41768270D01*
X75015849Y41457201D01*
X75565000Y41347968D01*
X76114151Y41457201D01*
X76579698Y41768270D01*
X76835000Y42150356D01*
X77090302Y41768270D01*
X77555849Y41457201D01*
X78105000Y41347968D01*
X78654151Y41457201D01*
X79119698Y41768270D01*
X79375000Y42150356D01*
X79630302Y41768270D01*
X80095849Y41457201D01*
X80645000Y41347968D01*
X81194151Y41457201D01*
X81659698Y41768270D01*
X81915000Y42150356D01*
X82170302Y41768270D01*
X82635849Y41457201D01*
X83185000Y41347968D01*
X83734151Y41457201D01*
X84199698Y41768270D01*
X84510767Y42233817D01*
X84602016Y42692557D01*
X84720273Y42289611D01*
X84997811Y41945111D01*
X85386057Y41733044D01*
X85428266Y41727766D01*
X85602000Y41777012D01*
X85602000Y42892000D01*
X85582000Y42892000D01*
X85582000Y43138000D01*
X85602000Y43138000D01*
X85602000Y44252988D01*
X85428266Y44302234D01*
X85386057Y44296956D01*
X84997811Y44084889D01*
X84720273Y43740389D01*
X84602016Y43337443D01*
X84510767Y43796183D01*
X84199698Y44261730D01*
X83734151Y44572799D01*
X83185000Y44682032D01*
X82635849Y44572799D01*
X82170302Y44261730D01*
X81915000Y43879644D01*
X81659698Y44261730D01*
X81194151Y44572799D01*
X80645000Y44682032D01*
X80095849Y44572799D01*
X79630302Y44261730D01*
X79375000Y43879644D01*
X79119698Y44261730D01*
X78654151Y44572799D01*
X78105000Y44682032D01*
X77555849Y44572799D01*
X77090302Y44261730D01*
X76835000Y43879644D01*
X76579698Y44261730D01*
X76325000Y44431914D01*
X76325000Y44490898D01*
X82485421Y50651319D01*
X82650168Y50897880D01*
X82663260Y50963697D01*
X82708020Y51188720D01*
X82708020Y57048442D01*
X82846057Y56973044D01*
X82888266Y56967766D01*
X83062000Y57017012D01*
X83062000Y58132000D01*
X83042000Y58132000D01*
X83042000Y58378000D01*
X83062000Y58378000D01*
X83062000Y59492988D01*
X82888266Y59542234D01*
X82846057Y59536956D01*
X82708020Y59461558D01*
X82708020Y59502140D01*
X82650168Y59792979D01*
X82650168Y59792980D01*
X82485421Y60039541D01*
X81362741Y61162221D01*
X81116179Y61326968D01*
X80825340Y61384820D01*
X79471362Y61384820D01*
X78034114Y62822068D01*
X83692538Y62822068D01*
X84097709Y61841479D01*
X84847293Y61090585D01*
X85827173Y60683704D01*
X86888172Y60682778D01*
X87868761Y61087949D01*
X88619655Y61837533D01*
X89026536Y62817413D01*
X89027462Y63878412D01*
X88622291Y64859001D01*
X87872707Y65609895D01*
X86892827Y66016776D01*
X85831828Y66017702D01*
X84851239Y65612531D01*
X84100345Y64862947D01*
X83693464Y63883067D01*
X83692538Y62822068D01*
X78034114Y62822068D01*
X76206111Y64650071D01*
X75959549Y64814818D01*
X75668710Y64872670D01*
X49248490Y64872670D01*
X48957651Y64814818D01*
X48711089Y64650071D01*
X44318302Y60257284D01*
X44097360Y60587947D01*
X43566927Y60942370D01*
X42941240Y61066827D01*
X42315553Y60942370D01*
X41785120Y60587947D01*
X41430697Y60057514D01*
X41306240Y59431827D01*
X41306240Y58348173D01*
X41430697Y57722486D01*
X41785120Y57192053D01*
X41831894Y57160800D01*
X36583782Y57160800D01*
X34317181Y59427401D01*
X34142435Y59544162D01*
X34040323Y60057514D01*
X33685900Y60587947D01*
X33155467Y60942370D01*
X32529780Y61066827D01*
X31904093Y60942370D01*
X31373660Y60587947D01*
X31019237Y60057514D01*
X30894780Y59431827D01*
X30894780Y58348173D01*
X31019237Y57722486D01*
X31373660Y57192053D01*
X31904093Y56837630D01*
X32529780Y56713173D01*
X33155467Y56837630D01*
X33685900Y57192053D01*
X33973099Y57621879D01*
X35731579Y55863399D01*
X35978140Y55698652D01*
X36268980Y55640800D01*
X44198540Y55640800D01*
X44489379Y55698652D01*
X44735941Y55863399D01*
X47001621Y58129079D01*
X47166368Y58375640D01*
X47224220Y58666480D01*
X47224220Y60377188D01*
X48072282Y61225250D01*
X49557330Y61225250D01*
X49557330Y60365465D01*
X49607113Y60245279D01*
X49699100Y60153293D01*
X49819286Y60103510D01*
X50679070Y60103510D01*
X50760820Y60185260D01*
X50760820Y61307000D01*
X49639080Y61307000D01*
X49557330Y61225250D01*
X48072282Y61225250D01*
X49341567Y62494535D01*
X49557330Y62494535D01*
X49557330Y61634750D01*
X49639080Y61553000D01*
X50760820Y61553000D01*
X50760820Y62674740D01*
X50679070Y62756490D01*
X49819286Y62756490D01*
X49699100Y62706707D01*
X49607113Y62614721D01*
X49557330Y62494535D01*
X49341567Y62494535D01*
X49749691Y62902659D01*
X52710313Y62902659D01*
X52236039Y62585759D01*
X52196830Y62527078D01*
X52160527Y62614721D01*
X52068540Y62706707D01*
X51948354Y62756490D01*
X51088570Y62756490D01*
X51006820Y62674740D01*
X51006820Y61553000D01*
X51026820Y61553000D01*
X51026820Y61307000D01*
X51006820Y61307000D01*
X51006820Y60185260D01*
X51088570Y60103510D01*
X51948354Y60103510D01*
X52068540Y60153293D01*
X52160527Y60245279D01*
X52196830Y60332922D01*
X52236039Y60274241D01*
X52766306Y59919928D01*
X53391798Y59795510D01*
X53455842Y59795510D01*
X54081334Y59919928D01*
X54611601Y60274241D01*
X54693820Y60397290D01*
X54776039Y60274241D01*
X55306306Y59919928D01*
X55931798Y59795510D01*
X55995842Y59795510D01*
X56621334Y59919928D01*
X57151601Y60274241D01*
X57505914Y60804508D01*
X57630332Y61430000D01*
X57505914Y62055492D01*
X57151601Y62585759D01*
X56677327Y62902659D01*
X75107959Y62902659D01*
X76077540Y61933078D01*
X76077540Y59820081D01*
X75565000Y59922032D01*
X75015849Y59812799D01*
X74550302Y59501730D01*
X74295000Y59119644D01*
X74039698Y59501730D01*
X73574151Y59812799D01*
X73025000Y59922032D01*
X72475849Y59812799D01*
X72010302Y59501730D01*
X71755000Y59119644D01*
X71499698Y59501730D01*
X71034151Y59812799D01*
X70485000Y59922032D01*
X69935849Y59812799D01*
X69470302Y59501730D01*
X69215000Y59119644D01*
X68959698Y59501730D01*
X68494151Y59812799D01*
X67945000Y59922032D01*
X67395849Y59812799D01*
X66930302Y59501730D01*
X66675000Y59119644D01*
X66419698Y59501730D01*
X65954151Y59812799D01*
X65405000Y59922032D01*
X64855849Y59812799D01*
X64390302Y59501730D01*
X64135000Y59119644D01*
X63879698Y59501730D01*
X63414151Y59812799D01*
X62865000Y59922032D01*
X62315849Y59812799D01*
X61850302Y59501730D01*
X61595000Y59119644D01*
X61339698Y59501730D01*
X60874151Y59812799D01*
X60325000Y59922032D01*
X59775849Y59812799D01*
X59310302Y59501730D01*
X58999233Y59036183D01*
X58890000Y58487032D01*
X58890000Y58022968D01*
X58999233Y57473817D01*
X59310302Y57008270D01*
X59775849Y56697201D01*
X60325000Y56587968D01*
X60874151Y56697201D01*
X61339698Y57008270D01*
X61595000Y57390356D01*
X61850302Y57008270D01*
X62315849Y56697201D01*
X62865000Y56587968D01*
X63414151Y56697201D01*
X63879698Y57008270D01*
X64135000Y57390356D01*
X64390302Y57008270D01*
X64855849Y56697201D01*
X65403470Y56588272D01*
X53512059Y44696861D01*
X53441853Y44696922D01*
X53098077Y44554877D01*
X52834828Y44292087D01*
X52692182Y43948559D01*
X52691858Y43576593D01*
X52833903Y43232817D01*
X53081790Y42984497D01*
X53040568Y42943347D01*
X52897922Y42599819D01*
X52897598Y42227853D01*
X53039643Y41884077D01*
X53302433Y41620828D01*
X53645961Y41478182D01*
X54017927Y41477858D01*
X54361703Y41619903D01*
X54624952Y41882693D01*
X54767598Y42226221D01*
X54767637Y42270555D01*
X64896842Y52399760D01*
X70825360Y52399760D01*
X71116199Y52457612D01*
X71362761Y52622359D01*
X75367629Y56627227D01*
X75565000Y56587968D01*
X76077540Y56689919D01*
X76077540Y49034642D01*
X72487599Y45444701D01*
X72322852Y45198139D01*
X72265000Y44907300D01*
X72265000Y44431914D01*
X72010302Y44261730D01*
X71755000Y43879644D01*
X71499698Y44261730D01*
X71034151Y44572799D01*
X70485000Y44682032D01*
X69935849Y44572799D01*
X69470302Y44261730D01*
X69215000Y43879644D01*
X68959698Y44261730D01*
X68494151Y44572799D01*
X67945000Y44682032D01*
X67395849Y44572799D01*
X66930302Y44261730D01*
X66675000Y43879644D01*
X66419698Y44261730D01*
X65954151Y44572799D01*
X65405000Y44682032D01*
X64855849Y44572799D01*
X64390302Y44261730D01*
X64135000Y43879644D01*
X63879698Y44261730D01*
X63414151Y44572799D01*
X62865000Y44682032D01*
X62315849Y44572799D01*
X61850302Y44261730D01*
X61595000Y43879644D01*
X61339698Y44261730D01*
X60874151Y44572799D01*
X60325000Y44682032D01*
X59775849Y44572799D01*
X59310302Y44261730D01*
X58999233Y43796183D01*
X58890000Y43247032D01*
X58890000Y42782968D01*
X58999233Y42233817D01*
X59310302Y41768270D01*
X59775849Y41457201D01*
X60325000Y41347968D01*
X60874151Y41457201D01*
X61339698Y41768270D01*
X61595000Y42150356D01*
X61850302Y41768270D01*
X62315849Y41457201D01*
X62865000Y41347968D01*
X63414151Y41457201D01*
X63879698Y41768270D01*
X64135000Y42150356D01*
X64390302Y41768270D01*
X64855849Y41457201D01*
X65405000Y41347968D01*
X65954151Y41457201D01*
X66419698Y41768270D01*
X66675000Y42150356D01*
X66930302Y41768270D01*
X67395849Y41457201D01*
X67943470Y41348272D01*
X67926718Y41331520D01*
X56250840Y41331520D01*
X56008254Y41283266D01*
X55960000Y41273668D01*
X55713439Y41108921D01*
X51363900Y36759382D01*
X51318413Y36759422D01*
X50974637Y36617377D01*
X50711388Y36354587D01*
X50666337Y36246092D01*
X50589406Y36632848D01*
X50264550Y37119029D01*
X49993708Y37300000D01*
X50264550Y37480971D01*
X50589406Y37967152D01*
X50703480Y38540641D01*
X50703480Y38599359D01*
X50589406Y39172848D01*
X50278306Y39638442D01*
X50303797Y39643238D01*
X50519921Y39782310D01*
X50664911Y39994510D01*
X50715920Y40246400D01*
X50715920Y41973600D01*
X50671642Y42208917D01*
X50532570Y42425041D01*
X50320370Y42570031D01*
X50068480Y42621040D01*
X48341280Y42621040D01*
X48105963Y42576762D01*
X47889839Y42437690D01*
X47744849Y42225490D01*
X47736016Y42181869D01*
X47724550Y42199029D01*
X47238369Y42523885D01*
X46664880Y42637959D01*
X46091391Y42523885D01*
X45605210Y42199029D01*
X45394880Y41884248D01*
X45184550Y42199029D01*
X44698369Y42523885D01*
X44124880Y42637959D01*
X43551391Y42523885D01*
X43065210Y42199029D01*
X42740354Y41712848D01*
X42626280Y41139359D01*
X42626280Y41080641D01*
X42740354Y40507152D01*
X43065210Y40020971D01*
X43336052Y39840000D01*
X43065210Y39659029D01*
X42740354Y39172848D01*
X42626280Y38599359D01*
X42626280Y38540641D01*
X42740354Y37967152D01*
X43065210Y37480971D01*
X43336052Y37300000D01*
X43065210Y37119029D01*
X42740354Y36632848D01*
X42626280Y36059359D01*
X42626280Y36000641D01*
X42740354Y35427152D01*
X43065210Y34940971D01*
X43336052Y34760000D01*
X43065210Y34579029D01*
X42740354Y34092848D01*
X42626280Y33519359D01*
X42626280Y33460641D01*
X42740354Y32887152D01*
X43065210Y32400971D01*
X43336052Y32220000D01*
X43065210Y32039029D01*
X42740354Y31552848D01*
X42626280Y30979359D01*
X42626280Y30920641D01*
X42740354Y30347152D01*
X43065210Y29860971D01*
X43336052Y29680000D01*
X43065210Y29499029D01*
X42740354Y29012848D01*
X42626280Y28439359D01*
X42626280Y28380641D01*
X42740354Y27807152D01*
X43065210Y27320971D01*
X43472093Y27049100D01*
X30899100Y27049100D01*
X30608261Y26991248D01*
X30361699Y26826501D01*
X27028356Y23493158D01*
X26699359Y23558600D01*
X26640641Y23558600D01*
X26627036Y23555894D01*
X37611241Y34540099D01*
X37775988Y34786661D01*
X37833840Y35077500D01*
X37833840Y39669820D01*
X37775988Y39960659D01*
X37775988Y39960660D01*
X37611241Y40207221D01*
X35471502Y42346960D01*
X35471542Y42392447D01*
X35329497Y42736223D01*
X35066707Y42999472D01*
X34723179Y43142118D01*
X34351213Y43142442D01*
X34007437Y43000397D01*
X33744188Y42737607D01*
X33601542Y42394079D01*
X33601218Y42022113D01*
X33743263Y41678337D01*
X34006053Y41415088D01*
X34349581Y41272442D01*
X34396457Y41272401D01*
X36313840Y39355018D01*
X36313840Y35392302D01*
X24854979Y23933441D01*
X24690232Y23686879D01*
X24645481Y23461904D01*
X24159359Y23558600D01*
X24100641Y23558600D01*
X23527152Y23444526D01*
X23061558Y23133426D01*
X23056762Y23158917D01*
X22917690Y23375041D01*
X22705490Y23520031D01*
X22453600Y23571040D01*
X20726400Y23571040D01*
X20491083Y23526762D01*
X20274959Y23387690D01*
X20129969Y23175490D01*
X20078960Y22923600D01*
X20078960Y21196400D01*
X20123238Y20961083D01*
X20262310Y20744959D01*
X20474510Y20599969D01*
X20518131Y20591136D01*
X20500971Y20579670D01*
X20300738Y20280000D01*
X14089380Y20280000D01*
X13798541Y20222148D01*
X13551979Y20057401D01*
X7082599Y13588021D01*
X6917852Y13341459D01*
X6860000Y13050620D01*
X6860000Y8617440D01*
X5970000Y8617440D01*
X5734683Y8573162D01*
X5518559Y8434090D01*
X5373569Y8221890D01*
X5322560Y7970000D01*
X5322560Y7705314D01*
X5077204Y7951098D01*
X4586713Y8154768D01*
X4055617Y8155231D01*
X3564771Y7952418D01*
X3188902Y7577204D01*
X2985232Y7086713D01*
X2984769Y6555617D01*
X710000Y6555617D01*
X710000Y12220000D01*
X1372560Y12220000D01*
X1372560Y9220000D01*
X1416838Y8984683D01*
X1555910Y8768559D01*
X1768110Y8623569D01*
X2020000Y8572560D01*
X3520000Y8572560D01*
X3755317Y8616838D01*
X3971441Y8755910D01*
X4116431Y8968110D01*
X4167440Y9220000D01*
X4167440Y11785132D01*
X4584383Y11784769D01*
X5075229Y11987582D01*
X5451098Y12362796D01*
X5654768Y12853287D01*
X5655231Y13384383D01*
X5452418Y13875229D01*
X5077204Y14251098D01*
X4586713Y14454768D01*
X4055617Y14455231D01*
X3564771Y14252418D01*
X3188902Y13877204D01*
X2985232Y13386713D01*
X2984779Y12867440D01*
X2020000Y12867440D01*
X1784683Y12823162D01*
X1568559Y12684090D01*
X1423569Y12471890D01*
X1372560Y12220000D01*
X710000Y12220000D01*
X710000Y19315250D01*
X3753510Y19315250D01*
X3753510Y18455466D01*
X3803293Y18335280D01*
X3895279Y18243293D01*
X4015465Y18193510D01*
X4875250Y18193510D01*
X4957000Y18275260D01*
X4957000Y19397000D01*
X5203000Y19397000D01*
X5203000Y18275260D01*
X5284750Y18193510D01*
X6144535Y18193510D01*
X6264721Y18243293D01*
X6356707Y18335280D01*
X6406490Y18455466D01*
X6406490Y19315250D01*
X6324740Y19397000D01*
X5203000Y19397000D01*
X4957000Y19397000D01*
X3835260Y19397000D01*
X3753510Y19315250D01*
X710000Y19315250D01*
X710000Y22092022D01*
X3445510Y22092022D01*
X3445510Y22027978D01*
X3569928Y21402486D01*
X3924241Y20872219D01*
X3982922Y20833010D01*
X3895279Y20796707D01*
X3803293Y20704720D01*
X3753510Y20584534D01*
X3753510Y19724750D01*
X3835260Y19643000D01*
X4957000Y19643000D01*
X4957000Y19663000D01*
X5203000Y19663000D01*
X5203000Y19643000D01*
X6324740Y19643000D01*
X6406490Y19724750D01*
X6406490Y20584534D01*
X6356707Y20704720D01*
X6264721Y20796707D01*
X6177078Y20833010D01*
X6235759Y20872219D01*
X6590072Y21402486D01*
X6714490Y22027978D01*
X6714490Y22092022D01*
X6590072Y22717514D01*
X6235759Y23247781D01*
X5705492Y23602094D01*
X5080000Y23726512D01*
X4454508Y23602094D01*
X3924241Y23247781D01*
X3569928Y22717514D01*
X3445510Y22092022D01*
X710000Y22092022D01*
X710000Y27220000D01*
X3137679Y27220000D01*
X3262136Y26594313D01*
X3616559Y26063880D01*
X4146992Y25709457D01*
X4772679Y25585000D01*
X5387321Y25585000D01*
X6013008Y25709457D01*
X6543441Y26063880D01*
X6897864Y26594313D01*
X7022321Y27220000D01*
X6897864Y27845687D01*
X6543441Y28376120D01*
X6013008Y28730543D01*
X5387321Y28855000D01*
X4772679Y28855000D01*
X4146992Y28730543D01*
X3616559Y28376120D01*
X3262136Y27845687D01*
X3137679Y27220000D01*
X710000Y27220000D01*
X710000Y32220000D01*
X10396655Y32220000D01*
X10510729Y31646511D01*
X10835585Y31160330D01*
X11150366Y30950000D01*
X10835585Y30739670D01*
X10510729Y30253489D01*
X10396655Y29680000D01*
X10510729Y29106511D01*
X10835585Y28620330D01*
X11321766Y28295474D01*
X11895255Y28181400D01*
X12264745Y28181400D01*
X12838234Y28295474D01*
X13324415Y28620330D01*
X13649271Y29106511D01*
X13763345Y29680000D01*
X13649271Y30253489D01*
X13324415Y30739670D01*
X13009634Y30950000D01*
X13324415Y31160330D01*
X13649271Y31646511D01*
X13763345Y32220000D01*
X13649271Y32793489D01*
X13324415Y33279670D01*
X12838234Y33604526D01*
X12604179Y33651082D01*
X12830211Y33728194D01*
X13179560Y34035508D01*
X13382808Y34453260D01*
X13334407Y34637000D01*
X12203000Y34637000D01*
X12203000Y34617000D01*
X11957000Y34617000D01*
X11957000Y34637000D01*
X10825593Y34637000D01*
X10777192Y34453260D01*
X10980440Y34035508D01*
X11329789Y33728194D01*
X11555821Y33651082D01*
X11321766Y33604526D01*
X10835585Y33279670D01*
X10510729Y32793489D01*
X10396655Y32220000D01*
X710000Y32220000D01*
X710000Y35066740D01*
X10777192Y35066740D01*
X10825593Y34883000D01*
X11957000Y34883000D01*
X11957000Y35870365D01*
X12203000Y35870365D01*
X12203000Y34883000D01*
X13334407Y34883000D01*
X13382808Y35066740D01*
X13179560Y35484492D01*
X12830211Y35791806D01*
X12389850Y35942037D01*
X12203000Y35870365D01*
X11957000Y35870365D01*
X11770150Y35942037D01*
X11329789Y35791806D01*
X10980440Y35484492D01*
X10777192Y35066740D01*
X710000Y35066740D01*
X710000Y37220000D01*
X3137679Y37220000D01*
X3262136Y36594313D01*
X3616559Y36063880D01*
X4146992Y35709457D01*
X4772679Y35585000D01*
X5387321Y35585000D01*
X6013008Y35709457D01*
X6543441Y36063880D01*
X6897864Y36594313D01*
X7022321Y37220000D01*
X6897864Y37845687D01*
X6543441Y38376120D01*
X6013008Y38730543D01*
X5387321Y38855000D01*
X4772679Y38855000D01*
X4146992Y38730543D01*
X3616559Y38376120D01*
X3262136Y37845687D01*
X3137679Y37220000D01*
X710000Y37220000D01*
X710000Y41190000D01*
X3137679Y41190000D01*
X3262136Y40564313D01*
X3616559Y40033880D01*
X4146992Y39679457D01*
X4772679Y39555000D01*
X5387321Y39555000D01*
X6013008Y39679457D01*
X6543441Y40033880D01*
X6897864Y40564313D01*
X7022321Y41190000D01*
X6897864Y41815687D01*
X6543441Y42346120D01*
X6013008Y42700543D01*
X5387321Y42825000D01*
X4772679Y42825000D01*
X4146992Y42700543D01*
X3616559Y42346120D01*
X3262136Y41815687D01*
X3137679Y41190000D01*
X710000Y41190000D01*
X710000Y48730000D01*
X10396655Y48730000D01*
X10510729Y48156511D01*
X10835585Y47670330D01*
X11150366Y47460000D01*
X10835585Y47249670D01*
X10510729Y46763489D01*
X10396655Y46190000D01*
X10510729Y45616511D01*
X10835585Y45130330D01*
X11150366Y44920000D01*
X10835585Y44709670D01*
X10510729Y44223489D01*
X10396655Y43650000D01*
X10510729Y43076511D01*
X10835585Y42590330D01*
X11321766Y42265474D01*
X11340560Y42261736D01*
X11340560Y41783100D01*
X11398412Y41492261D01*
X11563159Y41245699D01*
X17545780Y35263078D01*
X17545780Y33158361D01*
X17500888Y33113547D01*
X17358242Y32770019D01*
X17357918Y32398053D01*
X17499963Y32054277D01*
X17762753Y31791028D01*
X18106281Y31648382D01*
X18478247Y31648058D01*
X18822023Y31790103D01*
X19085272Y32052893D01*
X19227918Y32396421D01*
X19228242Y32768387D01*
X19086197Y33112163D01*
X19065780Y33132616D01*
X19065780Y35514833D01*
X21984838Y35514833D01*
X22126883Y35171057D01*
X22389673Y34907808D01*
X22733201Y34765162D01*
X23105167Y34764838D01*
X23448943Y34906883D01*
X23482118Y34940000D01*
X24205198Y34940000D01*
X24704878Y34440320D01*
X24704838Y34394833D01*
X24846883Y34051057D01*
X25109673Y33787808D01*
X25453201Y33645162D01*
X25825167Y33644838D01*
X26168943Y33786883D01*
X26432192Y34049673D01*
X26574838Y34393201D01*
X26575162Y34765167D01*
X26433117Y35108943D01*
X26170327Y35372192D01*
X25826799Y35514838D01*
X25779923Y35514879D01*
X25057401Y36237401D01*
X24810839Y36402148D01*
X24520000Y36460000D01*
X23482463Y36460000D01*
X23450327Y36492192D01*
X23106799Y36634838D01*
X22734833Y36635162D01*
X22391057Y36493117D01*
X22127808Y36230327D01*
X21985162Y35886799D01*
X21984838Y35514833D01*
X19065780Y35514833D01*
X19065780Y35577880D01*
X19058416Y35614901D01*
X19007928Y35868720D01*
X18843181Y36115281D01*
X16159093Y38799369D01*
X22152481Y38799369D01*
X22309718Y38418825D01*
X22600614Y38127421D01*
X22980883Y37969520D01*
X23392631Y37969161D01*
X23773175Y38126398D01*
X23802690Y38155862D01*
X27379853Y34578699D01*
X27379801Y34519469D01*
X27537038Y34138925D01*
X27827934Y33847521D01*
X28208203Y33689620D01*
X28619951Y33689261D01*
X29000495Y33846498D01*
X29291899Y34137394D01*
X29449800Y34517663D01*
X29450159Y34929411D01*
X29292922Y35309955D01*
X29002026Y35601359D01*
X28621757Y35759260D01*
X28560975Y35759313D01*
X24725514Y39594774D01*
X24719249Y39598960D01*
X24454621Y39775779D01*
X24135080Y39839340D01*
X23816552Y39839340D01*
X23774706Y39881259D01*
X23394437Y40039160D01*
X22982689Y40039519D01*
X22602145Y39882282D01*
X22310741Y39591386D01*
X22152840Y39211117D01*
X22152481Y38799369D01*
X16159093Y38799369D01*
X12860560Y42097902D01*
X12860560Y42280392D01*
X13324415Y42590330D01*
X13649271Y43076511D01*
X13763345Y43650000D01*
X13649271Y44223489D01*
X13324415Y44709670D01*
X13009634Y44920000D01*
X13324415Y45130330D01*
X13649271Y45616511D01*
X13763345Y46190000D01*
X13649271Y46763489D01*
X13324415Y47249670D01*
X13009634Y47460000D01*
X13324415Y47670330D01*
X13649271Y48156511D01*
X13763345Y48730000D01*
X13649271Y49303489D01*
X13324415Y49789670D01*
X12838234Y50114526D01*
X12264745Y50228600D01*
X11895255Y50228600D01*
X11321766Y50114526D01*
X10835585Y49789670D01*
X10510729Y49303489D01*
X10396655Y48730000D01*
X710000Y48730000D01*
X710000Y51190000D01*
X3137679Y51190000D01*
X3262136Y50564313D01*
X3616559Y50033880D01*
X4146992Y49679457D01*
X4772679Y49555000D01*
X5387321Y49555000D01*
X6013008Y49679457D01*
X6543441Y50033880D01*
X6897864Y50564313D01*
X7022321Y51190000D01*
X6897864Y51815687D01*
X6714745Y52089745D01*
X20726400Y52089745D01*
X20726400Y51720255D01*
X20840474Y51146766D01*
X21165330Y50660585D01*
X21651511Y50335729D01*
X22225000Y50221655D01*
X22798489Y50335729D01*
X23122084Y50551949D01*
X53737381Y50551949D01*
X53894618Y50171405D01*
X54185514Y49880001D01*
X54565783Y49722100D01*
X54977531Y49721741D01*
X55358075Y49878978D01*
X55649479Y50169874D01*
X55712613Y50321919D01*
X56158079Y50321919D01*
X56477620Y50385480D01*
X56748513Y50566485D01*
X57911248Y51729220D01*
X57994595Y51763658D01*
X58285999Y52054554D01*
X58443900Y52434823D01*
X58444259Y52846571D01*
X58287022Y53227115D01*
X57996126Y53518519D01*
X57615857Y53676420D01*
X57204109Y53676779D01*
X56823565Y53519542D01*
X56532161Y53228646D01*
X56374260Y52848377D01*
X56374003Y52553711D01*
X55812211Y51991919D01*
X55172559Y51991919D01*
X54853018Y51928358D01*
X54684394Y51815687D01*
X54648986Y51792028D01*
X54567589Y51792099D01*
X54187045Y51634862D01*
X53895641Y51343966D01*
X53737740Y50963697D01*
X53737381Y50551949D01*
X23122084Y50551949D01*
X23284670Y50660585D01*
X23609526Y51146766D01*
X23723600Y51720255D01*
X23723600Y52089745D01*
X23609526Y52663234D01*
X23284670Y53149415D01*
X22798489Y53474271D01*
X22225000Y53588345D01*
X21651511Y53474271D01*
X21165330Y53149415D01*
X20840474Y52663234D01*
X20726400Y52089745D01*
X6714745Y52089745D01*
X6543441Y52346120D01*
X6013008Y52700543D01*
X5387321Y52825000D01*
X4772679Y52825000D01*
X4146992Y52700543D01*
X3616559Y52346120D01*
X3262136Y51815687D01*
X3137679Y51190000D01*
X710000Y51190000D01*
X710000Y57169745D01*
X18186400Y57169745D01*
X18186400Y56800255D01*
X18300474Y56226766D01*
X18625330Y55740585D01*
X19111511Y55415729D01*
X19685000Y55301655D01*
X20258489Y55415729D01*
X20744670Y55740585D01*
X21069526Y56226766D01*
X21183600Y56800255D01*
X21183600Y57169745D01*
X23266400Y57169745D01*
X23266400Y56800255D01*
X23380474Y56226766D01*
X23705330Y55740585D01*
X24191511Y55415729D01*
X24765000Y55301655D01*
X25338489Y55415729D01*
X25824670Y55740585D01*
X26149526Y56226766D01*
X26263600Y56800255D01*
X26263600Y57169745D01*
X26149526Y57743234D01*
X25824670Y58229415D01*
X25338489Y58554271D01*
X24765000Y58668345D01*
X24191511Y58554271D01*
X23705330Y58229415D01*
X23380474Y57743234D01*
X23266400Y57169745D01*
X21183600Y57169745D01*
X21069526Y57743234D01*
X20744670Y58229415D01*
X20258489Y58554271D01*
X19685000Y58668345D01*
X19111511Y58554271D01*
X18625330Y58229415D01*
X18300474Y57743234D01*
X18186400Y57169745D01*
X710000Y57169745D01*
X710000Y59905519D01*
X769197Y59905519D01*
X964415Y59433057D01*
X1325575Y59071265D01*
X1797696Y58875223D01*
X2308901Y58874777D01*
X2781363Y59069995D01*
X3143155Y59431155D01*
X3339197Y59903276D01*
X3339198Y59905519D01*
X7069197Y59905519D01*
X7264415Y59433057D01*
X7625575Y59071265D01*
X8097696Y58875223D01*
X8608901Y58874777D01*
X9081363Y59069995D01*
X9443155Y59431155D01*
X9639197Y59903276D01*
X9639643Y60414481D01*
X9444425Y60886943D01*
X9083265Y61248735D01*
X8611144Y61444777D01*
X8099939Y61445223D01*
X7627477Y61250005D01*
X7265685Y60888845D01*
X7069643Y60416724D01*
X7069197Y59905519D01*
X3339198Y59905519D01*
X3339643Y60414481D01*
X3144425Y60886943D01*
X2783265Y61248735D01*
X2311144Y61444777D01*
X1799939Y61445223D01*
X1327477Y61250005D01*
X965685Y60888845D01*
X769643Y60416724D01*
X769197Y59905519D01*
X710000Y59905519D01*
X710000Y62822068D01*
X16382538Y62822068D01*
X16787709Y61841479D01*
X17537293Y61090585D01*
X18517173Y60683704D01*
X19578172Y60682778D01*
X20558761Y61087949D01*
X21309655Y61837533D01*
X21716536Y62817413D01*
X21717462Y63878412D01*
X21455741Y64511827D01*
X28354780Y64511827D01*
X28354780Y63428173D01*
X28479237Y62802486D01*
X28833660Y62272053D01*
X29364093Y61917630D01*
X29989780Y61793173D01*
X30615467Y61917630D01*
X31145900Y62272053D01*
X31500323Y62802486D01*
X31624780Y63428173D01*
X31624780Y63847000D01*
X33742780Y63847000D01*
X33742780Y63347000D01*
X33890862Y62848542D01*
X34218423Y62444695D01*
X34675596Y62196941D01*
X34741600Y62184222D01*
X34946780Y62230840D01*
X34946780Y63847000D01*
X35192780Y63847000D01*
X35192780Y62230840D01*
X35397960Y62184222D01*
X35463964Y62196941D01*
X35921137Y62444695D01*
X36248698Y62848542D01*
X36396780Y63347000D01*
X36396780Y63847000D01*
X35192780Y63847000D01*
X34946780Y63847000D01*
X33742780Y63847000D01*
X31624780Y63847000D01*
X31624780Y64511827D01*
X31608634Y64593000D01*
X33742780Y64593000D01*
X33742780Y64093000D01*
X34946780Y64093000D01*
X34946780Y65709160D01*
X35192780Y65709160D01*
X35192780Y64093000D01*
X36396780Y64093000D01*
X36396780Y64511827D01*
X38766240Y64511827D01*
X38766240Y63428173D01*
X38890697Y62802486D01*
X39245120Y62272053D01*
X39775553Y61917630D01*
X40401240Y61793173D01*
X41026927Y61917630D01*
X41557360Y62272053D01*
X41911783Y62802486D01*
X42036240Y63428173D01*
X42036240Y63847000D01*
X44154240Y63847000D01*
X44154240Y63347000D01*
X44302322Y62848542D01*
X44629883Y62444695D01*
X45087056Y62196941D01*
X45153060Y62184222D01*
X45358240Y62230840D01*
X45358240Y63847000D01*
X45604240Y63847000D01*
X45604240Y62230840D01*
X45809420Y62184222D01*
X45875424Y62196941D01*
X46332597Y62444695D01*
X46660158Y62848542D01*
X46808240Y63347000D01*
X46808240Y63847000D01*
X45604240Y63847000D01*
X45358240Y63847000D01*
X44154240Y63847000D01*
X42036240Y63847000D01*
X42036240Y64511827D01*
X42020094Y64593000D01*
X44154240Y64593000D01*
X44154240Y64093000D01*
X45358240Y64093000D01*
X45358240Y65709160D01*
X45604240Y65709160D01*
X45604240Y64093000D01*
X46808240Y64093000D01*
X46808240Y64593000D01*
X46660158Y65091458D01*
X46332597Y65495305D01*
X45875424Y65743059D01*
X45809420Y65755778D01*
X45604240Y65709160D01*
X45358240Y65709160D01*
X45153060Y65755778D01*
X45087056Y65743059D01*
X44629883Y65495305D01*
X44302322Y65091458D01*
X44154240Y64593000D01*
X42020094Y64593000D01*
X41911783Y65137514D01*
X41557360Y65667947D01*
X41026927Y66022370D01*
X40401240Y66146827D01*
X39775553Y66022370D01*
X39245120Y65667947D01*
X38890697Y65137514D01*
X38766240Y64511827D01*
X36396780Y64511827D01*
X36396780Y64593000D01*
X36248698Y65091458D01*
X35921137Y65495305D01*
X35463964Y65743059D01*
X35397960Y65755778D01*
X35192780Y65709160D01*
X34946780Y65709160D01*
X34741600Y65755778D01*
X34675596Y65743059D01*
X34218423Y65495305D01*
X33890862Y65091458D01*
X33742780Y64593000D01*
X31608634Y64593000D01*
X31500323Y65137514D01*
X31145900Y65667947D01*
X30615467Y66022370D01*
X29989780Y66146827D01*
X29364093Y66022370D01*
X28833660Y65667947D01*
X28479237Y65137514D01*
X28354780Y64511827D01*
X21455741Y64511827D01*
X21312291Y64859001D01*
X20562707Y65609895D01*
X19582827Y66016776D01*
X18521828Y66017702D01*
X17541239Y65612531D01*
X16790345Y64862947D01*
X16383464Y63883067D01*
X16382538Y62822068D01*
X710000Y62822068D01*
X710000Y66290000D01*
X89290000Y66290000D01*
X89290000Y59486312D01*
G36*
X48406780Y15387578D02*
X48406780Y4593528D01*
X48089330Y4381415D01*
X47879000Y4066634D01*
X47668670Y4381415D01*
X47369000Y4581648D01*
X47369000Y8801200D01*
X47335799Y8968110D01*
X47311148Y9092040D01*
X47146401Y9338601D01*
X39469982Y17015020D01*
X39596060Y17015020D01*
X39710984Y17037880D01*
X46756478Y17037880D01*
X48406780Y15387578D01*
X48406780Y15387578D01*
G37*
X48406780Y15387578D02*
X48406780Y4593528D01*
X48089330Y4381415D01*
X47879000Y4066634D01*
X47668670Y4381415D01*
X47369000Y4581648D01*
X47369000Y8801200D01*
X47335799Y8968110D01*
X47311148Y9092040D01*
X47146401Y9338601D01*
X39469982Y17015020D01*
X39596060Y17015020D01*
X39710984Y17037880D01*
X46756478Y17037880D01*
X48406780Y15387578D01*
G36*
X33176450Y17018748D02*
X33423011Y16854001D01*
X33713851Y16796149D01*
X35634249Y16796149D01*
X43309000Y9121398D01*
X43309000Y4581648D01*
X43009330Y4381415D01*
X42799000Y4066634D01*
X42588670Y4381415D01*
X42289000Y4581648D01*
X42289000Y8420200D01*
X42231148Y8711039D01*
X42066401Y8957601D01*
X34862961Y16161041D01*
X34616399Y16325788D01*
X34325560Y16383640D01*
X33421162Y16383640D01*
X31782731Y18022071D01*
X32108356Y18086842D01*
X33176450Y17018748D01*
X33176450Y17018748D01*
G37*
X33176450Y17018748D02*
X33423011Y16854001D01*
X33713851Y16796149D01*
X35634249Y16796149D01*
X43309000Y9121398D01*
X43309000Y4581648D01*
X43009330Y4381415D01*
X42799000Y4066634D01*
X42588670Y4381415D01*
X42289000Y4581648D01*
X42289000Y8420200D01*
X42231148Y8711039D01*
X42066401Y8957601D01*
X34862961Y16161041D01*
X34616399Y16325788D01*
X34325560Y16383640D01*
X33421162Y16383640D01*
X31782731Y18022071D01*
X32108356Y18086842D01*
X33176450Y17018748D01*
G36*
X36367953Y12506445D02*
X36270045Y12547000D01*
X35659750Y12547000D01*
X35578000Y12465250D01*
X35578000Y10843000D01*
X36450250Y10843000D01*
X36532000Y10924750D01*
X36532000Y12285044D01*
X36491444Y12382954D01*
X40769000Y8105398D01*
X40769000Y4581648D01*
X40469330Y4381415D01*
X40459757Y4367087D01*
X40455762Y4388317D01*
X40316690Y4604441D01*
X40104490Y4749431D01*
X39852600Y4800440D01*
X39266502Y4800440D01*
X35173942Y8893000D01*
X35250250Y8893000D01*
X35332000Y8974750D01*
X35332000Y10597000D01*
X35578000Y10597000D01*
X35578000Y8974750D01*
X35659750Y8893000D01*
X36270045Y8893000D01*
X36390231Y8942783D01*
X36482217Y9034770D01*
X36532000Y9154956D01*
X36532000Y10515250D01*
X36450250Y10597000D01*
X35578000Y10597000D01*
X35332000Y10597000D01*
X34459750Y10597000D01*
X34378000Y10515250D01*
X34378000Y9688942D01*
X33180560Y10886382D01*
X33180560Y11975297D01*
X33638287Y11785232D01*
X34169383Y11784769D01*
X34378000Y11870968D01*
X34378000Y10924750D01*
X34459750Y10843000D01*
X35332000Y10843000D01*
X35332000Y12465250D01*
X35250250Y12547000D01*
X35112586Y12547000D01*
X35239768Y12853287D01*
X35240231Y13384383D01*
X35064350Y13810048D01*
X36367953Y12506445D01*
X36367953Y12506445D01*
G37*
X36367953Y12506445D02*
X36270045Y12547000D01*
X35659750Y12547000D01*
X35578000Y12465250D01*
X35578000Y10843000D01*
X36450250Y10843000D01*
X36532000Y10924750D01*
X36532000Y12285044D01*
X36491444Y12382954D01*
X40769000Y8105398D01*
X40769000Y4581648D01*
X40469330Y4381415D01*
X40459757Y4367087D01*
X40455762Y4388317D01*
X40316690Y4604441D01*
X40104490Y4749431D01*
X39852600Y4800440D01*
X39266502Y4800440D01*
X35173942Y8893000D01*
X35250250Y8893000D01*
X35332000Y8974750D01*
X35332000Y10597000D01*
X35578000Y10597000D01*
X35578000Y8974750D01*
X35659750Y8893000D01*
X36270045Y8893000D01*
X36390231Y8942783D01*
X36482217Y9034770D01*
X36532000Y9154956D01*
X36532000Y10515250D01*
X36450250Y10597000D01*
X35578000Y10597000D01*
X35332000Y10597000D01*
X34459750Y10597000D01*
X34378000Y10515250D01*
X34378000Y9688942D01*
X33180560Y10886382D01*
X33180560Y11975297D01*
X33638287Y11785232D01*
X34169383Y11784769D01*
X34378000Y11870968D01*
X34378000Y10924750D01*
X34459750Y10843000D01*
X35332000Y10843000D01*
X35332000Y12465250D01*
X35250250Y12547000D01*
X35112586Y12547000D01*
X35239768Y12853287D01*
X35240231Y13384383D01*
X35064350Y13810048D01*
X36367953Y12506445D01*
G36*
X25580971Y18460330D02*
X26067152Y18135474D01*
X26640641Y18021400D01*
X26699359Y18021400D01*
X27028356Y18086842D01*
X27111420Y18003778D01*
X27111420Y16878400D01*
X27169272Y16587561D01*
X27334019Y16340999D01*
X31660560Y12014458D01*
X31660560Y10571580D01*
X31718412Y10280741D01*
X31883159Y10034179D01*
X33762213Y8155125D01*
X33640617Y8155231D01*
X33149771Y7952418D01*
X32902440Y7705518D01*
X32902440Y7970000D01*
X32858162Y8205317D01*
X32719090Y8421441D01*
X32506890Y8566431D01*
X32255000Y8617440D01*
X31365000Y8617440D01*
X31365000Y11802940D01*
X31307148Y12093779D01*
X31142401Y12340341D01*
X25101166Y18381576D01*
X25219029Y18460330D01*
X25400000Y18731172D01*
X25580971Y18460330D01*
X25580971Y18460330D01*
G37*
X25580971Y18460330D02*
X26067152Y18135474D01*
X26640641Y18021400D01*
X26699359Y18021400D01*
X27028356Y18086842D01*
X27111420Y18003778D01*
X27111420Y16878400D01*
X27169272Y16587561D01*
X27334019Y16340999D01*
X31660560Y12014458D01*
X31660560Y10571580D01*
X31718412Y10280741D01*
X31883159Y10034179D01*
X33762213Y8155125D01*
X33640617Y8155231D01*
X33149771Y7952418D01*
X32902440Y7705518D01*
X32902440Y7970000D01*
X32858162Y8205317D01*
X32719090Y8421441D01*
X32506890Y8566431D01*
X32255000Y8617440D01*
X31365000Y8617440D01*
X31365000Y11802940D01*
X31307148Y12093779D01*
X31142401Y12340341D01*
X25101166Y18381576D01*
X25219029Y18460330D01*
X25400000Y18731172D01*
X25580971Y18460330D01*
G36*
X29180641Y18021400D02*
X29239359Y18021400D01*
X29568356Y18086842D01*
X32568959Y15086239D01*
X32815521Y14921492D01*
X33106360Y14863640D01*
X34010758Y14863640D01*
X34595674Y14278724D01*
X34171713Y14454768D01*
X33640617Y14455231D01*
X33149771Y14252418D01*
X32773902Y13877204D01*
X32570232Y13386713D01*
X32570117Y13254505D01*
X28631420Y17193202D01*
X28631420Y18130647D01*
X29180641Y18021400D01*
X29180641Y18021400D01*
G37*
X29180641Y18021400D02*
X29239359Y18021400D01*
X29568356Y18086842D01*
X32568959Y15086239D01*
X32815521Y14921492D01*
X33106360Y14863640D01*
X34010758Y14863640D01*
X34595674Y14278724D01*
X34171713Y14454768D01*
X33640617Y14455231D01*
X33149771Y14252418D01*
X32773902Y13877204D01*
X32570232Y13386713D01*
X32570117Y13254505D01*
X28631420Y17193202D01*
X28631420Y18130647D01*
X29180641Y18021400D01*
G36*
X78619159Y60087419D02*
X78865721Y59922672D01*
X79156560Y59864820D01*
X80510538Y59864820D01*
X80857111Y59518247D01*
X80768000Y59492988D01*
X80768000Y58378000D01*
X80788000Y58378000D01*
X80788000Y58132000D01*
X80768000Y58132000D01*
X80768000Y57017012D01*
X80941734Y56967766D01*
X80983943Y56973044D01*
X81188020Y57084515D01*
X81188020Y51503522D01*
X75027599Y45343101D01*
X74862852Y45096539D01*
X74805000Y44805700D01*
X74805000Y44431914D01*
X74550302Y44261730D01*
X74295000Y43879644D01*
X74039698Y44261730D01*
X73785000Y44431914D01*
X73785000Y44592498D01*
X77374941Y48182439D01*
X77539688Y48429001D01*
X77597540Y48719840D01*
X77597540Y56688908D01*
X78105000Y56587968D01*
X78654151Y56697201D01*
X79119698Y57008270D01*
X79430767Y57473817D01*
X79522016Y57932557D01*
X79640273Y57529611D01*
X79917811Y57185111D01*
X80306057Y56973044D01*
X80348266Y56967766D01*
X80522000Y57017012D01*
X80522000Y58132000D01*
X80502000Y58132000D01*
X80502000Y58378000D01*
X80522000Y58378000D01*
X80522000Y59492988D01*
X80348266Y59542234D01*
X80306057Y59536956D01*
X79917811Y59324889D01*
X79640273Y58980389D01*
X79522016Y58577443D01*
X79430767Y59036183D01*
X79119698Y59501730D01*
X78654151Y59812799D01*
X78105000Y59922032D01*
X77597540Y59821092D01*
X77597540Y61109038D01*
X78619159Y60087419D01*
X78619159Y60087419D01*
G37*
X78619159Y60087419D02*
X78865721Y59922672D01*
X79156560Y59864820D01*
X80510538Y59864820D01*
X80857111Y59518247D01*
X80768000Y59492988D01*
X80768000Y58378000D01*
X80788000Y58378000D01*
X80788000Y58132000D01*
X80768000Y58132000D01*
X80768000Y57017012D01*
X80941734Y56967766D01*
X80983943Y56973044D01*
X81188020Y57084515D01*
X81188020Y51503522D01*
X75027599Y45343101D01*
X74862852Y45096539D01*
X74805000Y44805700D01*
X74805000Y44431914D01*
X74550302Y44261730D01*
X74295000Y43879644D01*
X74039698Y44261730D01*
X73785000Y44431914D01*
X73785000Y44592498D01*
X77374941Y48182439D01*
X77539688Y48429001D01*
X77597540Y48719840D01*
X77597540Y56688908D01*
X78105000Y56587968D01*
X78654151Y56697201D01*
X79119698Y57008270D01*
X79430767Y57473817D01*
X79522016Y57932557D01*
X79640273Y57529611D01*
X79917811Y57185111D01*
X80306057Y56973044D01*
X80348266Y56967766D01*
X80522000Y57017012D01*
X80522000Y58132000D01*
X80502000Y58132000D01*
X80502000Y58378000D01*
X80522000Y58378000D01*
X80522000Y59492988D01*
X80348266Y59542234D01*
X80306057Y59536956D01*
X79917811Y59324889D01*
X79640273Y58980389D01*
X79522016Y58577443D01*
X79430767Y59036183D01*
X79119698Y59501730D01*
X78654151Y59812799D01*
X78105000Y59922032D01*
X77597540Y59821092D01*
X77597540Y61109038D01*
X78619159Y60087419D01*
G36*
X72010302Y57008270D02*
X72475849Y56697201D01*
X73025000Y56587968D01*
X73216947Y56626149D01*
X70510558Y53919760D01*
X64884562Y53919760D01*
X67617845Y56653043D01*
X67945000Y56587968D01*
X68494151Y56697201D01*
X68959698Y57008270D01*
X69215000Y57390356D01*
X69470302Y57008270D01*
X69935849Y56697201D01*
X70485000Y56587968D01*
X71034151Y56697201D01*
X71499698Y57008270D01*
X71755000Y57390356D01*
X72010302Y57008270D01*
X72010302Y57008270D01*
G37*
X72010302Y57008270D02*
X72475849Y56697201D01*
X73025000Y56587968D01*
X73216947Y56626149D01*
X70510558Y53919760D01*
X64884562Y53919760D01*
X67617845Y56653043D01*
X67945000Y56587968D01*
X68494151Y56697201D01*
X68959698Y57008270D01*
X69215000Y57390356D01*
X69470302Y57008270D01*
X69935849Y56697201D01*
X70485000Y56587968D01*
X71034151Y56697201D01*
X71499698Y57008270D01*
X71755000Y57390356D01*
X72010302Y57008270D01*
M02*
